<?xml version="1.0" encoding="UTF-8" standalone="no"?>
<svg width="201px" height="197px" viewBox="0 0 201 197" version="1.1" xmlns="http://www.w3.org/2000/svg" xmlns:xlink="http://www.w3.org/1999/xlink">
    <!-- Generator: Sketch 39.1 (31720) - http://www.bohemiancoding.com/sketch -->
    <title>A_award</title>
    <desc>Created with Sketch.</desc>
    <defs>
        <rect id="path-1" x="0" y="0" width="216.440571" height="199.946916"></rect>
        <ellipse id="path-3" cx="99.7655756" cy="99.9734582" rx="99.7655756" ry="99.9734582"></ellipse>
        <ellipse id="path-5" cx="100.047399" cy="100.255869" rx="97.2291626" ry="97.4317601"></ellipse>
        <path d="M0.177131993,0.540370723 L0.177131993,30.5920231 C0.177131993,59.3348202 20.4777786,82.6379508 45.5205259,82.6379508 C70.5602827,82.6379508 90.8579388,59.3348202 90.8579388,30.5920231 L90.8579388,0.540370723 L0.177131993,0.540370723 Z" id="path-7"></path>
        <path d="M45.6554329,82.6377253 C70.6331473,82.5542043 90.8579388,59.2831833 90.8579388,30.5920231 L90.8579388,0.540370723 L45.6554329,0.540370723 L45.6554329,82.6377414 Z" id="path-9"></path>
    </defs>
    <g id="mobile" stroke="none" stroke-width="1" fill="none" fill-rule="evenodd">
        <g id="m_winA" transform="translate(-56.000000, -94.000000)">
            <g id="bigcup" transform="translate(52.000000, 80.000000)">
                <g id="A_award">
                    <g id="Group-4">
                        <mask id="mask-2" fill="white">
                            <use xlink:href="#path-1"></use>
                        </mask>
                        <g id="Mask"></g>
                        <g mask="url(#mask-2)">
                            <g transform="translate(4.509179, 14.120545)">
                                <g id="Rectangle-3" stroke-width="1" fill="none">
                                    <mask id="mask-4" fill="white">
                                        <use xlink:href="#path-3"></use>
                                    </mask>
                                    <use id="Mask" fill="#D9A428" xlink:href="#path-3"></use>
                                    <mask id="mask-6" fill="white">
                                        <use xlink:href="#path-5"></use>
                                    </mask>
                                    <use id="Mask" fill="#F9C54B" xlink:href="#path-5"></use>
                                    <rect fill="#E8B439" mask="url(#mask-6)" x="-24.8004821" y="-18.0742975" width="124.00241" height="258.688383"></rect>
                                </g>
                                <ellipse id="Oval" fill="#AC663B" cx="100.047399" cy="100.255869" rx="75.2469172" ry="75.40371"></ellipse>
                                <g id="Page-1" stroke-width="1" fill="none" transform="translate(6.200121, 5.648218)">
                                    <polygon id="Fill-1" fill="#C9971F" points="92.6413315 0.339212921 90.5085921 4.66967769 85.7394841 5.36141495 89.1892256 8.73008065 88.3734882 13.4869588 92.6413315 11.2435506 96.9068104 13.4869588 96.091073 8.73008065 99.5408146 5.36141495 94.7717065 4.66967769"></polygon>
                                    <polygon id="Fill-2" fill="#C9971F" points="60.3438064 6.41986771 63.8266503 9.75536793 68.5437403 8.77461715 66.4511966 13.1216647 68.8416618 17.3123606 64.0654604 16.6632647 60.823791 20.2356612 59.9678579 15.48589 55.5746984 13.5030677 59.8165327 11.2146493"></polygon>
                                    <polygon id="Fill-3" fill="#C9971F" points="32.0720043 23.1992342 36.481715 25.141784 40.581682 22.6022555 40.0993329 27.4041439 43.7736978 30.5240685 39.0660656 31.5498295 37.2407054 36.0176942 34.812409 31.8483189 30.0078341 31.4906055 33.2140366 27.8874124"></polygon>
                                    <polygon id="Fill-4" fill="#C9971F" points="11.2328701 48.6563499 16.037445 48.969053 19.0237531 45.1787118 20.2107101 49.8574142 24.7291858 51.5275333 20.6552278 54.1073342 20.4637069 58.9305433 16.7609686 55.8437843 12.1219056 57.1538209 13.90707 52.6670046"></polygon>
                                    <polygon id="Fill-5" fill="#C9971F" points="4.96091375 78.3664652 0.338401994 79.7167742 4.22320344 82.5713749 4.07660715 87.396953 7.98978207 84.5778867 12.5224445 86.2077334 11.0564817 81.6119448 14.0002296 77.7931761 9.18383242 77.7694864 6.47416568 73.7801524"></polygon>
                                    <polygon id="Fill-6" fill="#C9971F" points="4.59063992 109.784603 0.705838479 112.636835 5.33071469 113.991882 6.84160217 118.575825 9.55599782 114.584122 14.3700305 114.565171 11.4239182 110.746402 12.8875165 106.148244 8.35248964 107.775722 4.44404364 104.956656"></polygon>
                                    <polygon id="Fill-7" fill="#C9971F" points="12.2881269 143.447333 14.9646912 139.436679 13.1818913 134.949862 17.8162254 136.259899 21.5213281 133.175509 21.7152135 137.998718 25.786807 140.57615 21.2683313 142.246269 20.0813743 146.924971 17.0974307 143.13463"></polygon>
                                    <polygon id="Fill-8" fill="#C9971F" points="33.690711 168.432552 34.8351078 163.744373 31.6312697 160.14118 36.4311157 159.783467 38.8617766 155.614092 40.6895012 160.081956 45.3947689 161.107717 41.7204041 164.225273 42.2003887 169.027161 38.1027862 166.490002"></polygon>
                                    <polygon id="Fill-9" fill="#C9971F" points="62.3320776 184.575615 61.8071683 179.778464 57.565334 177.490046 61.9561291 175.507223 62.8144266 170.757452 66.056096 174.329849 70.829933 173.680753 68.4394678 177.86908 70.5320115 182.218496 65.8172859 181.237745"></polygon>
                                    <polygon id="Fill-10" fill="#C9971F" points="91.3070689 181.53505 87.8573274 184.903716 92.6264355 185.60256 94.754446 189.928287 96.8919143 185.597822 101.658658 184.903716 98.206552 181.53505 99.0222893 176.78291 94.7591749 179.026318 90.4913316 176.778172"></polygon>
                                    <polygon id="Fill-11" fill="#C9971F" points="127.051971 183.84929 123.573856 180.51379 118.854402 181.492172 120.946945 177.145125 118.55648 172.95206 123.332682 173.603525 126.574351 170.033497 127.42792 174.780899 131.823444 176.763721 127.581609 179.049771"></polygon>
                                    <polygon id="Fill-12" fill="#C9971F" points="155.32401 167.069924 150.919028 165.127374 146.816696 167.664534 147.299045 162.862645 143.622316 159.740352 148.332313 158.71696 150.157673 154.251464 152.583605 158.420839 157.38818 158.776184 154.184342 162.379377"></polygon>
                                    <polygon id="Fill-13" fill="#C9971F" points="176.165272 141.615177 171.363061 141.297736 168.374389 145.088077 167.187432 140.409375 162.666592 138.736887 166.742914 136.159455 166.934435 131.338615 170.637173 134.425374 175.273872 133.115337 173.491072 137.597416"></polygon>
                                    <polygon id="Fill-14" fill="#C9971F" points="179.410961 105.691035 174.875934 104.058819 176.339532 108.659345 173.39342 112.475745 178.209817 112.497066 180.924213 116.4864 182.439829 111.902456 187.059976 110.552147 183.175175 107.692808 183.319407 102.869599"></polygon>
                                    <polygon id="Fill-15" fill="#C9971F" points="177.846873 75.684325 173.028111 75.7032767 175.974224 79.5220454 174.508261 84.120203 179.043288 82.4879874 182.954098 85.3094226 182.812231 80.4791066 186.692303 77.6316128 182.067427 76.2741969 180.558904 71.690253"></polygon>
                                    <polygon id="Fill-16" fill="#C9971F" points="175.107651 46.8194558 172.433451 50.8277415 174.216251 55.3169268 169.579552 54.0068902 165.876814 57.0960182 165.682928 52.2728091 161.608971 49.6930082 166.132175 48.0228891 167.316768 43.3418178 170.300711 47.1321589"></polygon>
                                    <polygon id="Fill-17" fill="#C9971F" points="153.705303 21.8366066 152.563271 26.5224158 155.767109 30.1256089 150.964898 30.4833223 148.536602 34.6574355 146.708877 30.1872019 142.001245 29.1614408 145.680339 26.0415163 145.195625 21.2372589 149.293228 23.7744185"></polygon>
                                    <polygon id="Fill-18" fill="#C9971F" points="125.066301 5.69591255 125.59121 10.4883251 129.833044 12.7767436 125.439885 14.7595658 124.586316 19.514075 121.342282 15.9393095 116.566081 16.5884054 118.961275 12.3977095 116.864002 8.04592407 121.578728 9.0290438"></polygon>
                                </g>
                            </g>
                        </g>
                    </g>
                    <g id="cup" transform="translate(43.400844, 56.482180)">
                        <g id="Group-17" transform="translate(0.000000, 0.352770)">
                            <polygon id="Fill-5" fill="#E1AD43" points="38.9042807 120.333576 83.7004228 120.333576 83.7004228 105.366269 38.9042807 105.366269"></polygon>
                            <path d="M83.7006471,105.365581 C83.7006471,107.557206 73.6721845,109.331925 61.3029499,109.331925 C48.9329676,109.331925 38.904505,107.557206 38.904505,105.365581 C38.904505,103.174721 48.9329676,101.402297 61.3029499,101.402297 C73.6721845,101.402297 83.7006471,103.174721 83.7006471,105.365581" id="Fill-8" fill="#E1AD43"></path>
                            <path d="M83.7006471,120.333193 C83.7006471,122.524818 73.6721845,124.299537 61.3029499,124.299537 C48.9329676,124.299537 38.904505,122.524818 38.904505,120.333193 C38.904505,118.141568 48.9329676,116.366849 61.3029499,116.366849 C73.6721845,116.366849 83.7006471,118.141568 83.7006471,120.333193" id="Fill-9" fill="#E1AD43"></path>
                            <path d="M69.2824332,86.422292 C69.2824332,90.0329271 65.6378265,92.9558586 61.14169,92.9558586 C56.6433108,92.9558586 52.9979564,90.0329271 52.9979564,86.422292 C52.9979564,82.8139518 56.6433108,79.8887254 61.14169,79.8887254 C65.6378265,79.8887254 69.2824332,82.8139518 69.2824332,86.422292" id="Fill-10" fill="#F1BC40"></path>
                            <polygon id="Fill-11" fill="#F1BC40" points="58.1111715 103.941904 64.1750495 103.941904 64.1750495 90.0164803 58.1111715 90.0164803"></polygon>
                            <path d="M8.19441288,22.6313203 C7.45352974,28.1895564 6.94216337,40.2874788 14.8160092,47.6686266 C17.2502327,49.9398079 20.2937597,51.8897038 21.788983,52.1765657 C22.2345596,50.7460811 22.8505916,44.705152 15.1696295,22.6313203 L8.19441288,22.6313203 Z M22.1291463,59.8629346 L22.1276511,59.8629346 C17.174724,59.8621697 11.4181143,54.8508836 9.77262106,53.3148337 C-3.46832878,40.9040406 0.890994719,20.2339198 1.43226555,17.9176056 L2.11782543,14.9816697 L20.4096395,14.9816697 L21.3067735,17.4945799 C29.0378255,39.1599203 32.7556982,54.4859952 25.7647818,58.8570056 C24.6942019,59.5248201 23.4718568,59.8629346 22.1291463,59.8629346 L22.1291463,59.8629346 Z" id="Fill-13" fill="#F1BC40"></path>
                            <path d="M106.574349,22.6313203 C98.8918915,44.7105068 99.5101663,50.7491409 99.9557428,52.1780957 C101.569836,51.8751695 104.798771,49.6667154 106.926474,47.6701566 C114.782377,40.305073 114.282972,28.197206 113.54807,22.6313203 L106.574349,22.6313203 Z M99.6155795,59.8629346 C98.2721214,59.8629346 97.0497764,59.5248201 95.9829345,58.8585355 C88.9897752,54.4859952 92.7061527,39.1606853 100.437952,17.4945799 L101.334339,14.9816697 L119.634377,14.9816697 L120.316198,17.9244903 C120.853731,20.2423344 125.183898,40.9308144 111.978086,53.309479 C110.340816,54.8455288 104.606635,59.8629346 99.6155795,59.8629346 L99.6155795,59.8629346 Z" id="Fill-12" fill="#F1BC40"></path>
                            <g id="Rectangle-5" transform="translate(15.782125, 3.388931)">
                                <mask id="mask-8" fill="white">
                                    <use xlink:href="#path-7"></use>
                                </mask>
                                <use id="Mask" fill="#F1BC40" xlink:href="#path-7"></use>
                                <mask id="mask-10" fill="white">
                                    <use xlink:href="#path-9"></use>
                                </mask>
                                <use id="Combined-Shape" fill="#FAC854" xlink:href="#path-9"></use>
                            </g>
                            <path d="M106.640363,3.67227325 C106.640363,5.69866569 86.3427067,7.34104567 61.3022022,7.34104567 C36.259455,7.34104567 15.959556,5.69866569 15.959556,3.67227325 C15.959556,1.6481757 36.259455,0.00579572154 61.3022022,0.00579572154 C86.3427067,0.00579572154 106.640363,1.6481757 106.640363,3.67227325" id="Fill-15" fill="#E1AD43"></path>
                            <path d="M79.1685506,105.31777 C79.1685506,106.745195 71.0950924,107.901822 61.1361577,107.901822 C51.1779706,107.901822 43.1045124,106.745195 43.1045124,105.31777 C43.1045124,103.891111 51.1779706,102.734483 61.1361577,102.734483 C71.0950924,102.734483 79.1685506,103.891111 79.1685506,105.31777" id="Fill-16" fill="#F1BC40"></path>
                        </g>
                    </g>
                    <g id="tittle" transform="translate(24.236835, 106.011361)">
                        <g id="bg" transform="translate(0.000000, 64.000000)">
                            <polygon id="Fill-1" fill="#DB741D" points="142.245265 3.61816883 141.727138 40.3769665 159.022842 40.3769665 156.461732 31.1876086 153.901038 21.9975677 156.461732 12.8082097 159.541385 3.61816883"></polygon>
                            <polygon id="Fill-2" fill="#955415" points="141.727304 36.758866 141.727304 40.3765568 147.795958 36.758866"></polygon>
                            <polygon id="Fill-3" fill="#DB741D" points="0 3.61816883 3.07923666 12.8082097 5.64034653 21.9975677 3.07923666 31.1876086 0.51812679 40.3769665 17.8138311 40.3769665 17.2957043 3.61816883"></polygon>
                            <polygon id="Fill-4" fill="#955415" points="11.7450528 36.758866 17.8137063 40.3765568 17.8137063 36.758866"></polygon>
                            <polygon id="Fill-5" fill="#E9822C" points="11.7451775 36.7591392 147.795875 36.7591392 147.795875 0.000341484874 11.7451775 0.000341484874"></polygon>
                        </g>
                        <g id="Group-5" transform="translate(51.291906, 0.739959)">
                            <path d="M29.8689044,22.3368423 L0.0945963997,17.4997208 L0.0945963997,1.68471042 L29.8689044,6.52183197 L29.8689044,22.3368423 Z M29.8733079,22.3465973 L59.647616,17.5094757 L59.647616,1.69446539 L29.8733079,6.53158694 L29.8733079,22.3465973 Z" id="Combined-Shape" fill="#D9A836"></path>
                            <polygon id="Rectangle" fill="#F0C86C" points="29.8689044 21.2071987 0.0945963997 16.3700772 0.0945963997 0.555066827 29.8689044 5.39218837"></polygon>
                            <polygon id="Rectangle" fill="#F2DBA7" transform="translate(44.760462, 10.890888) scale(-1, 1) translate(-44.760462, -10.890888) " points="59.647616 21.2169537 29.8733079 16.3798321 29.8733079 0.564821798 59.647616 5.40194334"></polygon>
                        </g>
                    </g>
                </g>
            </g>
        </g>
    </g>
</svg>