<?xml version="1.0" encoding="UTF-8" standalone="no"?>
<svg width="200px" height="196px" viewBox="0 0 200 196" version="1.1" xmlns="http://www.w3.org/2000/svg" xmlns:xlink="http://www.w3.org/1999/xlink">
    <!-- Generator: Sketch 39.1 (31720) - http://www.bohemiancoding.com/sketch -->
    <title>B_award</title>
    <desc>Created with Sketch.</desc>
    <defs>
        <rect id="path-1" x="0" y="0" width="216" height="199.561018"></rect>
        <ellipse id="path-3" cx="99.5625" cy="99.7805089" rx="99.5625" ry="99.7805089"></ellipse>
        <ellipse id="path-5" cx="99.84375" cy="100.062375" rx="97.03125" ry="97.2437163"></ellipse>
        <path d="M0.176771435,0.539327805 L0.176771435,30.5329803 C0.176771435,59.2203037 20.4360955,82.4784592 45.4278676,82.4784592 C70.4166553,82.4784592 90.672995,59.2203037 90.672995,30.5329803 L90.672995,0.539327805 L0.176771435,0.539327805 Z" id="path-7"></path>
    </defs>
    <g id="mobile" stroke="none" stroke-width="1" fill="none" fill-rule="evenodd">
        <g id="m_winB" transform="translate(-56.000000, -95.000000)">
            <g id="bigcup" transform="translate(52.000000, 81.000000)">
                <g id="B_award">
                    <g id="Group-4">
                        <mask id="mask-2" fill="white">
                            <use xlink:href="#path-1"></use>
                        </mask>
                        <g id="Mask"></g>
                        <g mask="url(#mask-2)">
                            <g transform="translate(4.500000, 14.093292)">
                                <g id="Rectangle-3" stroke-width="1" fill="none">
                                    <mask id="mask-4" fill="white">
                                        <use xlink:href="#path-3"></use>
                                    </mask>
                                    <use id="Mask" fill="#8D8D8C" xlink:href="#path-3"></use>
                                    <mask id="mask-6" fill="white">
                                        <use xlink:href="#path-5"></use>
                                    </mask>
                                    <use id="Mask" fill="#D6D6D6" xlink:href="#path-5"></use>
                                    <rect fill="#BFBFBF" mask="url(#mask-6)" x="-24.75" y="-18.039414" width="123.75" height="258.189114"></rect>
                                </g>
                                <ellipse id="Oval" fill="#8B8B8B" cx="99.84375" cy="100.062375" rx="75.09375" ry="75.2581805"></ellipse>
                                <g id="Page-1" stroke-width="1" fill="none" transform="translate(6.187500, 5.637317)">
                                    <polygon id="Fill-1" fill="#999999" points="92.4527576 0.338558239 90.3243594 4.66066519 85.564959 5.35106739 89.0076784 8.71323155 88.1936015 13.4609289 92.4527576 11.2218505 96.7095539 13.4609289 95.895477 8.71323155 99.3381965 5.35106739 94.5787961 4.66066519"></polygon>
                                    <polygon id="Fill-2" fill="#999999" points="60.2209749 6.40747734 63.6967294 9.73654002 68.4042176 8.7576821 66.3159334 13.0963398 68.7015327 17.2789477 63.9350534 16.6311045 60.6999825 20.1966063 59.8457917 15.4560021 55.4615745 13.4770068 59.6947745 11.1930049"></polygon>
                                    <polygon id="Fill-3" fill="#999999" points="32.0067209 23.1544596 36.4074555 25.0932603 40.4990768 22.558633 40.0177096 27.3512538 43.6845952 30.4651569 38.9865455 31.4889382 37.164901 35.9481799 34.7415474 31.7868515 29.9467523 31.4298285 33.1464286 27.8335896"></polygon>
                                    <polygon id="Fill-4" fill="#999999" points="11.2100053 48.5624429 16.0048003 48.8745425 18.9850297 45.0915167 20.1695706 49.7611892 24.6788488 51.4280849 20.6131836 54.0029068 20.4220525 58.8168071 16.7268512 55.7360055 12.0972312 57.0435138 13.8787618 52.565357"></polygon>
                                    <polygon id="Fill-5" fill="#999999" points="4.95081568 78.2152175 0.337713168 79.5629205 4.21460699 82.4120118 4.06830911 87.2282765 7.97351865 84.414651 12.4969547 86.0413521 11.0339759 81.4544334 13.9717317 77.6430349 9.16513848 77.619391 6.46098734 73.6377564"></polygon>
                                    <polygon id="Fill-6" fill="#999999" points="4.58129555 109.572718 0.704401725 112.419445 5.31986388 113.771877 6.8276759 118.346974 9.53654632 114.362975 14.3407799 114.344059 11.4006645 110.532661 12.8612836 105.943378 8.33548792 107.567715 4.43499767 104.754089"></polygon>
                                    <polygon id="Fill-7" fill="#999999" points="12.2631141 143.170479 14.9342302 139.167565 13.1550592 134.689409 17.7799599 135.996917 21.4775209 132.91848 21.6710116 137.73238 25.7343173 140.304837 21.225039 141.971733 20.0404981 146.641406 17.0626284 142.85838"></polygon>
                                    <polygon id="Fill-8" fill="#999999" points="33.6221326 168.107476 34.7642 163.428346 31.5668834 159.832107 36.3569591 159.475084 38.7826724 155.313756 40.6066766 159.772997 45.3023666 160.796779 41.635481 163.908317 42.1144886 168.700938 38.0252269 166.168675"></polygon>
                                    <polygon id="Fill-9" fill="#999999" points="62.2051989 184.219383 61.6813581 179.431491 57.4481582 177.147489 61.8300157 175.168494 62.6865661 170.427889 65.921637 173.993391 70.6857567 173.345548 68.3001574 177.525792 70.3884416 181.866814 65.683313 180.887956"></polygon>
                                    <polygon id="Fill-10" fill="#999999" points="91.1212109 181.184687 87.6784914 184.546851 92.4378918 185.244346 94.5615707 189.561725 96.6946882 185.239618 101.451729 184.546851 98.0066498 181.184687 98.8207267 176.441718 94.56629 178.680797 90.307134 176.436989"></polygon>
                                    <polygon id="Fill-11" fill="#999999" points="126.793353 183.49446 123.322318 180.165398 118.61247 181.141891 120.700755 176.803234 118.315155 172.618261 123.081635 173.268469 126.316705 169.705332 127.168537 174.443571 131.555113 176.422567 127.321913 178.704204"></polygon>
                                    <polygon id="Fill-12" fill="#999999" points="155.007843 166.747478 150.611828 164.808678 146.517847 167.34094 146.999214 162.54832 143.329969 159.432052 148.030378 158.410635 149.852023 153.953758 152.273017 158.115086 157.067812 158.469745 153.870495 162.065984"></polygon>
                                    <polygon id="Fill-13" fill="#999999" points="175.806683 141.341859 171.014247 141.025031 168.031658 144.808057 166.847117 140.138384 162.335479 138.469124 166.403504 135.896667 166.594635 131.085131 170.289837 134.165932 174.917097 132.858424 173.137926 137.331852"></polygon>
                                    <polygon id="Fill-14" fill="#999999" points="179.045765 105.48705 174.519969 103.857985 175.980588 108.449632 173.040473 112.258666 177.847066 112.279946 180.555937 116.261581 182.068468 111.686484 186.679211 110.338781 182.802317 107.484961 182.946255 102.671061"></polygon>
                                    <polygon id="Fill-15" fill="#999999" points="177.484861 75.5382539 172.675908 75.5571691 175.616023 79.3685675 174.153045 83.9578507 178.67884 82.3287852 182.58169 85.144775 182.440112 80.3237815 186.312286 77.4817834 181.696824 76.1269873 180.191372 71.5518905"></polygon>
                                    <polygon id="Fill-16" fill="#999999" points="174.751214 46.729094 172.082458 50.7296438 173.861629 55.2101649 169.234368 53.9026566 165.539167 56.9858226 165.345676 52.1719223 161.280011 49.5971004 165.794009 47.9302047 166.97619 43.2581679 169.95406 47.0411936"></polygon>
                                    <polygon id="Fill-17" fill="#999999" points="153.392432 21.7944618 152.252724 26.4712274 155.45004 30.0674663 150.657605 30.4244894 148.234252 34.5905465 146.410247 30.1289405 141.712198 29.1051591 145.383802 25.991256 144.900076 21.1962709 148.989337 23.7285337"></polygon>
                                    <polygon id="Fill-18" fill="#999999" points="124.811725 5.68491942 125.335566 10.4680826 129.568766 12.7520844 125.184549 14.7310798 124.332717 19.4764128 121.095287 15.9085466 116.328808 16.5563897 118.719126 12.3737819 116.626123 8.0303954 121.331251 9.01161771"></polygon>
                                </g>
                            </g>
                        </g>
                    </g>
                    <g id="cup" transform="translate(43.312500, 56.373169)">
                        <g id="Group-17" transform="translate(0.000000, 0.352089)">
                            <polygon id="Fill-5" fill="#A2A2A2" points="38.82509 120.101331 83.5300483 120.101331 83.5300483 105.162912 38.82509 105.162912"></polygon>
                            <path d="M83.5302721,105.162225 C83.5302721,107.34962 73.5222228,109.120913 61.178166,109.120913 C48.8333632,109.120913 38.8253138,107.34962 38.8253138,105.162225 C38.8253138,102.975593 48.8333632,101.20659 61.178166,101.20659 C73.5222228,101.20659 83.5302721,102.975593 83.5302721,105.162225" id="Fill-8" fill="#A2A2A2"></path>
                            <path d="M83.5302721,120.100949 C83.5302721,122.288344 73.5222228,124.059638 61.178166,124.059638 C48.8333632,124.059638 38.8253138,122.288344 38.8253138,120.100949 C38.8253138,117.913554 48.8333632,116.142261 61.178166,116.142261 C73.5222228,116.142261 83.5302721,117.913554 83.5302721,120.100949" id="Fill-9" fill="#E1AD43"></path>
                            <path d="M69.1414069,86.2554966 C69.1414069,89.8591631 65.5042189,92.7764533 61.0172344,92.7764533 C56.5280117,92.7764533 52.8900776,89.8591631 52.8900776,86.2554966 C52.8900776,82.6541205 56.5280117,79.7345398 61.0172344,79.7345398 C65.5042189,79.7345398 69.1414069,82.6541205 69.1414069,86.2554966" id="Fill-10" fill="#BBBAB9"></path>
                            <polygon id="Fill-11" fill="#BBBAB9" points="57.9928846 103.741296 64.0444194 103.741296 64.0444194 89.8427481 57.9928846 89.8427481"></polygon>
                            <path d="M106.357414,22.5876417 C98.6905943,44.6242153 99.3076106,50.6511949 99.7522802,52.0773917 C101.363088,51.7750502 104.58545,49.5708584 106.708822,47.578153 C114.548734,40.227284 114.050346,28.1427853 113.31694,22.5876417 L106.357414,22.5876417 Z M99.4128093,59.7473989 C98.0720858,59.7473989 96.8522289,59.4099369 95.7875586,58.7449383 C88.8086341,54.380837 92.5174468,39.085105 100.233508,17.4608153 L101.12807,14.952755 L119.390857,14.952755 L120.071291,17.8898959 C120.60773,20.2032666 124.929083,40.8518177 111.750151,53.2065914 C110.116214,54.7396767 104.393705,59.7473989 99.4128093,59.7473989 L99.4128093,59.7473989 Z" id="Fill-12" fill="#BBBAB9"></path>
                            <path d="M8.17773292,22.5876417 C7.43835787,28.1351504 6.92803241,40.2097238 14.7858508,47.576626 C17.2151194,49.8434238 20.2524512,51.7895565 21.744631,52.0758647 C22.1893005,50.6481409 22.8040786,44.6188709 15.1387513,22.5876417 L8.17773292,22.5876417 Z M22.0841018,59.7473989 L22.0826097,59.7473989 C17.1397643,59.7466354 11.3948724,54.7450211 9.75272862,53.2119359 C-3.4612689,40.8250956 0.889181075,20.1948682 1.42935013,17.8830245 L2.11351454,14.952755 L20.3680952,14.952755 L21.263403,17.4608153 C28.9787182,39.0843415 32.6890231,54.380837 25.7123368,58.7434113 C24.6439361,59.4099369 23.4240792,59.7473989 22.0841018,59.7473989 L22.0841018,59.7473989 Z" id="Fill-13" fill="#BBBAB9"></path>
                            <g id="Rectangle-5" transform="translate(15.750000, 3.382390)">
                                <mask id="mask-8" fill="white">
                                    <use xlink:href="#path-7"></use>
                                </mask>
                                <use id="Mask" fill="#BBBAB9" xlink:href="#path-7"></use>
                                <rect fill="#C5C5C5" mask="url(#mask-8)" x="45.5625" y="-5.63731689" width="46.6875" height="97.5255822"></rect>
                            </g>
                            <path d="M106.423293,3.66518574 C106.423293,5.68766724 86.1669537,7.32687742 61.1774199,7.32687742 C36.1856479,7.32687742 15.9270699,5.68766724 15.9270699,3.66518574 C15.9270699,1.64499472 36.1856479,0.00578453577 61.1774199,0.00578453577 C86.1669537,0.00578453577 106.423293,1.64499472 106.423293,3.66518574" id="Fill-15" fill="#A3A3A3"></path>
                            <path d="M79.0074008,105.114507 C79.0074008,106.539177 70.9503764,107.693571 61.0117134,107.693571 C51.0737964,107.693571 43.016772,106.539177 43.016772,105.114507 C43.016772,103.6906 51.0737964,102.536205 61.0117134,102.536205 C70.9503764,102.536205 79.0074008,103.6906 79.0074008,105.114507" id="Fill-16" fill="#BBBAB9"></path>
                        </g>
                    </g>
                    <g id="tittle" transform="translate(24.187500, 169.683238)">
                        <g id="bg">
                            <polygon id="Fill-1" fill="#0F688E" points="141.955721 3.61118575 141.438648 40.2990388 158.699147 40.2990388 156.14325 31.1274164 153.587769 21.9551123 156.14325 12.7834898 159.216634 3.61118575"></polygon>
                            <polygon id="Fill-2" fill="#0C4C67" points="141.438814 36.6879212 141.438814 40.2986298 147.495115 36.6879212"></polygon>
                            <polygon id="Fill-3" fill="#0F688E" points="0 3.61118575 3.07296879 12.7834898 5.62886545 21.9551123 3.07296879 31.1274164 0.517072128 40.2990388 17.7775705 40.2990388 17.2604984 3.61118575"></polygon>
                            <polygon id="Fill-4" fill="#0C4C67" points="11.7211454 36.6879212 17.7774461 40.2986298 17.7774461 36.6879212"></polygon>
                            <polygon id="Fill-5" fill="#0D7EAE" points="11.7212699 36.6881939 147.495032 36.6881939 147.495032 0.000340825806 11.7212699 0.000340825806"></polygon>
                        </g>
                    </g>
                    <g id="Group-5" transform="translate(74.812500, 106.545289)">
                        <path d="M29.8081055,22.2937321 L0.0944038462,17.4659462 L0.0944038462,1.68145892 L29.8081055,6.5092448 L29.8081055,22.2937321 Z M29.8125,22.3034682 L59.5262016,17.4756824 L59.5262016,1.69119507 L29.8125,6.51898095 L29.8125,22.3034682 Z" id="Combined-Shape" fill="#888784"></path>
                        <polygon id="Rectangle" fill="#8D8D8B" points="29.8081055 21.1662687 0.0944038462 16.3384828 0.0944038462 0.553995546 29.8081055 5.38178143"></polygon>
                        <polygon id="Rectangle" fill="#A1A1A1" transform="translate(44.669351, 10.869868) scale(-1, 1) translate(-44.669351, -10.869868) " points="59.5262016 21.1760049 29.8125 16.348219 29.8125 0.563731689 59.5262016 5.39151757"></polygon>
                    </g>
                </g>
            </g>
        </g>
    </g>
</svg>