<?xml version="1.0" encoding="UTF-8" standalone="no"?>
<svg width="200px" height="196px" viewBox="0 0 200 196" version="1.1" xmlns="http://www.w3.org/2000/svg" xmlns:xlink="http://www.w3.org/1999/xlink">
    <!-- Generator: Sketch 39.1 (31720) - http://www.bohemiancoding.com/sketch -->
    <title>C_award</title>
    <desc>Created with Sketch.</desc>
    <defs>
        <rect id="path-1" x="0" y="0" width="216" height="199.188603"></rect>
        <ellipse id="path-3" cx="99.5625" cy="99.5943017" rx="99.5625" ry="99.5943017"></ellipse>
        <ellipse id="path-5" cx="99.84375" cy="99.8756415" rx="97.03125" ry="97.0622431"></ellipse>
        <path d="M0.176771435,0.538321328 L0.176771435,30.4760006 C0.176771435,59.1097886 20.4360955,82.3245404 45.4278676,82.3245404 C70.4166553,82.3245404 90.672995,59.1097886 90.672995,30.4760006 L90.672995,0.538321328 L0.176771435,0.538321328 Z" id="path-7"></path>
    </defs>
    <g id="mobile" stroke="none" stroke-width="1" fill="none" fill-rule="evenodd">
        <g id="m_winC" transform="translate(-56.000000, -95.000000)">
            <g id="bigcup" transform="translate(52.000000, 81.000000)">
                <g id="C_award">
                    <g id="Group-4">
                        <mask id="mask-2" fill="white">
                            <use xlink:href="#path-1"></use>
                        </mask>
                        <g id="Mask"></g>
                        <g mask="url(#mask-2)">
                            <g transform="translate(4.500000, 14.066992)">
                                <g id="Rectangle-3" stroke-width="1" fill="none">
                                    <mask id="mask-4" fill="white">
                                        <use xlink:href="#path-3"></use>
                                    </mask>
                                    <use id="Mask" fill="#A55410" xlink:href="#path-3"></use>
                                    <mask id="mask-6" fill="white">
                                        <use xlink:href="#path-5"></use>
                                    </mask>
                                    <use id="Mask" fill="#C3702B" xlink:href="#path-5"></use>
                                    <rect fill="#B86B2A" mask="url(#mask-6)" x="-24.75" y="-18.0057495" width="123.75" height="257.707289"></rect>
                                </g>
                                <ellipse id="Oval" fill="#BC9D8A" cx="99.84375" cy="99.8756415" rx="75.09375" ry="75.117736"></ellipse>
                                <g id="Page-1" stroke-width="1" fill="none" transform="translate(6.187500, 5.626797)">
                                    <polygon id="Fill-1" fill="#944C0F" points="92.4527576 0.337926432 90.3243594 4.6519676 85.564959 5.3410814 89.0076784 8.69697119 88.1936015 13.4358085 92.4527576 11.2009086 96.7095539 13.4358085 95.895477 8.69697119 99.3381965 5.3410814 94.5787961 4.6519676"></polygon>
                                    <polygon id="Fill-2" fill="#944C0F" points="60.2209749 6.3955199 63.6967294 9.71836999 68.4042176 8.74133879 66.3159334 13.0718998 68.7015327 17.2467022 63.9350534 16.600068 60.6999825 20.158916 59.8457917 15.4271586 55.4615745 13.4518564 59.6947745 11.1721169"></polygon>
                                    <polygon id="Fill-3" fill="#944C0F" points="32.0067209 23.1112494 36.4074555 25.046432 40.4990768 22.5165348 40.0177096 27.3002117 43.6845952 30.4083038 38.9865455 31.4301746 37.164901 35.8810945 34.7415474 31.7275319 29.9467523 31.3711751 33.1464286 27.7816474"></polygon>
                                    <polygon id="Fill-4" fill="#944C0F" points="11.2100053 48.4718171 16.0048003 48.7833343 18.9850297 45.0073683 20.1695706 49.6683264 24.6788488 51.3321114 20.6131836 53.9021283 20.4220525 58.707045 16.7268512 55.6319927 12.0972312 56.9370609 13.8787618 52.4672612"></polygon>
                                    <polygon id="Fill-5" fill="#944C0F" points="4.95081568 78.0692547 0.337713168 79.4144426 4.21460699 82.258217 4.06830911 87.0654937 7.97351865 84.257119 12.4969547 85.8807844 11.0339759 81.3024256 13.9717317 77.4981399 9.16513848 77.4745401 6.46098734 73.5003359"></polygon>
                                    <polygon id="Fill-6" fill="#944C0F" points="4.58129555 109.368237 0.704401725 112.209651 5.31986388 113.559559 6.8276759 118.126118 9.53654632 114.149554 14.3407799 114.130674 11.4006645 110.326388 12.8612836 105.74567 8.33548792 107.366975 4.43499767 104.5586"></polygon>
                                    <polygon id="Fill-7" fill="#944C0F" points="12.2631141 142.903299 14.9342302 138.907855 13.1550592 134.438055 17.7799599 135.743124 21.4775209 132.670431 21.6710116 137.475348 25.7343173 140.043005 21.225039 141.70679 20.0404981 146.367748 17.0626284 142.591782"></polygon>
                                    <polygon id="Fill-8" fill="#944C0F" points="33.6221326 167.793759 34.7642 163.123361 31.5668834 159.533833 36.3569591 159.177477 38.7826724 155.023914 40.6066766 159.474834 45.3023666 160.496705 41.635481 163.602437 42.1144886 168.386114 38.0252269 165.858576"></polygon>
                                    <polygon id="Fill-9" fill="#944C0F" points="62.2051989 183.875598 61.6813581 179.096641 57.4481582 176.816902 61.8300157 174.8416 62.6865661 170.109842 65.921637 173.66869 70.6857567 173.022056 68.3001574 177.194498 70.3884416 181.527419 65.683313 180.550388"></polygon>
                                    <polygon id="Fill-10" fill="#944C0F" points="91.1212109 180.846566 87.6784914 184.202455 92.4378918 184.898649 94.5615707 189.20797 96.6946882 184.893929 101.451729 184.202455 98.0066498 180.846566 98.8207267 176.112448 94.56629 178.347348 90.307134 176.107728"></polygon>
                                    <polygon id="Fill-11" fill="#944C0F" points="126.793353 183.152029 123.322318 179.829179 118.61247 180.80385 120.700755 176.473289 118.315155 172.296127 123.081635 172.945121 126.316705 169.388633 127.168537 174.11803 131.555113 176.093332 127.321913 178.370712"></polygon>
                                    <polygon id="Fill-12" fill="#944C0F" points="155.007843 166.436299 150.611828 164.501117 146.517847 167.028654 146.999214 162.244977 143.329969 159.134525 148.030378 158.115014 149.852023 153.666454 152.273017 157.820017 157.067812 158.174014 153.870495 161.763541"></polygon>
                                    <polygon id="Fill-13" fill="#944C0F" points="175.806683 141.078092 171.014247 140.761854 168.031658 144.53782 166.847117 139.876862 162.335479 138.210717 166.403504 135.64306 166.594635 130.840504 170.289837 133.915556 174.917097 132.610488 173.137926 137.075568"></polygon>
                                    <polygon id="Fill-14" fill="#944C0F" points="179.045765 105.290194 174.519969 103.664168 175.980588 108.247247 173.040473 112.049173 177.847066 112.070413 180.555937 116.044617 182.068468 111.478058 186.679211 110.13287 182.802317 107.284376 182.946255 102.479459"></polygon>
                                    <polygon id="Fill-15" fill="#944C0F" points="177.484861 75.3972868 172.675908 75.4161666 175.616023 79.2204524 174.153045 83.8011711 178.67884 82.1751458 182.58169 84.9858805 182.440112 80.1738838 186.312286 77.3371893 181.696824 75.9849215 180.191372 71.4183626"></polygon>
                                    <polygon id="Fill-16" fill="#944C0F" points="174.751214 46.6418896 172.082458 50.6349737 173.861629 55.1071334 169.234368 53.8020652 165.539167 56.8794775 165.345676 52.0745607 161.280011 49.5045439 165.794009 47.8407588 166.97619 43.1774408 169.95406 46.9534068"></polygon>
                                    <polygon id="Fill-17" fill="#944C0F" points="153.392432 21.7537897 152.252724 26.4218276 155.45004 30.0113553 150.657605 30.3677121 148.234252 34.5259947 146.410247 30.0727148 141.712198 29.050844 145.383802 25.9427519 144.900076 21.156715 148.989337 23.6842523"></polygon>
                                    <polygon id="Fill-18" fill="#944C0F" points="124.811725 5.6743104 125.335566 10.4485474 129.568766 12.7282869 125.184549 14.7035891 124.332717 19.4400665 121.095287 15.8788585 116.328808 16.5254927 118.719126 12.3506903 116.626123 8.01540932 121.331251 8.99480051"></polygon>
                                </g>
                            </g>
                        </g>
                    </g>
                    <g id="cup" transform="translate(43.312500, 56.267967)">
                        <g id="Group-17" transform="translate(0.000000, 0.351432)">
                            <polygon id="Fill-5" fill="#513A0A" points="38.82509 119.877202 83.5300483 119.877202 83.5300483 104.96666 38.82509 104.96666"></polygon>
                            <path d="M83.5302721,104.965974 C83.5302721,107.149287 73.5222228,108.917275 61.178166,108.917275 C48.8333632,108.917275 38.8253138,107.149287 38.8253138,104.965974 C38.8253138,102.783423 48.8333632,101.017721 61.178166,101.017721 C73.5222228,101.017721 83.5302721,102.783423 83.5302721,104.965974" id="Fill-8" fill="#513A0A"></path>
                            <path d="M83.5302721,119.876821 C83.5302721,122.060134 73.5222228,123.828122 61.178166,123.828122 C48.8333632,123.828122 38.8253138,122.060134 38.8253138,119.876821 C38.8253138,117.693508 48.8333632,115.92552 61.178166,115.92552 C73.5222228,115.92552 83.5302721,117.693508 83.5302721,119.876821" id="Fill-9" fill="#E1AD43"></path>
                            <path d="M69.1414069,86.0945292 C69.1414069,89.6914707 65.5042189,92.6033168 61.0172344,92.6033168 C56.5280117,92.6033168 52.8900776,89.6914707 52.8900776,86.0945292 C52.8900776,82.499874 56.5280117,79.5857417 61.0172344,79.5857417 C65.5042189,79.5857417 69.1414069,82.499874 69.1414069,86.0945292" id="Fill-10" fill="#A66025"></path>
                            <polygon id="Fill-11" fill="#A66025" points="57.9928846 103.547697 64.0444194 103.547697 64.0444194 89.6750864 57.9928846 89.6750864"></polygon>
                            <path d="M106.357414,22.5454894 C98.6905943,44.5409389 99.3076106,50.5566712 99.7522802,51.9802065 C101.363088,51.6784292 104.58545,49.4783508 106.708822,47.4893641 C114.548734,40.1522131 114.050346,28.0902661 113.31694,22.5454894 L106.357414,22.5454894 Z M99.4128093,59.6359002 C98.0720858,59.6359002 96.8522289,59.2990679 95.7875586,58.6353103 C88.8086341,54.2793532 92.5174468,39.0121655 100.233508,17.4282304 L101.12807,14.9248506 L119.390857,14.9248506 L120.071291,17.8565103 C120.60773,20.1655639 124.929083,40.7755813 111.750151,53.107299 C110.116214,54.6375232 104.393705,59.6359002 99.4128093,59.6359002 L99.4128093,59.6359002 Z" id="Fill-12" fill="#A66025"></path>
                            <path d="M8.17773292,22.5454894 C7.43835787,28.0826455 6.92803241,40.1346856 14.7858508,47.4878399 C17.2151194,49.7504076 20.2524512,51.6929084 21.744631,51.9786824 C22.1893005,50.5536229 22.8040786,44.5356045 15.1387513,22.5454894 L8.17773292,22.5454894 Z M22.0841018,59.6359002 L22.0826097,59.6359002 C17.1397643,59.6351381 11.3948724,54.6428577 9.75272862,53.1126334 C-3.4612689,40.7489091 0.889181075,20.1571812 1.42935013,17.8496518 L2.11351454,14.9248506 L20.3680952,14.9248506 L21.263403,17.4282304 C28.9787182,39.0114035 32.6890231,54.2793532 25.7123368,58.6337862 C24.6439361,59.2990679 23.4240792,59.6359002 22.0841018,59.6359002 L22.0841018,59.6359002 Z" id="Fill-13" fill="#A66025"></path>
                            <g id="Rectangle-5" transform="translate(15.750000, 3.376078)">
                                <mask id="mask-8" fill="white">
                                    <use xlink:href="#path-7"></use>
                                </mask>
                                <use id="Mask" fill="#A66025" xlink:href="#path-7"></use>
                                <rect fill="#B16525" mask="url(#mask-8)" x="45" y="-10.8604253" width="52.875" height="104.095739"></rect>
                            </g>
                            <path d="M106.423293,3.65834589 C106.423293,5.67705309 86.1669537,7.31320423 61.1774199,7.31320423 C36.1856479,7.31320423 15.9270699,5.67705309 15.9270699,3.65834589 C15.9270699,1.64192488 36.1856479,0.00577374085 61.1774199,0.00577374085 C86.1669537,0.00577374085 106.423293,1.64192488 106.423293,3.65834589" id="Fill-15" fill="#864813"></path>
                            <path d="M79.0074008,104.918345 C79.0074008,106.340356 70.9503764,107.492597 61.0117134,107.492597 C51.0737964,107.492597 43.016772,106.340356 43.016772,104.918345 C43.016772,103.497096 51.0737964,102.344856 61.0117134,102.344856 C70.9503764,102.344856 79.0074008,103.497096 79.0074008,104.918345" id="Fill-16" fill="#A66025"></path>
                        </g>
                    </g>
                    <g id="tittle" transform="translate(24.187500, 169.366581)">
                        <g id="bg">
                            <polygon id="Fill-1" fill="#442D7D" points="141.955721 3.60444666 141.438648 40.223834 158.699147 40.223834 156.14325 31.0693274 153.587769 21.9141403 156.14325 12.7596337 159.216634 3.60444666"></polygon>
                            <polygon id="Fill-2" fill="#2F1E5A" points="141.438814 36.6194554 141.438814 40.2234258 147.495115 36.6194554"></polygon>
                            <polygon id="Fill-3" fill="#442D7D" points="0 3.60444666 3.07296879 12.7596337 5.62886545 21.9141403 3.07296879 31.0693274 0.517072128 40.223834 17.7775705 40.223834 17.2604984 3.60444666"></polygon>
                            <polygon id="Fill-4" fill="#2F1E5A" points="11.7211454 36.6194554 17.7774461 40.2234258 17.7774461 36.6194554"></polygon>
                            <polygon id="Fill-5" fill="#58497D" points="11.7212699 36.6197275 147.495032 36.6197275 147.495032 0.000340189767 11.7212699 0.000340189767"></polygon>
                        </g>
                    </g>
                    <g id="Group-5" transform="translate(74.250000, 106.346458)">
                        <path d="M29.8081055,22.2521282 L0.0944038462,17.4333518 L0.0944038462,1.67832104 L29.8081055,6.49709745 L29.8081055,22.2521282 Z M29.8125,22.2618462 L59.5262016,17.4430698 L59.5262016,1.68803901 L29.8125,6.50681543 L29.8125,22.2618462 Z" id="Combined-Shape" fill="#944C10"></path>
                        <polygon id="Rectangle" fill="#C7771B" points="29.8081055 21.1267689 0.0944038462 16.3079925 0.0944038462 0.552961696 29.8081055 5.37173811"></polygon>
                        <polygon id="Rectangle" fill="#E38E32" transform="translate(44.669351, 10.849583) scale(-1, 1) translate(-44.669351, -10.849583) " points="59.5262016 21.1364869 29.8125 16.3177104 29.8125 0.56267967 59.5262016 5.38145609"></polygon>
                    </g>
                </g>
            </g>
        </g>
    </g>
</svg>