<?xml version="1.0" encoding="UTF-8" standalone="no"?>
<svg width="22px" height="23px" viewBox="0 0 22 23" version="1.1" xmlns="http://www.w3.org/2000/svg" xmlns:xlink="http://www.w3.org/1999/xlink">
    <!-- Generator: Sketch 39.1 (31720) - http://www.bohemiancoding.com/sketch -->
    <title>Group 17</title>
    <desc>Created with Sketch.</desc>
    <defs></defs>
    <g id="mobile" stroke="none" stroke-width="1" fill="none" fill-rule="evenodd">
        <g id="m_game" transform="translate(-70.000000, -151.000000)">
            <g id="cup" transform="translate(0.000000, 141.000000)">
                <g id="Group-17" transform="translate(70.000000, 10.000000)">
                    <path d="M18.3180338,21.2095793 C18.3180338,22.1924056 15.1569777,22.9889454 11.2577844,22.9889454 C7.35818654,22.9889454 4.19766994,22.1924056 4.19766994,21.2095793 C4.19766994,20.2267531 7.35818654,19.430483 11.2577844,19.430483 C15.1569777,19.430483 18.3180338,20.2267531 18.3180338,21.2095793" id="Fill-3" fill="#000000" opacity="0.14896222"></path>
                    <polygon id="Fill-5" fill="#E1AD43" points="7.01831704 21.219386 15.0995236 21.219386 15.0995236 18.5800807 7.01831704 18.5800807"></polygon>
                    <path d="M2.87904372,0.692885299 L2.87904372,5.99213456 C2.87904372,11.0605829 6.54127244,15.1698111 11.0589743,15.1698111 C15.5761366,15.1698111 19.2378259,11.0605829 19.2378259,5.99213456 L19.2378259,0.692885299 L2.87904372,0.692885299 Z" id="Fill-7" fill="#F1BC40"></path>
                    <path d="M15.0995641,18.5799593 C15.0995641,18.9664261 13.2904333,19.2793765 11.0590282,19.2793765 C8.82748824,19.2793765 7.01835751,18.9664261 7.01835751,18.5799593 C7.01835751,18.1936273 8.82748824,17.8810816 11.0590282,17.8810816 C13.2904333,17.8810816 15.0995641,18.1936273 15.0995641,18.5799593" id="Fill-8" fill="#E1AD43"></path>
                    <path d="M15.0995641,21.2193186 C15.0995641,21.6057854 13.2904333,21.9187358 11.0590282,21.9187358 C8.82748824,21.9187358 7.01835751,21.6057854 7.01835751,21.2193186 C7.01835751,20.8328518 8.82748824,20.5199013 11.0590282,20.5199013 C13.2904333,20.5199013 15.0995641,20.8328518 15.0995641,21.2193186" id="Fill-9" fill="#E1AD43"></path>
                    <path d="M12.4985239,15.239537 C12.4985239,15.8762293 11.8410383,16.3916533 11.029937,16.3916533 C10.2184311,16.3916533 9.56081063,15.8762293 9.56081063,15.239537 C9.56081063,14.6032494 10.2184311,14.0874207 11.029937,14.0874207 C11.8410383,14.0874207 12.4985239,14.6032494 12.4985239,15.239537" id="Fill-10" fill="#F1BC40"></path>
                    <polygon id="Fill-11" fill="#F1BC40" points="10.4832326 18.3289109 11.5771539 18.3289109 11.5771539 15.8733291 10.4832326 15.8733291"></polygon>
                    <path d="M19.2259709,3.9907625 C17.8400586,7.88416282 17.9515951,8.94900369 18.031977,9.20098276 C18.3231588,9.14756535 18.9056574,8.7581309 19.2894941,8.40606164 C20.706696,7.10731729 20.6166036,4.97223985 20.4840275,3.9907625 L19.2259709,3.9907625 Z M17.9706116,10.5561121 C17.7282523,10.5561121 17.5077418,10.4964897 17.3152839,10.3789984 C16.0537207,9.60795323 16.7241537,6.90551821 18.1189674,3.08495981 L18.2806751,2.64183816 L21.5819948,2.64183816 L21.7049952,3.16076935 C21.8019659,3.56949343 22.5831263,7.2176593 20.2008029,9.40048867 C19.9054402,9.67135267 18.8709961,10.5561121 17.9706116,10.5561121 L17.9706116,10.5561121 Z" id="Fill-12" fill="#F1BC40"></path>
                    <path d="M1.47826888,3.9907625 C1.34461385,4.97089092 1.25236356,7.10421477 2.67280228,8.40579186 C3.11193525,8.8062875 3.66098633,9.15012831 3.93072403,9.20071297 C4.01110586,8.94846412 4.12223779,7.88321857 2.73659524,3.9907625 L1.47826888,3.9907625 Z M3.99208936,10.5561121 L3.99181962,10.5561121 C3.09831349,10.5559773 2.05982336,9.67229692 1.76297702,9.40143291 C-0.625685158,7.21293807 0.160735099,3.56800961 0.258380146,3.15955532 L0.38205488,2.64183816 L3.681891,2.64183816 L3.84373362,3.08495981 C5.23841239,6.90538332 5.90911517,9.60795323 4.64795657,10.3787286 C4.45482438,10.4964897 4.23431381,10.5561121 3.99208936,10.5561121 L3.99208936,10.5561121 Z" id="Fill-13" fill="#F1BC40"></path>
                    <path d="M15.6934995,7.93110538 C15.6934995,10.507416 13.6057297,12.5959555 11.0300044,12.5959555 C8.4541443,12.5959555 6.36637452,10.507416 6.36637452,7.93110538 C6.36637452,5.35533436 8.4541443,3.26679481 11.0300044,3.26679481 C13.6057297,3.26679481 15.6934995,5.35533436 15.6934995,7.93110538" id="Fill-14" fill="#F1BC40"></path>
                    <path d="M19.2378798,0.647561442 C19.2378798,1.0048915 15.5761906,1.29450555 11.0588933,1.29450555 C6.54119152,1.29450555 2.87909767,1.0048915 2.87909767,0.647561442 C2.87909767,0.290636062 6.54119152,0.00102200614 11.0588933,0.00102200614 C15.5761906,0.00102200614 19.2378798,0.290636062 19.2378798,0.647561442" id="Fill-15" fill="#E1AD43"></path>
                    <path d="M14.2819756,18.5715285 C14.2819756,18.8232378 12.8255269,19.0271951 11.028939,19.0271951 C9.23248591,19.0271951 7.77603721,18.8232378 7.77603721,18.5715285 C7.77603721,18.3199541 9.23248591,18.1159967 11.028939,18.1159967 C12.8255269,18.1159967 14.2819756,18.3199541 14.2819756,18.5715285" id="Fill-16" fill="#F1BC40"></path>
                </g>
            </g>
        </g>
    </g>
</svg>