<?xml version="1.0" encoding="UTF-8" standalone="no"?>
<svg width="200px" height="197px" viewBox="0 0 200 197" version="1.1" xmlns="http://www.w3.org/2000/svg" xmlns:xlink="http://www.w3.org/1999/xlink">
    <!-- Generator: Sketch 39.1 (31720) - http://www.bohemiancoding.com/sketch -->
    <title>D_award</title>
    <desc>Created with Sketch.</desc>
    <defs>
        <rect id="path-1" x="0" y="0" width="216" height="199.727331"></rect>
        <ellipse id="path-3" cx="99.5625" cy="99.8636656" rx="99.5625" ry="99.8636656"></ellipse>
        <ellipse id="path-5" cx="99.84375" cy="100.145766" rx="97.03125" ry="97.3247588"></ellipse>
        <polygon id="path-7" points="5.33049738 0 5.33049738 102.597873 50.6920965 81.5664903 96.0533096 102.597873 96.0533096 0"></polygon>
    </defs>
    <g id="mobile" stroke="none" stroke-width="1" fill="none" fill-rule="evenodd">
        <g id="m_winD" transform="translate(-56.000000, -95.000000)">
            <g id="bigcup" transform="translate(52.000000, 81.000000)">
                <g id="D_award">
                    <g id="Group-4">
                        <mask id="mask-2" fill="white">
                            <use xlink:href="#path-1"></use>
                        </mask>
                        <g id="Mask"></g>
                        <g mask="url(#mask-2)">
                            <g transform="translate(4.500000, 14.105038)">
                                <g id="Rectangle-3" stroke-width="1" fill="none">
                                    <mask id="mask-4" fill="white">
                                        <use xlink:href="#path-3"></use>
                                    </mask>
                                    <use id="Mask" fill="#647A4F" xlink:href="#path-3"></use>
                                    <mask id="mask-6" fill="white">
                                        <use xlink:href="#path-5"></use>
                                    </mask>
                                    <use id="Mask" fill="#A0BB86" xlink:href="#path-5"></use>
                                    <rect fill="#99B082" mask="url(#mask-6)" x="-24.75" y="-18.054448" width="123.75" height="258.404287"></rect>
                                </g>
                                <ellipse id="Oval" fill="#727E61" cx="99.84375" cy="100.145766" rx="75.09375" ry="75.3209003"></ellipse>
                                <g id="Page-1" stroke-width="1" fill="none" transform="translate(6.187500, 5.642015)">
                                    <polygon id="Fill-1" fill="#707560" points="92.4527576 0.338840392 90.3243594 4.66454937 85.564959 5.35552695 89.0076784 8.72049312 88.1936015 13.4721472 92.4527576 11.2312028 96.7095539 13.4721472 95.895477 8.72049312 99.3381965 5.35552695 94.5787961 4.66454937"></polygon>
                                    <polygon id="Fill-2" fill="#707560" points="60.2209749 6.4128173 63.6967294 9.74465441 68.4042176 8.76498072 66.3159334 13.1072542 68.7015327 17.2933479 63.9350534 16.6449648 60.6999825 20.2134381 59.8457917 15.4688831 55.4615745 13.4882384 59.6947745 11.2023331"></polygon>
                                    <polygon id="Fill-3" fill="#707560" points="32.0067209 23.1737564 36.4074555 25.1141729 40.4990768 22.5774333 40.0177096 27.3740482 43.6845952 30.4905464 38.9865455 31.515181 37.164901 35.9781389 34.7415474 31.8133425 29.9467523 31.4560219 33.1464286 27.856786"></polygon>
                                    <polygon id="Fill-4" fill="#707560" points="11.2100053 48.6029146 16.0048003 48.9152743 18.9850297 45.1290958 20.1695706 49.8026599 24.6788488 51.4709448 20.6131836 54.0479126 20.4220525 58.8658248 16.7268512 55.7824556 12.0972312 57.0910536 13.8787618 52.6091648"></polygon>
                                    <polygon id="Fill-5" fill="#707560" points="4.95081568 78.2804018 0.337713168 79.6292279 4.21460699 82.4806936 4.06830911 87.3009721 7.97351865 84.4850018 12.4969547 86.1130586 11.0339759 81.5223171 13.9717317 77.7077423 9.16513848 77.6840786 6.46098734 73.6991257"></polygon>
                                    <polygon id="Fill-6" fill="#707560" points="4.58129555 109.664036 0.704401725 112.513135 5.31986388 113.866694 6.8276759 118.445603 9.53654632 114.458284 14.3407799 114.439353 11.4006645 110.624778 12.8612836 106.031671 8.33548792 107.657361 4.43499767 104.841391"></polygon>
                                    <polygon id="Fill-7" fill="#707560" points="12.2631141 143.289797 14.9342302 139.283547 13.1550592 134.801658 17.7799599 136.110256 21.4775209 133.029253 21.6710116 137.847165 25.7343173 140.421767 21.225039 142.090052 20.0404981 146.763616 17.0626284 142.977437"></polygon>
                                    <polygon id="Fill-8" fill="#707560" points="33.6221326 168.247576 34.7642 163.564546 31.5668834 159.965311 36.3569591 159.60799 38.7826724 155.443194 40.6066766 159.906151 45.3023666 160.930786 41.635481 164.044918 42.1144886 168.841533 38.0252269 166.30716"></polygon>
                                    <polygon id="Fill-9" fill="#707560" points="62.2051989 184.37291 61.6813581 179.581028 57.4481582 177.295123 61.8300157 175.314478 62.6865661 170.569923 65.921637 174.138397 70.6857567 173.490014 68.3001574 177.673741 70.3884416 182.018381 65.683313 181.038707"></polygon>
                                    <polygon id="Fill-10" fill="#707560" points="91.1212109 181.335685 87.6784914 184.700652 92.4378918 185.398728 94.5615707 189.719704 96.6946882 185.393995 101.451729 184.700652 98.0066498 181.335685 98.8207267 176.588764 94.56629 178.829708 90.307134 176.584031"></polygon>
                                    <polygon id="Fill-11" fill="#707560" points="126.793353 183.647384 123.322318 180.315547 118.61247 181.292854 120.700755 176.950581 118.315155 172.762121 123.081635 173.41287 126.316705 169.846763 127.168537 174.588952 131.555113 176.569596 127.321913 178.853135"></polygon>
                                    <polygon id="Fill-12" fill="#707560" points="155.007843 166.886445 150.611828 164.946028 146.517847 167.480402 146.999214 162.683787 143.329969 159.564922 148.030378 158.542654 149.852023 154.082062 152.273017 158.246859 157.067812 158.601813 153.870495 162.201049"></polygon>
                                    <polygon id="Fill-13" fill="#707560" points="175.806683 141.459653 171.014247 141.142561 168.031658 144.928739 166.847117 140.255175 162.335479 138.584524 166.403504 136.009922 166.594635 131.194376 170.289837 134.277746 174.917097 132.969148 173.137926 137.446304"></polygon>
                                    <polygon id="Fill-14" fill="#707560" points="179.045765 105.574963 174.519969 103.94454 175.980588 108.540014 173.040473 112.352222 177.847066 112.37352 180.555937 116.358473 182.068468 111.779563 186.679211 110.430737 182.802317 107.574538 182.946255 102.756626"></polygon>
                                    <polygon id="Fill-15" fill="#707560" points="177.484861 75.6012072 172.675908 75.6201381 175.616023 79.4347129 174.153045 84.0278208 178.67884 82.3973976 182.58169 85.2157343 182.440112 80.390723 186.312286 77.5463564 181.696824 76.1904312 180.191372 71.6115216"></polygon>
                                    <polygon id="Fill-16" fill="#707560" points="174.751214 46.7680378 172.082458 50.7719216 173.861629 55.2561768 169.234368 53.9475789 165.539167 57.0333144 165.345676 52.2154022 161.280011 49.6384344 165.794009 47.9701495 166.97619 43.294219 169.95406 47.0803976"></polygon>
                                    <polygon id="Fill-17" fill="#707560" points="153.392432 21.8126252 152.252724 26.4932884 155.45004 30.0925244 150.657605 30.449845 148.234252 34.6193741 146.410247 30.1540498 141.712198 29.1294152 145.383802 26.012917 144.900076 21.2139357 148.989337 23.748309"></polygon>
                                    <polygon id="Fill-18" fill="#707560" points="124.811725 5.6896572 125.335566 10.4768067 129.568766 12.762712 125.184549 14.7433566 124.332717 19.4926443 121.095287 15.9218047 116.328808 16.5701878 118.719126 12.3840941 116.626123 8.03708789 121.331251 9.01912795"></polygon>
                                </g>
                            </g>
                        </g>
                    </g>
                    <g id="cup" transform="translate(43.312500, 55.291747)">
                        <g id="Rectangle-5" transform="translate(10.125000, 0.000000)">
                            <polygon id="Fill-1" fill="#FFFFFF" points="0.215877013 0.215937916 0.215877013 111.013324 50.8930489 88.3011354 101.569789 111.013324 101.569789 0.215937916"></polygon>
                            <mask id="mask-8" fill="white">
                                <use xlink:href="#path-7"></use>
                            </mask>
                            <use id="Combined-Shape" fill="#9EAF43" xlink:href="#path-7"></use>
                            <rect id="Rectangle-7" fill="#ABBF3C" mask="url(#mask-8)" x="50.0625" y="-12.9766345" width="72" height="141.050375"></rect>
                        </g>
                        <rect id="Rectangle-6" fill="#FFFFFF" x="5.625" y="0" width="110.25" height="3.9494105"></rect>
                    </g>
                    <g id="tittle" transform="translate(24.187500, 169.824652)">
                        <g id="bg">
                            <polygon id="Fill-1" fill="#0D8346" points="141.955721 3.61419529 141.438648 40.3326239 158.699147 40.3326239 156.14325 31.1533578 153.587769 21.9734096 156.14325 12.7941435 159.216634 3.61419529"></polygon>
                            <polygon id="Fill-2" fill="#0A4125" points="141.438814 36.7184968 141.438814 40.3322145 147.495115 36.7184968"></polygon>
                            <polygon id="Fill-3" fill="#0D8346" points="0 3.61419529 3.07296879 12.7941435 5.62886545 21.9734096 3.07296879 31.1533578 0.517072128 40.3326239 17.7775705 40.3326239 17.2604984 3.61419529"></polygon>
                            <polygon id="Fill-4" fill="#0A4125" points="11.7211454 36.7184968 17.7774461 40.3322145 17.7774461 36.7184968"></polygon>
                            <polygon id="Fill-5" fill="#0D964F" points="11.7212699 36.7187697 147.495032 36.7187697 147.495032 0.000341109849 11.7212699 0.000341109849"></polygon>
                        </g>
                    </g>
                    <g id="Group-5" transform="translate(73.687500, 110.019293)">
                        <path d="M29.8081055,22.3123116 L0.0944038462,17.4805023 L0.0944038462,1.68286024 L29.8081055,6.51466958 L29.8081055,22.3123116 Z M29.8125,22.3220559 L59.5262016,17.4902465 L59.5262016,1.6926045 L29.8125,6.52441384 L29.8125,22.3220559 Z" id="Combined-Shape" fill="#768232"></path>
                        <polygon id="Rectangle" fill="#BBCD58" points="29.8081055 21.1839086 0.0944038462 16.3520993 0.0944038462 0.554457243 29.8081055 5.38626658"></polygon>
                        <polygon id="Rectangle" fill="#E6ECC5" transform="translate(44.669351, 10.878927) scale(-1, 1) translate(-44.669351, -10.878927) " points="59.5262016 21.1936529 29.8125 16.3618435 29.8125 0.564201501 59.5262016 5.39601084"></polygon>
                    </g>
                </g>
            </g>
        </g>
    </g>
</svg>