<?xml version="1.0" encoding="UTF-8" standalone="no"?>
<svg width="203px" height="68px" viewBox="0 0 203 68" version="1.1" xmlns="http://www.w3.org/2000/svg" xmlns:xlink="http://www.w3.org/1999/xlink">
    <!-- Generator: Sketch 39.1 (31720) - http://www.bohemiancoding.com/sketch -->
    <title>morgan_good</title>
    <desc>Created with Sketch.</desc>
    <defs>
        <polygon id="path-1" points="62.2028909 0.423055272 0.231107692 0.423055272 0.231107692 67.8214514 62.2028909 67.8214514 62.2028909 0.423055272"></polygon>
        <polygon id="path-3" points="0 0.452982164 0 32.60708 31.7095464 32.60708 31.7095464 0.452982164 0 0.452982164"></polygon>
        <polygon id="path-5" points="0 67.8728631 202.967823 67.8728631 202.967823 0.474277211 0 0.474277211"></polygon>
    </defs>
    <g id="mobile" stroke="none" stroke-width="1" fill="none" fill-rule="evenodd">
        <g id="m_index" transform="translate(-59.000000, -81.000000)">
            <g id="morgan_good" transform="translate(59.000000, 81.000000)">
                <path d="M71.4903538,14.9348945 L78.5390438,19.975987 C79.0160228,19.2769024 79.5256522,18.6024802 80.0674587,17.9555661 L73.6126266,12.193098 C72.8597758,13.069088 72.1514051,13.9839687 71.4903538,14.9348945 L71.4903538,14.9348945 Z" id="Fill-1" fill="#939597"></path>
                <path d="M77.7564765,21.1903738 L70.4281291,16.5614282 C69.8976793,17.4269841 69.4008261,18.3157796 68.9484531,19.2311346 L76.5408424,23.4493561 C76.9085138,22.6739129 77.3159333,21.9207607 77.7564765,21.1903738" id="Fill-3" fill="#939597"></path>
                <g id="Group-7" transform="translate(70.505828, 0.051222)">
                    <mask id="mask-2" fill="white">
                        <use xlink:href="#path-1"></use>
                    </mask>
                    <g id="Clip-6"></g>
                    <path d="M28.5801287,0.422865561 C19.1366065,0.422865561 10.6077674,4.32806412 4.50167879,10.6117629 L10.6049282,16.7289903 C15.2824457,11.7860733 21.8957977,8.70279711 29.2293501,8.70279711 C43.407173,8.70279711 54.9005692,20.2225163 54.9005692,34.4323358 C54.9005692,48.6431039 43.407173,60.1623488 29.2293501,60.1623488 C20.9759096,60.1623488 13.6385716,56.2528817 8.94212634,50.1864019 C9.41673939,49.5342707 10.753511,48.3613832 11.3715016,47.5451521 L1.17986061,48.5060378 L0.231107692,58.0380611 L2.92405175,55.8995452 C9.09118228,63.1915573 18.2952685,67.8214514 28.5801287,67.8214514 C47.1487138,67.8219257 62.2028909,52.7337448 62.2028909,34.1226328 C62.2028909,15.5105722 47.1487138,0.422865561 28.5801287,0.422865561" id="Fill-5" fill="#939597" mask="url(#mask-2)"></path>
                </g>
                <path d="M82.4118958,10.7803684 L81.8965881,10.0817581 L83.703714,8.74192498 L84.9231336,10.3943068 C84.8725019,10.6935757 84.7281779,11.0317354 84.4896883,11.4078372 C84.2521452,11.7844133 83.9620776,12.0993334 83.6204319,12.3525974 C83.1855671,12.6746316 82.7393457,12.8643425 82.282714,12.9222043 C81.8251359,12.9791176 81.3902711,12.8989647 80.9785928,12.6807972 C80.5664413,12.463104 80.2134389,12.1548238 79.9195858,11.7573795 C79.6015998,11.3253129 79.40901,10.8742753 79.3427629,10.4042666 C79.2765159,9.93473216 79.3522268,9.48084887 79.5694226,9.04261673 C79.7340939,8.70730274 80.0146977,8.39285695 80.4112338,8.09880508 C80.9270147,7.71653765 81.4091988,7.52587821 81.8592058,7.52730104 C82.3077932,7.5282496 82.7147396,7.68808102 83.0786254,8.00726958 L82.3607909,8.78034143 C82.1516394,8.62003574 81.9226138,8.54035716 81.6741872,8.54272855 C81.4262338,8.54462566 81.1811196,8.63521261 80.9393177,8.81401511 C80.573066,9.08625023 80.3672268,9.41777 80.3218002,9.80999726 C80.2763737,10.2022245 80.4225904,10.6267026 80.759031,11.0829573 C81.1219704,11.5747828 81.5038375,11.862669 81.9051056,11.9466161 C82.3049541,12.0300889 82.6830357,11.9399762 83.0379308,11.6772266 C83.2134855,11.5468004 83.3644343,11.3822262 83.4907769,11.1825555 C83.6161732,10.9824105 83.70608,10.7870083 83.7604972,10.5944518 L83.3724786,10.0684783 L82.4118958,10.7803684 Z" id="Fill-8" fill="#FEFEFE"></path>
                <path d="M85.8786058,8.59888297 C86.0446967,8.92992847 86.2505359,9.14335321 86.4961233,9.24058004 C86.7421839,9.33733259 86.9802002,9.32737277 87.2111186,9.21070057 C87.4420371,9.09450266 87.591093,8.90858599 87.6597061,8.65389913 C87.7273727,8.39921227 87.6772142,8.10421184 87.5097037,7.76937213 C87.3455056,7.44259513 87.141086,7.23011894 86.896445,7.13289211 C86.6522772,7.03613956 86.4142608,7.04562511 86.1828692,7.1622973 C85.952424,7.27849522 85.8024217,7.46393761 85.7333354,7.71957302 C85.6642492,7.97473416 85.7125149,8.26783748 85.8786058,8.59888297 M84.9478343,9.00865848 C84.8011443,8.71555517 84.7311117,8.39494377 84.7382096,8.04777285 C84.7448343,7.69965338 84.8451513,7.3871047 85.0386874,7.10870398 C85.2317503,6.83030325 85.4920068,6.60929007 85.8194566,6.44376733 C86.3248273,6.18908046 86.8216804,6.14402413 87.3090697,6.3090726 C87.7969322,6.47412107 88.1664963,6.80706367 88.4172888,7.30742613 C88.6709205,7.81253136 88.7177667,8.31289381 88.5583005,8.80946205 C88.3983611,9.30650457 88.070438,9.67928646 87.5750044,9.92875627 C87.2688483,10.0833706 86.9418716,10.1616264 86.5940744,10.1635235 C86.2472235,10.1654206 85.9334963,10.0691423 85.6547853,9.87468867 C85.3760744,9.68070929 85.140424,9.39234875 84.9478343,9.00865848" id="Fill-10" fill="#FEFEFE"></path>
                <path d="M89.9934016,6.75318578 C90.1083876,7.10557375 90.2801569,7.3479294 90.5082361,7.48025274 C90.7367886,7.61257608 90.9738585,7.63866133 91.2199191,7.5580342 C91.4650333,7.47740708 91.6410613,7.3166271 91.7461103,7.07522 C91.8516324,6.83333863 91.8464273,6.53406971 91.7300217,6.17741324 C91.6164552,5.82976805 91.4461056,5.5893095 91.2184995,5.45698616 C90.9913667,5.32418854 90.7547699,5.2981033 90.5091825,5.37825614 C90.2635951,5.45888327 90.0880403,5.61966324 89.9810986,5.8620189 C89.8746301,6.10390028 89.8788888,6.40127209 89.9934016,6.75318578 M89.0129448,7.01972957 C88.910735,6.70718089 88.8894413,6.37992961 88.9485904,6.03750147 C89.0072664,5.69507332 89.1525368,5.4000729 89.385348,5.1543973 C89.617686,4.90777315 89.9077536,4.72754781 90.256024,4.61372128 C90.7945182,4.43729016 91.2923177,4.4676439 91.7498958,4.70383395 C92.2074739,4.940024 92.5230939,5.32418854 92.6967559,5.85680185 C92.8718375,6.39415793 92.8434459,6.8964175 92.6111079,7.36358055 C92.3792431,7.83026932 91.999742,8.14993216 91.4726044,8.32304335 C91.1470473,8.42975572 90.8115531,8.45821235 90.4680147,8.40746469 C90.1235298,8.35719131 89.8287303,8.21538242 89.5821965,7.98156375 C89.3351895,7.74774509 89.1454389,7.42713369 89.0129448,7.01972957" id="Fill-12" fill="#FEFEFE"></path>
                <path d="M94.3175382,5.46604486 C94.3833121,5.85922066 94.4859951,6.13477572 94.6241676,6.29223576 C94.8243284,6.5203631 95.0661303,6.61000149 95.3486268,6.56257377 C95.5733937,6.52415731 95.7484753,6.39705102 95.8743448,6.17983206 C95.999741,5.96213882 96.0300254,5.66381845 95.9666175,5.28439668 C95.8956385,4.86134141 95.7678762,4.56966093 95.583804,4.40888095 C95.4002049,4.24904953 95.1886874,4.18881633 94.9497247,4.22960417 C94.7183331,4.26802062 94.5399392,4.39275553 94.4145429,4.60333461 C94.2886734,4.81296514 94.2564963,5.1008514 94.3175382,5.46604486 L94.3175382,5.46604486 Z M97.2461326,6.94863542 L96.3390207,7.10135268 L96.2486408,6.56067666 C96.1336548,6.79639243 95.9822329,6.98278338 95.7939019,7.12032377 C95.6065172,7.25738988 95.4087224,7.34418261 95.1995709,7.37927912 C94.7755895,7.45089498 94.3837853,7.34133695 94.0246315,7.05155357 C93.6650044,6.76082164 93.434086,6.31073257 93.331403,5.7003378 C93.2268273,5.07618899 93.2944939,4.57630081 93.5339298,4.20209609 C93.7738389,3.82741709 94.1178506,3.60213542 94.5673844,3.52672534 C94.9800091,3.45748087 95.3656618,3.56846173 95.7243424,3.85966794 L95.4167667,2.02848363 L96.3939112,1.86390944 L97.2461326,6.94863542 Z" id="Fill-14" fill="#FEFEFE"></path>
                <polygon id="Fill-16" fill="#FEFEFE" points="99.9972322 6.84211276 100.04881 1.68577092 101.092202 1.69620502 101.040151 6.85207258"></polygon>
                <path d="M105.270311,7.24875804 L104.287015,7.13113729 L104.512728,5.23877122 C104.560521,4.83800697 104.570458,4.57620595 104.543013,4.45384243 C104.514621,4.33147891 104.457365,4.23140642 104.37077,4.15552207 C104.284176,4.07821488 104.174395,4.03268427 104.041428,4.01655884 C103.871078,3.99616492 103.712558,4.02414728 103.566341,4.10098019 C103.419651,4.1778131 103.312236,4.29069107 103.244097,4.43819128 C103.17501,4.58616577 103.115861,4.86693788 103.067122,5.28145616 L102.866488,6.96134605 L101.883665,6.8437253 L102.325155,3.13392895 L103.238891,3.24396127 L103.173591,3.78843151 C103.54836,3.40806118 103.981332,3.24728121 104.473926,3.30656586 C104.690176,3.33265111 104.884658,3.39572997 105.054535,3.49485391 C105.224411,3.59445213 105.348861,3.71017577 105.426465,3.84202483 C105.504542,3.97434817 105.552334,4.119477 105.569842,4.27741131 C105.587824,4.4358199 105.579306,4.65730736 105.54571,4.94424507 L105.270311,7.24875804 Z" id="Fill-18" fill="#FEFEFE"></path>
                <path d="M109.924121,5.73562402 L108.936093,5.6507284 C108.955021,5.45437764 108.921424,5.29359766 108.834357,5.16838848 C108.747762,5.04270502 108.614322,4.95543801 108.435455,4.90706173 C108.197438,4.84303431 107.985448,4.87433661 107.79901,4.99954579 C107.613518,5.12570353 107.468721,5.38086467 107.365091,5.76550349 C107.250578,6.19377581 107.241114,6.51581003 107.337173,6.73065761 C107.433704,6.94645374 107.603581,7.0868398 107.845856,7.15229005 C108.027562,7.20161488 108.190341,7.18975795 108.333718,7.11814209 C108.476623,7.04652623 108.606278,6.89191186 108.721737,6.65335043 L109.617965,7.06644588 C109.404555,7.47053006 109.12963,7.74418801 108.793662,7.88931684 C108.458168,8.03444566 108.05832,8.04393121 107.592697,7.91824775 C107.06414,7.77549031 106.687478,7.49519247 106.463658,7.07735425 C106.238417,6.65951603 106.205767,6.15678219 106.363814,5.56772989 C106.523753,4.97298627 106.80625,4.5518281 107.21083,4.30472968 C107.614937,4.0585798 108.086238,4.00783214 108.623786,4.15296097 C109.063856,4.27200455 109.387993,4.46076688 109.597145,4.72019651 C109.805823,4.97962615 109.915131,5.31826008 109.924121,5.73562402" id="Fill-20" fill="#FEFEFE"></path>
                <path d="M111.232833,7.06625616 C111.086143,7.40631293 111.054912,7.70178763 111.138667,7.95220599 C111.222422,8.20309864 111.382835,8.38047832 111.619432,8.48244792 C111.857448,8.58584035 112.095464,8.58109758 112.333954,8.47011671 C112.572917,8.35913584 112.765979,8.1310085 112.914562,7.78668325 C113.058886,7.45089498 113.090117,7.15731739 113.007308,6.9073733 C112.924972,6.65695493 112.76456,6.48052381 112.52749,6.37760565 C112.289947,6.2746875 112.051457,6.27895599 111.812495,6.38946259 C111.572586,6.50044345 111.379523,6.72572513 111.232833,7.06625616 M110.321935,6.61426998 C110.452063,6.31310395 110.651751,6.05320004 110.922418,5.8355068 C111.192611,5.61828784 111.496401,5.49450149 111.833788,5.46414775 C112.169756,5.43379401 112.506196,5.49118155 112.84311,5.63678465 C113.36315,5.86206633 113.716152,6.21445429 113.903537,6.69584566 C114.089975,7.1758142 114.072467,7.67333099 113.851012,8.18792177 C113.627192,8.70678104 113.274189,9.06438605 112.791532,9.26026254 C112.309348,9.45613903 111.813914,9.4442821 111.304758,9.2237432 C110.989611,9.08762564 110.720364,8.8865321 110.495597,8.61998831 C110.27083,8.35486735 110.143541,8.05227849 110.113257,7.71317028 C110.082499,7.37453635 110.152532,7.00839435 110.321935,6.61426998" id="Fill-22" fill="#FEFEFE"></path>
                <path d="M115.66022,6.98705187 L116.416383,7.49879698 L116.131994,7.92185225 C116.623642,7.77624915 117.056141,7.82984247 117.430437,8.08358078 C117.628232,8.21780123 117.773502,8.37478699 117.864355,8.55548661 C117.956155,8.73618622 117.992591,8.94012543 117.974609,9.16920132 C118.22209,9.09568835 118.452062,9.07197449 118.664999,9.09711118 C118.877936,9.12224787 119.073838,9.19528656 119.252232,9.31622725 C119.480784,9.47036735 119.642143,9.64679847 119.737728,9.8459949 C119.83284,10.0451913 119.859339,10.2600389 119.817225,10.4924347 C119.784574,10.662226 119.669115,10.8950961 119.469901,11.1905708 L118.135968,13.1697296 L117.315924,12.6148253 L118.507898,10.845297 C118.714684,10.5379653 118.820206,10.3207464 118.823992,10.1931658 C118.826358,10.0252717 118.748754,9.88773129 118.590707,9.78101892 C118.476194,9.70371173 118.344647,9.664821 118.196064,9.66624384 C118.047954,9.66814094 117.905523,9.72125999 117.769717,9.82607526 C117.634383,9.93089052 117.467819,10.1291384 117.271444,10.4203446 L116.27064,11.9072037 L115.450122,11.351825 L116.592411,9.65486118 C116.795411,9.35369515 116.911817,9.14975595 116.941628,9.0425693 C116.971439,8.93538265 116.97002,8.83957866 116.937369,8.75563159 C116.904246,8.67121025 116.836106,8.59342878 116.730584,8.52181293 C116.604241,8.43644303 116.467015,8.39375808 116.320325,8.3932838 C116.172689,8.39280952 116.034516,8.4411858 115.904388,8.53983546 C115.773786,8.63848512 115.608642,8.83673299 115.408954,9.1341048 L114.395374,10.6385121 L113.574856,10.0831335 L115.66022,6.98705187 Z" id="Fill-24" fill="#FEFEFE"></path>
                <path d="M121.787224,13.728855 C121.98076,13.5187502 122.078238,13.3110168 122.081077,13.1056547 C122.083443,12.9002927 122.011991,12.7271815 121.86672,12.5863212 C121.711513,12.4350268 121.52886,12.3672051 121.318762,12.3814334 C121.108191,12.396136 120.909923,12.500477 120.724904,12.6963535 L121.787224,13.728855 Z M121.052828,14.4070714 L121.646212,15.2138169 C121.304093,15.3845567 120.969545,15.4419443 120.642096,15.3864538 C120.314646,15.3309634 120.002811,15.1602236 119.708012,14.8728116 C119.24097,14.4189283 119.042228,13.9304228 119.113681,13.4077693 C119.172357,12.9913539 119.381508,12.5972296 119.741608,12.2253962 C120.171741,11.7814728 120.624587,11.545757 121.101093,11.5210946 C121.577599,11.4954836 121.993536,11.6557893 122.348904,12.0015374 C122.748753,12.3904447 122.936611,12.8286768 122.912478,13.3162338 C122.888818,13.8042651 122.608688,14.3150616 122.073033,14.8490978 L120.291932,13.1179859 C120.093191,13.3337821 119.991928,13.5528982 119.988615,13.7762827 C119.98483,13.9996673 120.0648,14.1912753 120.228998,14.3506324 C120.339725,14.4582933 120.462755,14.5190008 120.597615,14.5322806 C120.732002,14.5455604 120.883897,14.5033497 121.052828,14.4070714 L121.052828,14.4070714 Z" id="Fill-26" fill="#FEFEFE"></path>
                <g id="Group-30" transform="translate(0.000000, 17.599479)">
                    <mask id="mask-4" fill="white">
                        <use xlink:href="#path-3"></use>
                    </mask>
                    <g id="Clip-29"></g>
                    <path d="M25.5362643,11.1033512 L27.5601128,11.2721939 C27.9197399,11.2721939 28.1000266,11.3513982 28.1000266,11.5088582 C28.1000266,11.6895578 27.9533366,11.9262222 27.6613762,12.2193255 L27.6613762,13.8081541 C27.6613762,14.2591918 28.0323599,14.4844734 28.7748005,14.4844734 C28.9768541,14.4844734 29.1344275,14.4394171 29.2470476,14.3493044 C29.3819077,14.2364265 29.5390079,13.7858631 29.7192946,12.9966658 L31.7095464,13.8081541 C31.5070196,15.0706801 31.1809893,15.814821 30.7314555,16.0396284 C30.3713552,16.2881497 29.7192946,16.4114618 28.7748005,16.4114618 C27.4252527,16.4114618 26.5365953,16.2426191 26.1097748,15.9044594 C25.7269613,15.6118304 25.5362643,15.1385017 25.5362643,14.4844734 L25.5362643,11.1033512 Z M17.3727305,8.02671494 L21.690621,8.02671494 L21.690621,5.82891435 L24.2860872,6.031905 C24.7370406,6.05419602 24.9627538,6.17845665 24.9627538,6.40373833 C24.9627538,6.53890733 24.794297,6.75328063 24.45691,7.04590967 L24.45691,8.02671494 L28.8760639,8.02671494 L28.8760639,10.3255366 L24.45691,10.3255366 L24.45691,16.547105 L21.690621,16.547105 L21.690621,10.3255366 L17.3727305,10.3255366 L17.3727305,8.02671494 Z M18.8907352,10.9681822 L20.6784601,11.8470179 C20.8582737,11.9148395 20.9486536,11.9940438 20.9486536,12.0836822 C20.9486536,12.1742692 20.8923436,12.2643818 20.7797235,12.3544945 C20.149903,13.8418278 19.4751291,15.104828 18.7558751,16.1411237 L16.7656233,15.1944664 C17.6646909,14.0225274 18.3730615,12.6139241 18.8907352,10.9681822 L18.8907352,10.9681822 Z M13.9321408,11.5088582 L15.8211291,11.6781752 C16.1585161,11.7009405 16.326973,11.7910532 16.326973,11.9485132 C16.326973,12.0618655 16.1921128,12.2307081 15.9223925,12.4559898 L15.9223925,16.0059547 L13.9321408,16.0059547 L13.9321408,11.5088582 Z M6.03832727,8.02671494 L10.0864974,8.02671494 L10.0864974,5.82891435 L12.6814904,6.031905 C13.132917,6.05419602 13.3586303,6.17845665 13.3586303,6.40373833 C13.3586303,6.53890733 13.1897002,6.75328063 12.8523133,7.04590967 L12.8523133,8.02671494 L16.326973,8.02671494 L16.326973,10.3255366 L12.8523133,10.3255366 L12.8523133,16.7837694 L10.0864974,16.7837694 L10.0864974,10.3255366 L6.03832727,10.3255366 L6.03832727,8.02671494 Z M7.55633193,11.3736892 L9.37812681,12.2529992 C9.53522704,12.3203465 9.61425035,12.3881682 9.61425035,12.4559898 C9.61425035,12.5461025 9.56882378,12.6362152 9.47891702,12.7263278 C8.91676317,14.1463138 8.32053939,15.3296354 7.69119207,16.2762928 L5.70094033,15.2959618 C6.48786107,14.2141354 7.10632494,12.9070274 7.55633193,11.3736892 L7.55633193,11.3736892 Z M26.5820219,18.9810957 C26.2219217,18.9810957 25.6256979,19.0489173 24.794297,19.1840863 C23.3321291,19.4326076 21.7355744,19.6237413 20.0041594,19.7589103 L20.0041594,21.3818869 L29.1457841,21.3818869 L29.1457841,23.7148565 L20.0041594,23.7148565 L20.0041594,25.4393285 L31.3385627,25.4393285 L31.3385627,27.9074671 L20.0041594,27.9074671 L20.0041594,29.3948004 C20.0041594,30.499392 19.6327026,31.2994977 18.8907352,31.7955916 C18.2609147,32.3367419 16.74291,32.60708 14.3367212,32.60708 L13.223297,29.767108 L15.7534625,29.767108 C16.6307632,29.767108 17.1030103,29.4512394 17.1702037,28.8199764 L17.1702037,27.9074671 L4.9925697,27.9074671 L4.9925697,25.4393285 L17.1702037,25.4393285 L17.1702037,23.7148565 L7.18534825,23.7148565 L7.18534825,21.3818869 L17.1702037,21.3818869 L17.1702037,19.961901 C14.6513949,20.09707 11.8742224,20.1644173 8.83821305,20.1644173 L7.28661166,17.8992694 L10.6600079,17.8992694 C16.2143529,17.8992694 21.296924,17.448706 25.907248,16.547105 L27.8974998,18.5755887 C28.0323599,18.642936 28.1000266,18.8236357 28.1000266,19.116739 C28.1000266,19.2068516 28.0437166,19.251908 27.9315697,19.251908 C27.7063296,19.251908 27.5038028,19.195469 27.3239893,19.082591 C26.9643622,19.0152436 26.7168821,18.9810957 26.5820219,18.9810957 L26.5820219,18.9810957 Z M16.326973,0.452982164 L19.1604555,0.689646492 C19.7226093,0.712411798 20.0041594,0.847580804 20.0041594,1.09515351 C20.0041594,1.27585312 19.8238727,1.55757379 19.4642457,1.94078977 L19.4642457,3.02261609 L30.3599986,3.02261609 L30.3599986,5.55857634 L5.43122005,5.55857634 L5.43122005,15.0592974 C5.43122005,18.507767 5.1950965,21.6071686 4.72284942,24.3570279 C4.42994266,26.3859858 3.81195198,28.9665281 2.86745781,32.1000776 L-9.46386947e-05,30.747439 C0.921686247,28.0876924 1.55150676,25.7324318 1.88889371,23.6811828 C2.36114079,20.7510982 2.59726434,17.8769783 2.59726434,15.0592974 L2.59726434,3.02261609 L16.326973,3.02261609 L16.326973,0.452982164 Z" id="Fill-28" fill="#5D8AB4" mask="url(#mask-4)"></path>
                </g>
                <mask id="mask-6" fill="white">
                    <use xlink:href="#path-5"></use>
                </mask>
                <g id="Clip-32"></g>
                <path d="M51.5785618,30.7654141 L59.8097622,30.7654141 L59.8097622,27.9254422 L51.5785618,27.9254422 L51.5785618,30.7654141 Z M51.5785618,25.220165 L59.8097622,25.220165 L59.8097622,22.245024 L51.5785618,22.245024 L51.5785618,25.220165 Z M50.0941538,19.5402211 L62.7781049,19.5402211 L62.7781049,33.4365434 L57.0098765,33.4365434 C57.3245501,35.600196 57.8190373,37.4261633 58.4938112,38.9134966 C60.3827995,37.6286796 62.0243077,36.2992806 63.4188089,34.9238767 L65.5443939,37.155351 C65.6792541,37.3132853 65.7464476,37.4712196 65.7464476,37.6286796 C65.7464476,37.8316703 65.4204172,37.9331656 64.7683566,37.9331656 C63.1263753,39.0605225 61.4285571,40.1423489 59.6744289,41.1791188 C61.1134103,43.4105931 63.441049,45.6083937 66.657345,47.7720463 L64.397373,50.2065113 C61.0012634,47.6591684 58.5614779,45.0108044 57.0770699,42.2609452 C55.8174289,40.1646399 54.9292448,37.2231726 54.4120443,33.4365434 L51.5785618,33.4365434 L51.5785618,44.9320744 C53.4221235,44.3909241 55.2216783,43.7601354 56.9758065,43.0387598 L56.9758065,45.6420674 C54.839338,46.5887247 51.5108951,47.839868 46.990951,49.395023 C46.7429977,49.7782389 46.5068741,49.9698469 46.2825804,49.9698469 C46.0800536,49.9698469 45.9674336,49.8010043 45.9451935,49.4628446 L45.2027529,46.419882 C46.3947273,46.2168914 47.5303916,45.9911354 48.6102191,45.7435627 L48.6102191,19.5402211 L50.0941538,19.5402211 Z M35.0830373,25.9979796 L39.8391049,25.9979796 L39.8391049,18.4242468 L42.5717972,18.6609111 C43.0662844,18.7064418 43.3137646,18.8529934 43.3137646,19.1005661 C43.3137646,19.2585004 43.1453077,19.4951648 42.8079207,19.8105591 L42.8079207,25.9979796 L46.5523007,25.9979796 L46.5523007,28.8379515 L43.2465711,28.8379515 C44.3931189,32.2646044 45.7762634,35.0590457 47.3955315,37.2231726 L45.371683,39.4209732 C44.4271888,37.6177713 43.5721282,35.6794003 42.8079207,33.6053861 L42.8079207,48.7187037 L39.8391049,48.7187037 L39.8391049,34.450548 C39.6815315,35.1045763 39.5017179,35.7016913 39.2996643,36.2428416 C38.6021772,38.7223629 37.7925431,40.9875108 36.8707622,43.0387598 L33.9024196,41.0439498 C35.1388741,39.1956915 36.1959883,37.2122642 37.073289,35.0931937 C37.6803963,33.6954987 38.411007,31.6105761 39.2655944,28.8379515 L35.0830373,28.8379515 L35.0830373,25.9979796 Z" id="Fill-31" fill="#5D8AB4" mask="url(#mask-6)"></path>
                <path d="M113.405169,20.8925751 C113.67489,20.8925751 113.945083,20.9826878 114.214803,21.1629131 L115.901265,22.2110658 C116.126032,22.3462348 116.238652,22.4932607 116.238652,22.6507207 C116.238652,22.9438241 115.957575,23.2592184 115.395421,23.5973781 L108.952419,30.1903056 L108.952419,34.1462518 L116.103792,34.1462518 L116.103792,36.986698 L108.952419,36.986698 L108.952419,46.1492594 C108.952419,47.5464801 108.480172,48.5609591 107.535677,49.192222 C106.748283,49.8685413 104.791628,50.206701 101.665712,50.206701 L100.451498,47.1295904 L103.892088,47.1295904 C105.106775,47.1295904 105.758836,46.6334965 105.848743,45.6422571 L105.848743,36.986698 L98.5625096,36.986698 L98.5625096,34.1462518 L105.848743,34.1462518 L105.848743,28.1954956 L107.02936,28.3311389 L110.841407,23.8677161 L99.9115841,23.8677161 L99.9115841,21.1629131 L112.561938,21.1629131 L113.405169,20.8925751 Z M93.7383021,38.237367 C94.5701762,35.8484327 95.1891133,32.5014584 95.5936937,28.1954956 L91.5459967,28.1954956 C91.2758033,29.7288338 90.9606564,31.2047845 90.6015026,32.6247705 C90.2863557,33.8199491 89.9148988,35.0141791 89.4880783,36.2088834 C91.0396797,36.817381 92.456421,37.4937003 93.7383021,38.237367 L93.7383021,38.237367 Z M89.7918685,18.5596055 L92.8278779,18.9314389 C93.209745,18.9769695 93.4013883,19.1344295 93.4013883,19.4047675 C93.4013883,19.6305235 93.1870317,19.9345352 92.7602112,20.3177511 C92.5354443,22.0758968 92.2879641,23.7553124 92.0182438,25.3555237 L98.6973697,25.3555237 C98.3822228,31.2384582 97.7751156,35.6117684 96.8755748,38.4740313 C96.6952881,38.9928906 96.5159478,39.4885103 96.3361343,39.9618389 C97.7528755,41.0213742 99.07971,42.1824048 100.316638,43.4444565 L97.9889991,45.7774261 C96.9096448,44.6054871 95.8974839,43.5910082 94.9529897,42.7344635 C94.3681226,43.7266514 93.7047054,44.5827218 92.962738,45.3040974 C91.6581436,46.7013181 89.7014886,48.1663604 87.0932462,49.6992244 L84.6302741,47.3662548 C87.0364629,46.2170811 88.8246611,45.0674331 89.9939221,43.9177852 C90.9833697,43.0612405 91.815717,42.0472358 92.4904909,40.8748226 C91.3207566,40.0633343 90.0161622,39.3647239 88.5771809,38.7785173 C88.2397939,39.5449493 87.9137636,40.2999986 87.59909,41.0436653 L84.7656075,39.9618389 C86.0692555,37.2119797 87.0142228,34.6987847 87.59909,32.4222541 C87.9364769,31.1824935 88.2511506,29.7738902 88.5435841,28.1954956 L85.0353277,28.1954956 L85.0353277,25.3555237 L89.0158312,25.3555237 C89.3077916,23.304749 89.5666284,21.0396011 89.7918685,18.5596055 L89.7918685,18.5596055 Z" id="Fill-33" fill="#5D8AB4" mask="url(#mask-6)"></path>
                <path d="M154.458867,30.8329038 L156.314259,30.5962394 C156.808746,34.7210283 157.8881,37.9219252 159.552795,40.1984558 C159.664942,40.3791555 159.777089,40.5366155 159.890182,40.6717845 C160.362429,39.8380052 160.744296,38.8799652 161.03673,37.7981389 C161.846364,35.363674 162.251417,31.791418 162.251417,27.0799482 L162.251417,26.4373026 L156.347855,26.4373026 C156.212995,26.8660492 156.078135,27.2487909 155.943275,27.5869505 C155.538221,28.6241948 155.043261,29.7060211 154.458867,30.8329038 L154.458867,30.8329038 Z M155.200834,18.4243891 L158.30451,18.9992131 C158.686851,19.1120911 158.878021,19.2923164 158.878021,19.5398891 C158.878021,19.765645 158.562874,19.9795441 157.933527,20.1825347 C157.708287,21.4222953 157.46128,22.5041217 157.191086,23.4284879 L167.648662,23.4284879 L167.648662,26.4373026 L165.321023,26.4373026 L165.321023,27.0799482 C165.321023,31.7686527 164.97228,35.4310213 164.275266,38.0684769 C163.847972,39.9845568 163.139601,41.6748808 162.150154,43.1399231 C163.836615,44.7401344 165.928131,46.284381 168.424699,47.7721886 L166.029394,50.3418226 C163.690399,48.7861933 161.733744,47.208273 160.159902,45.6080617 C158.293154,47.5236674 155.695322,49.0233319 152.367352,50.1051582 L150.07331,47.129543 C153.401753,46.4309327 155.987755,45.168881 157.832263,43.3429138 C157.921697,43.2750921 157.989364,43.2077447 158.03479,43.1399231 C157.67469,42.6665945 157.337303,42.1823574 157.022629,41.6862635 C155.493268,39.3869675 154.413441,36.1410143 153.784093,31.948878 C153.334086,32.7380753 152.828242,33.5154157 152.266089,34.2813734 L149.80359,32.2528897 C151.422858,30.1793498 152.637072,28.0266055 153.446706,25.7951312 C154.076054,24.2622673 154.661394,21.8055113 155.200834,18.4243891 L155.200834,18.4243891 Z M138.064606,21.1628657 L140.796825,21.3658564 C141.336739,21.411387 141.606459,21.5574643 141.606459,21.8055113 C141.606459,21.9634456 141.415289,22.20011 141.032949,22.5155043 L141.032949,38.7106482 C142.854744,38.0798595 144.619755,37.3812492 146.32893,36.614343 L146.32893,18.3228938 L149.162886,18.5258844 C149.679613,18.5709408 149.93845,18.7174924 149.93845,18.9655394 C149.93845,19.1457647 149.758163,19.4274854 149.399009,19.8107014 L149.399009,50.2066536 L146.32893,50.2066536 L146.32893,39.3869675 C144.282368,40.4242118 141.527436,41.6862635 138.064606,43.1740711 C137.862079,43.6473997 137.648196,43.8840641 137.423429,43.8840641 C137.175949,43.8840641 137.029732,43.6924561 136.984779,43.3092401 L136.209214,40.0632868 C136.861275,39.9281178 137.479266,39.7815662 138.064606,39.6236319 L138.064606,21.1628657 Z" id="Fill-34" fill="#5D8AB4" mask="url(#mask-6)"></path>
                <path d="M191.363226,46.0139007 L195.040413,46.0139007 L195.040413,39.8264802 L191.363226,39.8264802 L191.363226,46.0139007 Z M184.920224,46.0139007 L188.394883,46.0139007 L188.394883,39.8264802 L184.920224,39.8264802 L184.920224,46.0139007 Z M178.544415,46.0139007 L181.951408,46.0139007 L181.951408,39.8264802 L178.544415,39.8264802 L178.544415,46.0139007 Z M180.028823,18.6950591 C181.625378,20.1823924 183.019406,21.6251437 184.211853,23.0228386 L181.648091,24.510172 C180.320783,23.0451297 178.836848,21.5577963 177.19534,20.0472234 L180.028823,18.6950591 Z M193.825725,18.5594158 L196.254627,19.8442328 C196.614254,20.0021671 196.794541,20.1601014 196.794541,20.3175614 C196.794541,20.5883737 196.558417,20.8250381 196.08617,21.0280287 L192.206457,25.4909773 L200.133867,25.4909773 L200.133867,28.3309492 L173.45096,28.3309492 L173.45096,25.4909773 L188.496147,25.4909773 L193.825725,18.5594158 Z M181.378371,28.9731205 L184.313117,29.7172615 C184.62779,29.7846088 184.785364,29.8979611 184.785364,30.0554211 C184.785364,30.2133554 184.729054,30.3485244 184.616434,30.4609281 C184.18914,30.5515151 183.739606,30.9233484 183.267359,31.5769024 C181.872858,33.1548227 180.422047,34.484696 178.915872,35.5665223 C178.150718,36.039851 177.3302,36.5131796 176.4529,36.9865083 L196.423557,36.9865083 C195.63569,36.5359449 194.939149,36.0853816 194.332042,35.6338697 C192.5552,34.371818 190.756119,32.602764 188.934324,30.3257591 L191.127103,28.8379515 C192.993851,30.9342568 194.871483,32.4898861 196.760471,33.5038907 C198.244879,34.3832007 200.313681,35.2620364 202.967823,36.1413463 L199.999007,38.7109802 C199.301993,38.4401679 198.683529,38.1589216 198.143615,37.865344 L198.143615,46.0139007 L202.056925,46.0139007 L202.056925,48.8538727 L171.527902,48.8538727 L171.527902,46.0139007 L175.441212,46.0139007 L175.441212,37.4935106 C174.653818,37.8994919 173.844184,38.2713253 173.01231,38.6094849 L170.752338,36.2765153 C172.956,35.5551397 175.013445,34.5520434 176.925147,33.2672264 C178.386841,32.3205691 179.871249,30.8892005 181.378371,28.9731205 L181.378371,28.9731205 Z" id="Fill-35" fill="#5D8AB4" mask="url(#mask-6)"></path>
            </g>
        </g>
    </g>
</svg>