<?xml version="1.0" encoding="UTF-8" standalone="no"?>
<svg width="303px" height="200px" viewBox="0 0 303 200" version="1.1" xmlns="http://www.w3.org/2000/svg" xmlns:xlink="http://www.w3.org/1999/xlink">
    <!-- Generator: Sketch 39.1 (31720) - http://www.bohemiancoding.com/sketch -->
    <title>box_w</title>
    <desc>Created with Sketch.</desc>
    <defs>
        <path d="M19.498419,4.99247271 C19.498419,4.99247271 2.9997569,0.830352402 2.99975684,38.2608328 C2.99975679,75.6913133 -3.74969602,124.449633 2.99975684,150.98136 C9.74920971,177.513087 -8.9328747,199.167548 30.9108694,199.167562 C70.7546136,199.167575 169.231654,187.696705 212.942606,193.432131 C256.653558,199.167557 302.471508,202.318946 302.471493,176.650155 C302.471478,150.981364 302.471514,104.659292 302.471499,73.3980941 C302.471484,42.136896 303.284977,12.9788795 279.651852,7.06638117 C251.562092,0.0389286578 210.089638,-0.500423085 172.568178,0.258239041 C114.277328,1.43684619 49.1446098,0.258239218 37.9306824,0.258239177 C19.4984194,0.25823911 19.498419,4.99247271 19.498419,4.99247271 Z" id="path-1"></path>
    </defs>
    <g id="pc" stroke="none" stroke-width="1" fill="none" fill-rule="evenodd">
        <g id="fill" transform="translate(-93.000000, -1281.000000)">
            <g id="part03" transform="translate(-13.000000, 800.000000)">
                <g id="Group-2" transform="translate(35.000000, 200.000000)">
                    <g id="01" transform="translate(0.000000, 24.000000)">
                        <g id="left" transform="translate(0.000000, 195.000000)">
                            <g id="box_w" transform="translate(71.000000, 62.000000)">
                                <mask id="mask-2" fill="white">
                                    <use xlink:href="#path-1"></use>
                                </mask>
                                <use id="Mask" fill="#F2F2F2" xlink:href="#path-1"></use>
                            </g>
                        </g>
                    </g>
                </g>
            </g>
        </g>
    </g>
</svg>