<?xml version="1.0" encoding="UTF-8" standalone="no"?>
<svg width="288px" height="282px" viewBox="0 0 288 282" version="1.1" xmlns="http://www.w3.org/2000/svg" xmlns:xlink="http://www.w3.org/1999/xlink">
    <!-- Generator: Sketch 39.1 (31720) - http://www.bohemiancoding.com/sketch -->
    <title>C_award</title>
    <desc>Created with Sketch.</desc>
    <defs>
        <rect id="path-1" x="0" y="0" width="311" height="286.794702"></rect>
        <ellipse id="path-3" cx="143.351562" cy="143.397351" rx="143.351562" ry="143.397351"></ellipse>
        <ellipse id="path-5" cx="143.75651" cy="143.802428" rx="139.707031" ry="139.751656"></ellipse>
        <path d="M0.254518132,0.775083023 L0.254518132,43.8797972 C0.254518132,85.1071493 29.4241931,118.532093 65.4077167,118.532093 C101.386943,118.532093 130.552322,85.1071493 130.552322,43.8797972 L130.552322,0.775083023 L0.254518132,0.775083023 Z" id="path-7"></path>
        <path d="M65.6015625,119.085983 C101.491642,118.96586 130.552322,85.496696 130.552322,44.2321058 L130.552322,1.01081013 L65.6015625,1.01081013 L65.6015625,119.086006 Z" id="path-9"></path>
    </defs>
    <g id="pc" stroke="none" stroke-width="1" fill="none" fill-rule="evenodd">
        <g id="winC" transform="translate(-490.000000, -156.000000)">
            <g id="bigcup" transform="translate(484.000000, 136.000000)">
                <g id="C_award">
                    <g id="back">
                        <mask id="mask-2" fill="white">
                            <use xlink:href="#path-1"></use>
                        </mask>
                        <g id="Mask"></g>
                        <g id="Group-4" mask="url(#mask-2)">
                            <g transform="translate(6.479167, 20.253863)">
                                <g id="Rectangle-3" stroke-width="1" fill="none">
                                    <mask id="mask-4" fill="white">
                                        <use xlink:href="#path-3"></use>
                                    </mask>
                                    <use id="Mask" fill="#A55410" xlink:href="#path-3"></use>
                                    <mask id="mask-6" fill="white">
                                        <use xlink:href="#path-5"></use>
                                    </mask>
                                    <use id="Mask" fill="#C3702B" xlink:href="#path-5"></use>
                                    <rect fill="#B86B2A" mask="url(#mask-6)" x="-35.6354167" y="-25.9249448" width="178.177083" height="371.050773"></rect>
                                </g>
                                <ellipse id="Oval" fill="#BC9D8A" cx="143.75651" cy="143.802428" rx="108.121094" ry="108.155629"></ellipse>
                                <g id="Page-1" stroke-width="1" fill="none" transform="translate(8.908854, 8.101545)">
                                    <polygon id="Fill-1" fill="#944C0F" points="133.11485 0.486551483 130.050351 6.69797187 123.197696 7.69016812 128.154574 12.522028 126.982454 19.3450762 133.11485 16.1272342 139.243848 19.3450762 138.071728 12.522028 143.028607 7.69016812 136.175952 6.69797187"></polygon>
                                    <polygon id="Fill-2" fill="#944C0F" points="86.7070519 9.20836431 91.7114947 13.9926531 98.489406 12.5859091 95.4826634 18.821115 98.9174846 24.8320574 92.054637 23.9010239 87.3967341 29.0251059 86.1668574 22.2122515 79.8543967 19.3681821 85.9494207 16.0857794"></polygon>
                                    <polygon id="Fill-3" fill="#944C0F" points="46.0837509 33.2759193 52.4199938 36.0622239 58.3111708 32.4196404 57.6180912 39.3072493 62.8977274 43.7823262 56.1334058 45.253631 53.510575 51.6621314 50.0213946 45.6817704 43.1177777 45.1686826 47.7247189 40.0004275"></polygon>
                                    <polygon id="Fill-4" fill="#944C0F" points="16.1403317 69.7904404 23.0439486 70.2389675 27.3349271 64.8022757 29.0404466 71.5131921 35.5329722 73.9087345 29.6791671 77.6090828 29.4039737 84.5272731 24.0835681 80.0997673 17.4177726 81.9788239 19.9828468 75.5431399"></polygon>
                                    <polygon id="Fill-5" fill="#944C0F" points="7.12825776 112.40527 0.486244422 114.342091 6.06825358 118.4366 5.85761173 125.358188 11.4803903 121.314648 17.9933005 123.652426 15.886882 117.060437 20.1167063 111.58297 13.1961022 111.548991 9.30262529 105.826872"></polygon>
                                    <polygon id="Fill-6" fill="#944C0F" points="6.5962172 157.470008 1.01420804 161.561118 7.65961882 163.504736 9.83058891 170.079735 13.7308607 164.354219 20.6480674 164.327035 16.4148456 158.849568 18.5178667 152.254182 12.001559 154.588561 6.38557534 150.545022"></polygon>
                                    <polygon id="Fill-7" fill="#944C0F" points="17.6566133 205.754287 21.5025259 200.001588 18.9408491 193.565904 25.5998497 195.44496 30.9236527 191.020852 31.2022436 197.939043 37.0526512 201.635993 30.5601257 204.031535 28.8546061 210.742452 24.5670251 205.30576"></polygon>
                                    <polygon id="Fill-8" fill="#944C0F" points="48.4096447 241.59194 50.0540101 234.867432 45.4504663 229.699177 52.3472884 229.186089 55.8398662 223.205728 58.4660945 229.614229 65.2270186 231.085533 59.9473824 235.557212 60.6370646 242.444821 54.749285 238.805636"></polygon>
                                    <polygon id="Fill-9" fill="#944C0F" points="89.563967 264.746811 88.8097332 257.865997 82.7147092 254.583595 89.0237725 251.739525 90.2570466 244.926671 94.9149496 250.050753 101.7744 249.11972 98.3395785 255.127264 101.346321 261.365868 94.5718072 259.959124"></polygon>
                                    <polygon id="Fill-10" fill="#944C0F" points="131.197669 260.385564 126.240791 265.217424 133.093446 266.219814 136.15115 272.424439 139.222445 266.213018 146.071702 265.217424 141.111426 260.385564 142.283546 253.569312 136.157945 256.787154 130.025549 253.562516"></polygon>
                                    <polygon id="Fill-11" fill="#944C0F" points="182.558949 263.705004 177.561301 258.920716 170.779992 260.324062 173.786735 254.088856 170.351913 248.074516 177.214761 249.008947 181.872664 243.888263 183.099143 250.697719 189.415001 253.541789 183.319977 256.820793"></polygon>
                                    <polygon id="Fill-12" fill="#944C0F" points="223.182589 239.637449 216.853141 236.851145 210.958567 240.49033 211.651646 233.602722 206.368613 229.124247 213.136332 227.65634 215.759163 221.251237 219.244946 227.231598 226.148562 227.741288 221.545019 232.909543"></polygon>
                                    <polygon id="Fill-13" fill="#944C0F" points="253.129066 203.126326 246.228847 202.671003 241.934471 208.107695 240.228951 201.396779 233.733028 198.997838 239.590231 195.300888 239.865424 188.386096 245.18583 192.813601 251.848228 190.934545 249.286551 197.363433"></polygon>
                                    <polygon id="Fill-14" fill="#944C0F" points="257.792745 151.598381 251.276437 149.257205 253.379458 155.85599 249.146236 161.330059 256.066841 161.36064 259.967112 167.082759 262.144877 160.507759 268.783493 158.570938 263.201484 154.469634 263.408728 147.551443"></polygon>
                                    <polygon id="Fill-15" fill="#944C0F" points="255.545332 108.55813 248.62133 108.585314 252.854552 114.062781 250.748134 120.658168 257.264441 118.316992 262.883823 122.36393 262.679976 115.435546 268.25519 111.351231 261.609779 109.404216 259.442206 102.829217"></polygon>
                                    <polygon id="Fill-16" fill="#944C0F" points="251.609387 67.1556837 247.766872 72.9049852 250.328549 79.3440671 243.666151 77.4650105 238.345745 81.8959143 238.067154 74.977724 232.213349 71.2773756 238.71267 68.8818333 240.414792 62.1675189 244.702373 67.6042107"></polygon>
                                    <polygon id="Fill-17" fill="#944C0F" points="220.856695 31.3214286 219.215727 38.0425389 223.819271 43.210794 216.919052 43.7238818 213.429871 49.7110386 210.803643 43.2991402 204.039322 41.8278355 209.325753 37.3527586 208.629276 30.4617517 214.517055 34.1009373"></polygon>
                                    <polygon id="Fill-18" fill="#944C0F" points="179.705771 8.16995617 180.460004 15.0439734 186.555028 18.326376 180.242568 21.1704454 179.016088 27.9900957 174.354788 22.8626158 167.49194 23.7936492 170.933557 17.7827069 167.920019 11.5407051 174.694533 12.950847"></polygon>
                                </g>
                            </g>
                        </g>
                    </g>
                    <g id="cup" transform="translate(62.361979, 81.015453)">
                        <g id="Group-17" transform="translate(0.000000, 0.505997)">
                            <polygon id="Fill-5" fill="#513A0A" points="55.9009397 172.600971 120.267801 172.600971 120.267801 151.132552 55.9009397 151.132552"></polygon>
                            <path d="M120.268123,151.131565 C120.268123,154.275131 105.858386,156.820707 88.0852298,156.820707 C70.3109998,156.820707 55.901262,154.275131 55.901262,151.131565 C55.901262,147.989096 70.3109998,145.446812 88.0852298,145.446812 C105.858386,145.446812 120.268123,147.989096 120.268123,151.131565" id="Fill-8" fill="#513A0A"></path>
                            <path d="M120.268123,172.600423 C120.268123,175.743989 105.858386,178.289564 88.0852298,178.289564 C70.3109998,178.289564 55.901262,175.743989 55.901262,172.600423 C55.901262,169.456856 70.3109998,166.911281 88.0852298,166.911281 C105.858386,166.911281 120.268123,169.456856 120.268123,172.600423" id="Fill-9" fill="#E1AD43"></path>
                            <path d="M99.550822,123.960179 C99.550822,129.139108 94.3139447,133.331627 87.8535181,133.331627 C81.3898688,133.331627 76.1519173,129.139108 76.1519173,123.960179 C76.1519173,118.784541 81.3898688,114.58873 87.8535181,114.58873 C94.3139447,114.58873 99.550822,118.784541 99.550822,123.960179" id="Fill-10" fill="#A66025"></path>
                            <polygon id="Fill-11" fill="#A66025" points="83.4990144 149.089508 92.2121039 149.089508 92.2121039 129.115518 83.4990144 129.115518"></polygon>
                            <path d="M153.13498,32.4613296 C142.09618,64.1307038 142.984569,72.7922441 143.624811,74.8418714 C145.944076,74.407368 150.583681,71.2396625 153.640943,68.3758899 C164.928965,57.8117513 164.211378,40.4447813 163.155409,32.4613296 L153.13498,32.4613296 Z M143.136036,85.8646525 C141.205642,85.8646525 139.449274,85.3796765 137.916346,84.4239884 C127.867987,78.1522169 133.207991,56.1702939 144.31769,25.0934244 L145.605693,21.489021 L171.900725,21.489021 L172.880424,25.7100681 C173.652796,29.0346776 179.874744,58.7092861 160.899523,76.4646758 C158.546957,78.6679154 150.307603,85.8646525 143.136036,85.8646525 L143.136036,85.8646525 Z" id="Fill-12" fill="#A66025"></path>
                            <path d="M11.774421,32.4613296 C10.7098579,40.433809 9.9750837,57.786515 21.2888871,68.3736955 C24.786584,71.6313739 29.1597793,74.4282153 31.3082418,74.8396769 C31.9484836,72.7878552 32.8336501,64.1230231 21.7969984,32.4613296 L11.774421,32.4613296 Z M31.797017,85.8646525 L31.7948685,85.8646525 C24.6780866,85.8635553 16.4065061,78.675596 14.0421232,76.4723564 C-4.98358624,58.670883 1.28025609,29.0226081 2.0579995,25.700193 L3.04306954,21.489021 L29.3262852,21.489021 L30.6153626,25.0934244 C41.7239878,56.1691967 47.0661398,78.1522169 37.0210035,84.421794 C35.4827044,85.3796765 33.7263363,85.8646525 31.797017,85.8646525 L31.797017,85.8646525 Z" id="Fill-13" fill="#A66025"></path>
                            <g id="Rectangle-5" transform="translate(22.677083, 4.860927)">
                                <mask id="mask-8" fill="white">
                                    <use xlink:href="#path-7"></use>
                                </mask>
                                <use id="Mask" fill="#A66025" xlink:href="#path-7"></use>
                                <mask id="mask-10" fill="white">
                                    <use xlink:href="#path-9"></use>
                                </mask>
                                <use id="Combined-Shape" fill="#B16525" xlink:href="#path-9"></use>
                            </g>
                            <path d="M153.229835,5.26734061 C153.229835,8.17390514 124.064457,10.5296598 88.0841555,10.5296598 C52.1006319,10.5296598 22.9320312,8.17390514 22.9320312,5.26734061 C22.9320312,2.36406776 52.1006319,0.00831311762 88.0841555,0.00831311762 C124.064457,0.00831311762 153.229835,2.36406776 153.229835,5.26734061" id="Fill-15" fill="#864813"></path>
                            <path d="M113.756026,151.062988 C113.756026,153.110421 102.155403,154.769434 87.8455688,154.769434 C73.5368087,154.769434 61.9361856,153.110421 61.9361856,151.062988 C61.9361856,149.016652 73.5368087,147.357639 87.8455688,147.357639 C102.155403,147.357639 113.756026,149.016652 113.756026,151.062988" id="Fill-16" fill="#A66025"></path>
                        </g>
                    </g>
                    <g id="tittle" transform="translate(34.825521, 152.856512)">
                        <g id="bg" transform="translate(0.000000, 91.000000)">
                            <polygon id="Fill-1" fill="#442D7D" points="204.389949 5.1897357 203.645461 57.9148721 228.497383 57.9148721 224.817365 44.7340778 221.137944 31.5523039 224.817365 18.3715096 229.242468 5.1897357"></polygon>
                            <polygon id="Fill-2" fill="#2F1E5A" points="203.6457 52.7252344 203.6457 57.9142843 212.365652 52.7252344"></polygon>
                            <polygon id="Fill-3" fill="#442D7D" points="0 5.1897357 4.42450599 18.3715096 8.10452386 31.5523039 4.42450599 44.7340778 0.744488111 57.9148721 25.5964094 57.9148721 24.8519213 5.1897357"></polygon>
                            <polygon id="Fill-4" fill="#2F1E5A" points="16.8762788 52.7252344 25.5962302 57.9142843 25.5962302 52.7252344"></polygon>
                            <polygon id="Fill-5" fill="#58497D" points="16.876458 52.7256262 212.365532 52.7256262 212.365532 0.000489810267 16.876458 0.000489810267"></polygon>
                        </g>
                        <g id="Group-5" transform="translate(72.080729, 0.262693)">
                            <path d="M42.9181519,32.0389439 L0.135924056,25.1007982 L0.135924056,2.41647149 L42.9181519,9.35461716 L42.9181519,32.0389439 Z M42.9244792,32.052936 L85.706707,25.1147903 L85.706707,2.43046358 L42.9244792,9.36860925 L42.9244792,32.052936 Z" id="Combined-Shape" fill="#944C10"></path>
                            <polygon id="Rectangle" fill="#C7771B" points="42.9181519 30.4186348 0.135924056 23.4804892 0.135924056 0.796162442 42.9181519 7.73430811"></polygon>
                            <polygon id="Rectangle" fill="#E38E32" transform="translate(64.315593, 15.621391) scale(-1, 1) translate(-64.315593, -15.621391) " points="85.706707 30.4326269 42.9244792 23.4944812 42.9244792 0.810154525 85.706707 7.7483002"></polygon>
                        </g>
                    </g>
                </g>
            </g>
        </g>
    </g>
</svg>