<?xml version="1.0" encoding="UTF-8" standalone="no"?>
<svg width="170px" height="178px" viewBox="0 0 170 178" version="1.1" xmlns="http://www.w3.org/2000/svg" xmlns:xlink="http://www.w3.org/1999/xlink">
    <!-- Generator: Sketch 39.1 (31720) - http://www.bohemiancoding.com/sketch -->
    <title>cup</title>
    <desc>Created with Sketch.</desc>
    <defs></defs>
    <g id="pc" stroke="none" stroke-width="1" fill="none" fill-rule="evenodd">
        <g id="game" transform="translate(-57.000000, -605.000000)">
            <g id="cup" transform="translate(57.000000, 605.000000)">
                <g>
                    <path d="M141.548443,164.143701 C141.548443,171.749922 117.122101,177.914447 86.9919706,177.914447 C56.8587142,177.914447 32.4365405,171.749922 32.4365405,164.143701 C32.4365405,156.53748 56.8587142,150.375043 86.9919706,150.375043 C117.122101,150.375043 141.548443,156.53748 141.548443,164.143701" id="Fill-3" fill="#000000" opacity="0.14896222"></path>
                    <polygon id="Fill-5" fill="#E1AD43" points="54.2324499 164.219596 116.678137 164.219596 116.678137 143.793668 54.2324499 143.793668"></polygon>
                    <path d="M22.247156,5.36232971 L22.247156,46.373911 C22.247156,85.5992935 50.5461961,117.401147 85.4557102,117.401147 C120.361056,117.401147 148.655927,85.5992935 148.655927,46.373911 L148.655927,5.36232971 L22.247156,5.36232971 Z" id="Fill-7" fill="#F1BC40"></path>
                    <path d="M116.67845,143.792728 C116.67845,146.783645 102.698803,149.20561 85.4561271,149.20561 C68.2124091,149.20561 54.2327625,146.783645 54.2327625,143.792728 C54.2327625,140.802855 68.2124091,138.384022 85.4561271,138.384022 C102.698803,138.384022 116.67845,140.802855 116.67845,143.792728" id="Fill-8" fill="#E1AD43"></path>
                    <path d="M116.67845,164.219074 C116.67845,167.209991 102.698803,169.631956 85.4561271,169.631956 C68.2124091,169.631956 54.2327625,167.209991 54.2327625,164.219074 C54.2327625,161.228157 68.2124091,158.806193 85.4561271,158.806193 C102.698803,158.806193 116.67845,161.228157 116.67845,164.219074" id="Fill-9" fill="#E1AD43"></path>
                    <path d="M96.5795028,117.940764 C96.5795028,122.868209 91.498932,126.857143 85.2313314,126.857143 C78.9606043,126.857143 73.8789913,122.868209 73.8789913,117.940764 C73.8789913,113.016452 78.9606043,109.024386 85.2313314,109.024386 C91.498932,109.024386 96.5795028,113.016452 96.5795028,117.940764" id="Fill-10" fill="#F1BC40"></path>
                    <polygon id="Fill-11" fill="#F1BC40" points="81.0067977 141.849833 89.4598254 141.849833 89.4598254 122.845764 81.0067977 122.845764"></polygon>
                    <path d="M148.564321,30.8850315 C137.854998,61.0165644 138.716872,69.2575068 139.338004,71.2076057 C141.588045,70.7942014 146.089171,67.7803174 149.055182,65.0556075 C160.006287,55.0044556 159.310119,38.4808127 158.285667,30.8850315 L148.564321,30.8850315 Z M138.863817,81.6951288 C136.991041,81.6951288 135.287095,81.2337028 133.799921,80.3244223 C124.051478,74.3572033 129.232097,53.4427062 140.010202,23.8749063 L141.259762,20.4455301 L166.76996,20.4455301 L167.720417,24.4616063 C168.469737,27.6247752 174.505976,55.8584068 156.097114,72.7516079 C153.814765,74.8478598 145.821333,81.6951288 138.863817,81.6951288 L138.863817,81.6951288 Z" id="Fill-12" fill="#F1BC40"></path>
                    <path d="M11.4229868,30.8850315 C10.390198,38.4703732 9.67735479,54.9804447 20.6534721,65.0535196 C24.0467724,68.1530076 28.2894398,70.8140365 30.3737766,71.2055178 C30.9949089,69.253331 31.8536557,61.0092568 21.1464178,30.8850315 L11.4229868,30.8850315 Z M30.8479632,81.6951288 L30.8458789,81.6951288 C23.9415134,81.6940848 15.9168169,74.8551675 13.6230043,72.7589156 C-4.83483986,55.8218685 1.24204395,27.6132918 1.99657386,24.4522108 L2.95224226,20.4455301 L28.4509759,20.4455301 L29.701578,23.8749063 C40.4786412,53.4416622 45.6613445,74.3572033 35.916028,80.3223344 C34.4236429,81.2337028 32.7196976,81.6951288 30.8479632,81.6951288 L30.8479632,81.6951288 Z" id="Fill-13" fill="#F1BC40"></path>
                    <path d="M121.267951,61.3798591 C121.267951,81.3182628 105.135184,97.4817428 85.2318525,97.4817428 C65.3274786,97.4817428 49.1947122,81.3182628 49.1947122,61.3798591 C49.1947122,41.4456311 65.3274786,25.2821511 85.2318525,25.2821511 C105.135184,25.2821511 121.267951,41.4456311 121.267951,61.3798591" id="Fill-14" fill="#F1BC40"></path>
                    <path d="M148.656344,5.01156246 C148.656344,7.77698638 120.361473,10.0183473 85.4550849,10.0183473 C50.5455708,10.0183473 22.2475729,7.77698638 22.2475729,5.01156246 C22.2475729,2.24927039 50.5455708,0.0079094388 85.4550849,0.0079094388 C120.361473,0.0079094388 148.656344,2.24927039 148.656344,5.01156246" id="Fill-15" fill="#E1AD43"></path>
                    <path d="M110.360721,143.727481 C110.360721,145.675492 99.1063443,147.253945 85.2236193,147.253945 C71.3419366,147.253945 60.0875603,145.675492 60.0875603,143.727481 C60.0875603,141.780514 71.3419366,140.202062 85.2236193,140.202062 C99.1063443,140.202062 110.360721,141.780514 110.360721,143.727481" id="Fill-16" fill="#F1BC40"></path>
                </g>
            </g>
        </g>
    </g>
</svg>