<?xml version="1.0" encoding="UTF-8" standalone="no"?>
<svg width="288px" height="283px" viewBox="0 0 288 283" version="1.1" xmlns="http://www.w3.org/2000/svg" xmlns:xlink="http://www.w3.org/1999/xlink">
    <!-- Generator: Sketch 39.1 (31720) - http://www.bohemiancoding.com/sketch -->
    <title>D_award</title>
    <desc>Created with Sketch.</desc>
    <defs>
        <rect id="path-1" x="0" y="0" width="311" height="287.57037"></rect>
        <ellipse id="path-3" cx="143.351562" cy="143.785185" rx="143.351562" ry="143.785185"></ellipse>
        <ellipse id="path-5" cx="143.75651" cy="144.191358" rx="139.707031" ry="140.12963"></ellipse>
        <polygon id="path-7" points="7.6749291 0 7.6749291 147.721937 72.9872316 117.440641 138.298978 147.721937 138.298978 0"></polygon>
        <path d="M72.0807292,117.860931 L72.9872316,117.440641 L138.298978,147.721937 L138.298978,0 L72.0807292,0 L72.0807292,117.860931 Z" id="path-9"></path>
    </defs>
    <g id="pc" stroke="none" stroke-width="1" fill="none" fill-rule="evenodd">
        <g id="winD" transform="translate(-490.000000, -156.000000)">
            <g id="bigcup" transform="translate(484.000000, 136.000000)">
                <g id="D_award">
                    <g id="back">
                        <mask id="mask-2" fill="white">
                            <use xlink:href="#path-1"></use>
                        </mask>
                        <g id="Mask"></g>
                        <g id="Group-4" mask="url(#mask-2)">
                            <g transform="translate(6.479167, 20.308642)">
                                <g id="Rectangle-3" stroke-width="1" fill="none">
                                    <mask id="mask-4" fill="white">
                                        <use xlink:href="#path-3"></use>
                                    </mask>
                                    <use id="Mask" fill="#647A4F" xlink:href="#path-3"></use>
                                    <mask id="mask-6" fill="white">
                                        <use xlink:href="#path-5"></use>
                                    </mask>
                                    <use id="Mask" fill="#A0BB86" xlink:href="#path-5"></use>
                                    <rect fill="#99B082" mask="url(#mask-6)" x="-35.6354167" y="-25.9950617" width="178.177083" height="372.054321"></rect>
                                </g>
                                <ellipse id="Oval" fill="#727E61" cx="143.75651" cy="144.191358" rx="108.121094" ry="108.448148"></ellipse>
                                <g id="Page-1" stroke-width="1" fill="none" transform="translate(8.908854, 8.123457)">
                                    <polygon id="Fill-1" fill="#707560" points="133.11485 0.487867416 130.050351 6.71608728 123.197696 7.71096704 128.154574 12.5558952 126.982454 19.3973971 133.11485 16.1708521 139.243848 19.3973971 138.071728 12.5558952 143.028607 7.71096704 136.175952 6.71608728"></polygon>
                                    <polygon id="Fill-2" fill="#707560" points="86.7070519 9.23326936 91.7114947 14.0304978 98.489406 12.6199491 95.4826634 18.8720188 98.9174846 24.8992185 92.054637 23.9656669 87.3967341 29.1036076 86.1668574 22.272327 79.8543967 19.4205655 85.9494207 16.1292852"></polygon>
                                    <polygon id="Fill-3" fill="#707560" points="46.0837509 33.3659178 52.4199938 36.1597582 58.3111708 32.5073229 57.6180912 39.4135602 62.8977274 43.9007404 56.1334058 45.3760245 53.510575 51.8018574 50.0213946 45.8053219 43.1177777 45.2908464 47.7247189 40.1086131"></polygon>
                                    <polygon id="Fill-4" fill="#707560" points="16.1403317 69.9791965 23.0439486 70.4289367 27.3349271 64.9775407 29.0404466 71.7066076 35.5329722 74.1086289 29.6791671 77.8189853 29.4039737 84.7558866 24.0835681 80.3164061 17.4177726 82.2005448 19.9828468 75.7474548"></polygon>
                                    <polygon id="Fill-5" fill="#707560" points="7.12825776 112.709282 0.486244422 114.651342 6.06825358 118.756925 5.85761173 125.697233 11.4803903 121.642757 17.9933005 123.986858 15.886882 117.37704 20.1167063 111.884759 13.1961022 111.850687 9.30262529 106.113093"></polygon>
                                    <polygon id="Fill-6" fill="#707560" points="6.5962172 157.895903 1.01420804 161.998079 7.65961882 163.946953 9.83058891 170.539735 13.7308607 164.798733 20.6480674 164.771476 16.4148456 159.279195 18.5178667 152.66597 12.001559 155.006663 6.38557534 150.952188"></polygon>
                                    <polygon id="Fill-7" fill="#707560" points="17.6566133 206.310773 21.5025259 200.542514 18.9408491 194.089424 25.5998497 195.973563 30.9236527 191.53749 31.2022436 198.474391 37.0526512 202.18134 30.5601257 204.583362 28.8546061 211.312428 24.5670251 205.861032"></polygon>
                                    <polygon id="Fill-8" fill="#707560" points="48.4096447 242.245353 50.0540101 235.502657 45.4504663 230.320424 52.3472884 229.805948 55.8398662 223.809413 58.4660945 230.235246 65.2270186 231.71053 59.9473824 236.194303 60.6370646 243.10054 54.749285 239.451512"></polygon>
                                    <polygon id="Fill-9" fill="#707560" points="89.563967 265.462848 88.8097332 258.563425 82.7147092 255.272145 89.0237725 252.420383 90.2570466 245.589103 94.9149496 250.727043 101.7744 249.793492 98.3395785 255.817284 101.346321 262.072761 94.5718072 260.662212"></polygon>
                                    <polygon id="Fill-10" fill="#707560" points="131.197669 261.089806 126.240791 265.934734 133.093446 266.939835 136.15115 273.161241 139.222445 266.933021 146.071702 265.934734 141.111426 261.089806 142.283546 254.255119 136.157945 257.481664 130.025549 254.248304"></polygon>
                                    <polygon id="Fill-11" fill="#707560" points="182.558949 264.418224 177.561301 259.620996 170.779992 261.028137 173.786735 254.776068 170.351913 248.745461 177.214761 249.682419 181.872664 244.547886 183.099143 251.375759 189.415001 254.227521 183.319977 257.515394"></polygon>
                                    <polygon id="Fill-12" fill="#707560" points="223.182589 240.285576 216.853141 237.491735 210.958567 241.140763 211.651646 234.234526 206.368613 229.743939 213.136332 228.272062 215.759163 221.849636 219.244946 227.846172 226.148562 228.35724 221.545019 233.539473"></polygon>
                                    <polygon id="Fill-13" fill="#707560" points="253.129066 203.675704 246.228847 203.21915 241.934471 208.670546 240.228951 201.941479 233.733028 199.53605 239.590231 195.829101 239.865424 188.895607 245.18583 193.335087 251.848228 191.450949 249.286551 197.897224"></polygon>
                                    <polygon id="Fill-14" fill="#707560" points="257.792745 152.008396 251.276437 149.660888 253.379458 156.27752 249.146236 161.766394 256.066841 161.797058 259.967112 167.534653 262.144877 160.941871 268.783493 158.999811 263.201484 154.887414 263.408728 147.950513"></polygon>
                                    <polygon id="Fill-15" fill="#707560" points="255.545332 108.851738 248.62133 108.878995 252.854552 114.371277 250.748134 120.984501 257.264441 118.636994 262.883823 122.694877 262.679976 115.747754 268.25519 111.652393 261.609779 109.700112 259.442206 103.10733"></polygon>
                                    <polygon id="Fill-16" fill="#707560" points="251.609387 67.3373137 247.766872 73.1021649 250.328549 79.558662 243.666151 77.6745233 238.345745 82.117411 238.067154 75.1805096 232.213349 71.4701533 238.71267 69.0681319 240.414792 62.335658 244.702373 67.7870539"></polygon>
                                    <polygon id="Fill-17" fill="#707560" points="220.856695 31.4061409 219.215727 38.1454292 223.819271 43.3276624 216.919052 43.8421379 213.429871 49.8454877 210.803643 43.4162476 204.039322 41.9409636 209.325753 37.4537833 208.629276 30.544139 214.517055 34.1931671"></polygon>
                                    <polygon id="Fill-18" fill="#707560" points="179.705771 8.19205273 180.460004 15.0846615 186.555028 18.3759418 180.242568 21.2277033 179.016088 28.0657981 174.354788 22.9244503 167.49194 23.8580018 170.933557 17.8308022 167.920019 11.5719182 174.694533 12.985874"></polygon>
                                </g>
                            </g>
                        </g>
                    </g>
                    <g id="cup" transform="translate(70.361979, 79.609877)">
                        <g id="Rectangle-5" transform="translate(6.578125, 0.000000)">
                            <polygon id="Fill-1" fill="#FFFFFF" points="0.310822921 0.310910611 0.310822921 159.838628 73.2765658 127.137283 146.241687 159.838628 146.241687 0.310910611"></polygon>
                            <mask id="mask-8" fill="white">
                                <use xlink:href="#path-7"></use>
                            </mask>
                            <use id="Combined-Shape" fill="#9EAF43" xlink:href="#path-7"></use>
                            <mask id="mask-10" fill="white">
                                <use xlink:href="#path-9"></use>
                            </mask>
                            <use id="Combined-Shape" fill="#AABF3C" xlink:href="#path-9"></use>
                        </g>
                        <rect id="Rectangle-6" fill="#FFFFFF" x="0.0989583333" y="0" width="158.739583" height="5.68641975"></rect>
                    </g>
                    <g id="tittle" transform="translate(34.825521, 157.516049)">
                        <g id="bg" transform="translate(0.000000, 87.000000)">
                            <polygon id="Fill-1" fill="#0D8346" points="204.389949 5.20377193 203.645461 58.0715094 228.497383 58.0715094 224.817365 44.8550661 221.137944 31.6376406 224.817365 18.4211974 229.242468 5.20377193"></polygon>
                            <polygon id="Fill-2" fill="#0A4125" points="203.6457 52.8678357 203.6457 58.07092 212.365652 52.8678357"></polygon>
                            <polygon id="Fill-3" fill="#0D8346" points="0 5.20377193 4.42450599 18.4211974 8.10452386 31.6376406 4.42450599 44.8550661 0.744488111 58.0715094 25.5964094 58.0715094 24.8519213 5.20377193"></polygon>
                            <polygon id="Fill-4" fill="#0A4125" points="16.8762788 52.8678357 25.5962302 58.07092 25.5962302 52.8678357"></polygon>
                            <polygon id="Fill-5" fill="#0D964F" points="16.876458 52.8682286 212.365532 52.8682286 212.365532 0.000491135014 16.876458 0.000491135014"></polygon>
                        </g>
                        <g id="Group-5" transform="translate(71.270833, 0.891358)">
                            <path d="M42.9181519,32.1255968 L0.135924056,25.1686861 L0.135924056,2.42300711 L42.9181519,9.37991777 L42.9181519,32.1255968 Z M42.9244792,32.1396267 L85.706707,25.182716 L85.706707,2.43703704 L42.9244792,9.3939477 L42.9244792,32.1396267 Z" id="Combined-Shape" fill="#768232"></path>
                            <polygon id="Rectangle" fill="#BBCD58" points="42.9181519 30.5009054 0.135924056 23.5439948 0.135924056 0.798315753 42.9181519 7.75522642"></polygon>
                            <polygon id="Rectangle" fill="#E6ECC5" transform="translate(64.315593, 15.663641) scale(-1, 1) translate(-64.315593, -15.663641) " points="85.706707 30.5149354 42.9244792 23.5580247 42.9244792 0.812345679 85.706707 7.76925634"></polygon>
                        </g>
                    </g>
                </g>
            </g>
        </g>
    </g>
</svg>