<?xml version="1.0" encoding="UTF-8" standalone="no"?>
<svg width="227px" height="76px" viewBox="0 0 227 76" version="1.1" xmlns="http://www.w3.org/2000/svg" xmlns:xlink="http://www.w3.org/1999/xlink">
    <!-- Generator: Sketch 39.1 (31720) - http://www.bohemiancoding.com/sketch -->
    <title>morgan_good</title>
    <desc>Created with Sketch.</desc>
    <defs>
        <polygon id="path-1" points="69.5569273 0.472105159 0.258430769 0.472105159 0.258430769 75.6848081 69.5569273 75.6848081 69.5569273 0.472105159"></polygon>
        <polygon id="path-3" points="0 0.505501835 0 36.387611 35.4584583 36.387611 35.4584583 0.505501835 0 0.505501835"></polygon>
        <polygon id="path-5" points="0 75.7421806 226.964019 75.7421806 226.964019 0.529265873 0 0.529265873"></polygon>
    </defs>
    <g id="pc" stroke="none" stroke-width="1" fill="none" fill-rule="evenodd">
        <g id="index" transform="translate(-527.000000, -162.000000)">
            <g id="morgan_good" transform="translate(527.000000, 162.000000)">
                <path d="M79.9424154,16.6664765 L87.824448,22.2920435 C88.3578186,21.5119056 88.9276998,20.7592895 89.5335622,20.0373708 L82.3155972,13.6067905 C81.4737394,14.5843445 80.6816205,15.6052984 79.9424154,16.6664765 L79.9424154,16.6664765 Z" id="Fill-1" fill="#939597"></path>
                <path d="M86.9493604,23.6472287 L78.7546075,18.4815938 C78.1614443,19.447504 77.6058499,20.4393483 77.0999944,21.4608314 L85.5900061,26.1681221 C86.0011459,25.3027724 86.4567333,24.4622982 86.9493604,23.6472287" id="Fill-3" fill="#939597"></path>
                <g id="Group-7" transform="translate(78.841492, 0.057161)">
                    <mask id="mask-2" fill="white">
                        <use xlink:href="#path-1"></use>
                    </mask>
                    <g id="Clip-6"></g>
                    <path d="M31.9590601,0.471893452 C21.3990625,0.471893452 11.8618876,4.82986865 5.03389697,11.8421122 L11.8587128,18.6685834 C17.0892373,13.1525745 24.4844634,9.71181706 32.6850368,9.71181706 C48.5390555,9.71181706 61.3912769,22.5671559 61.3912769,38.4244907 C61.3912769,54.282884 48.5390555,67.1376936 32.6850368,67.1376936 C23.45582,67.1376936 15.2510135,62.774955 9.99932354,56.0051152 C10.5300485,55.2773746 12.024862,53.9685001 12.7159156,53.0576335 L1.31935152,54.1299262 L0.258430769,64.7671117 L3.26975245,62.3806519 C10.1660019,70.5181147 20.4582559,75.6848081 31.9590601,75.6848081 C52.7229459,75.6853374 69.5569273,58.8478022 69.5569273,38.0788801 C69.5569273,17.3088994 52.7229459,0.471893452 31.9590601,0.471893452" id="Fill-5" fill="#939597" mask="url(#mask-2)"></path>
                </g>
                <path d="M92.1551741,12.0302662 L91.5789434,11.2506576 L93.5997196,9.7554815 L94.963307,11.5994438 C94.9066893,11.9334106 94.7453023,12.3107771 94.478617,12.730485 C94.21299,13.1507221 93.8886287,13.5021546 93.5065914,13.7847826 C93.020314,14.1441541 92.5213373,14.3558605 92.0107196,14.4204309 C91.4990436,14.4839428 91.0127662,14.3944969 90.5524166,14.1510346 C90.0915378,13.9081015 89.6968012,13.5640787 89.3682068,13.1205539 C89.0126263,12.6383927 88.7972674,12.1350609 88.7231881,11.6105584 C88.6491089,11.0865852 88.7337709,10.5800777 88.976645,10.0910361 C89.1607848,9.71684509 89.4745634,9.36594182 89.9179807,9.03779697 C90.4947406,8.61120868 91.0339317,8.3984438 91.5371415,8.4000316 C92.0387639,8.40109013 92.4938221,8.57945273 92.9007289,8.93564866 L92.0980273,9.79835203 C91.8641485,9.61946017 91.6080459,9.5305435 91.3302487,9.53318983 C91.0529807,9.53530689 90.7788874,9.63639668 90.5084981,9.83592991 C90.0989457,10.1397285 89.8687709,10.5096854 89.8179737,10.9473882 C89.7671765,11.3850911 89.93068,11.8587841 90.3068967,12.3679378 C90.7127452,12.9167866 91.1397592,13.2380509 91.5884678,13.331731 C92.035589,13.4248818 92.4583699,13.3243213 92.8552231,13.031108 C93.0515331,12.8855599 93.220328,12.7019046 93.3616077,12.4790837 C93.5018291,12.2557335 93.6023653,12.0376759 93.6632161,11.822794 L93.2293233,11.2358381 L92.1551741,12.0302662 Z" id="Fill-8" fill="#FEFEFE"></path>
                <path d="M96.0317415,9.59585491 C96.2174688,9.96528249 96.4476436,10.2034521 96.722266,10.3119516 C96.9974175,10.4199219 97.2635737,10.4088073 97.5217928,10.2786079 C97.7800119,10.1489377 97.9466902,9.94146553 98.0234152,9.65724975 C98.0990818,9.37303398 98.0429932,9.04383061 97.8556786,8.6701689 C97.6720678,8.30550471 97.4434804,8.0683936 97.1699163,7.9598941 C96.8968814,7.85192386 96.6307252,7.86250918 96.3719769,7.99270858 C96.1142869,8.12237872 95.9465503,8.32932168 95.8692963,8.61459598 C95.7920422,8.89934102 95.8460142,9.22642733 96.0317415,9.59585491 M94.990928,10.0531406 C94.8268953,9.72605432 94.748583,9.36827059 94.75652,8.98084797 C94.763928,8.59236682 94.8761051,8.24358061 95.0925224,7.93290154 C95.3084105,7.62222247 95.5994361,7.37558457 95.9655993,7.19087078 C96.5307182,6.90665501 97.0863126,6.85637475 97.6313242,7.04055928 C98.176865,7.2247438 98.5901214,7.59628844 98.8705643,8.15466394 C99.1541821,8.71833209 99.2065667,9.27670759 99.0282473,9.83084896 C98.8493988,10.3855196 98.4827065,10.8015226 97.9286995,11.0799164 C97.5863476,11.2524571 97.2207135,11.339786 96.8317974,11.341903 C96.4439396,11.3440201 96.0931214,11.2365791 95.7814594,11.0195801 C95.4697974,10.8031104 95.2062869,10.4813167 94.990928,10.0531406" id="Fill-10" fill="#FEFEFE"></path>
                <path d="M100.633016,7.53616384 C100.761596,7.92940838 100.953673,8.19986324 101.208717,8.34752842 C101.464291,8.4951936 101.729389,8.52430322 102.00454,8.43432803 C102.278633,8.34435283 102.475472,8.1649317 102.592941,7.89553537 C102.710939,7.62560977 102.705118,7.29164301 102.57495,6.89363507 C102.447957,6.50568318 102.257468,6.23734539 102.002953,6.08968021 C101.748967,5.94148576 101.484398,5.91237614 101.209776,6.00182207 C100.935153,6.09179727 100.738843,6.2712184 100.619258,6.54167326 C100.500202,6.81159886 100.504964,7.14344856 100.633016,7.53616384 M99.5366427,7.83361126 C99.422349,7.48482505 99.3985378,7.1196316 99.46468,6.73750164 C99.530293,6.35537168 99.6927382,6.0261683 99.9530739,5.75200858 C100.21288,5.47679033 100.537242,5.2756693 100.926687,5.14864549 C101.528845,4.95175858 102.085498,4.9856316 102.597174,5.249206 C103.10885,5.51278041 103.461785,5.94148576 103.655978,6.53585134 C103.851759,7.13550957 103.820011,7.69600213 103.560204,8.21732902 C103.300927,8.73812664 102.876559,9.09485184 102.2871,9.28803388 C101.923053,9.4071187 101.547894,9.43887465 101.163741,9.3822432 C100.778528,9.32614102 100.448876,9.16789053 100.173195,8.90696245 C99.8969853,8.64603438 99.6848012,8.28825064 99.5366427,7.83361126" id="Fill-12" fill="#FEFEFE"></path>
                <path d="M105.46838,6.09978919 C105.54193,6.5385506 105.656753,6.84605407 105.811261,7.02177034 C106.035086,7.27634722 106.305476,7.37637847 106.621371,7.32345188 C106.872711,7.28058135 107.068492,7.1387381 107.209243,6.89633433 C107.349464,6.65340129 107.383329,6.32049306 107.312424,5.89708036 C107.233054,5.4249752 107.090187,5.09947669 106.884352,4.92005556 C106.679047,4.74169296 106.442522,4.67447619 106.175308,4.71999306 C105.91656,4.76286359 105.717075,4.90206052 105.576853,5.13705456 C105.436103,5.37099008 105.400121,5.69225446 105.46838,6.09978919 L105.46838,6.09978919 Z M108.743212,7.75427431 L107.728856,7.92469792 L107.62779,7.32133482 C107.49921,7.58437996 107.329886,7.79238145 107.119289,7.94586855 C106.909751,8.09882639 106.688571,8.19568204 106.454693,8.23484772 C105.980585,8.31476687 105.542459,8.19250645 105.140844,7.869125 C104.7387,7.54468502 104.48048,7.04241171 104.365658,6.36124653 C104.248718,5.66473264 104.324385,5.10688641 104.592128,4.68929563 C104.860401,4.2711756 105.245084,4.01977431 105.747765,3.93562103 C106.209173,3.85834821 106.64042,3.98219643 107.041506,4.30716567 L106.697567,2.26367014 L107.790236,2.08001488 L108.743212,7.75427431 Z" id="Fill-14" fill="#FEFEFE"></path>
                <polygon id="Fill-16" fill="#FEFEFE" points="111.819565 7.63540119 111.877241 1.88122262 113.043989 1.89286647 112.985784 7.64651577"></polygon>
                <path d="M117.716062,8.08919375 L116.616514,7.95793581 L116.868913,5.84616498 C116.922356,5.39893532 116.933468,5.10678056 116.902778,4.97022996 C116.871029,4.83367937 116.807004,4.72200427 116.710172,4.63732173 C116.613339,4.55105139 116.490579,4.50024187 116.341892,4.48224683 C116.151402,4.45948839 115.974141,4.49071508 115.810638,4.57645615 C115.646605,4.66219722 115.526491,4.7881625 115.450295,4.95276419 C115.373041,5.11789514 115.306899,5.43122054 115.252398,5.89379891 L115.028043,7.76845863 L113.929025,7.63720069 L114.42271,3.49728304 L115.444475,3.62007272 L115.371454,4.22766994 C115.790531,3.80319871 116.274691,3.62377758 116.825524,3.68993581 C117.067339,3.71904544 117.284815,3.7894378 117.474775,3.90005437 C117.664736,4.0112002 117.803899,4.14034107 117.890677,4.28747698 C117.977985,4.43514216 118.031428,4.59709752 118.051006,4.77334306 C118.071113,4.95011786 118.061589,5.19728502 118.02402,5.51749087 L117.716062,8.08919375 Z" id="Fill-18" fill="#FEFEFE"></path>
                <path d="M122.920077,6.40062391 L121.815238,6.30588532 C121.836403,6.08676925 121.798834,5.90734812 121.701473,5.76762192 C121.604641,5.62736647 121.455424,5.52998155 121.25541,5.47599643 C120.989254,5.40454554 120.7522,5.43947708 120.54372,5.57920327 C120.336298,5.719988 120.174382,6.00473304 120.058501,6.43396766 C119.93045,6.91189474 119.919867,7.27126627 120.027282,7.51102371 C120.135226,7.75183968 120.325186,7.90850238 120.596105,7.98154107 C120.799293,8.03658472 120.981317,8.02335308 121.141645,7.94343393 C121.301445,7.86351478 121.446429,7.69097411 121.575538,7.42475337 L122.577725,7.88574395 C122.339084,8.33667847 122.031655,8.64206488 121.655967,8.80402024 C121.280809,8.9659756 120.833687,8.97656091 120.313016,8.83630546 C119.721969,8.67699643 119.300776,8.3642003 119.050494,7.89791706 C118.798624,7.43163383 118.762114,6.870612 118.938846,6.21326379 C119.117694,5.54956438 119.43359,5.07957629 119.886002,4.80382877 C120.337886,4.52913978 120.864907,4.47250833 121.466007,4.63446369 C121.958105,4.76730942 122.320564,4.97795724 122.554443,5.26746567 C122.787792,5.55697411 122.910023,5.93486994 122.920077,6.40062391" id="Fill-20" fill="#FEFEFE"></path>
                <path d="M124.383512,7.88553224 C124.21948,8.26501587 124.184557,8.59474851 124.278214,8.87420089 C124.371871,9.15418254 124.551249,9.35212798 124.815818,9.46592014 C125.081974,9.5813001 125.34813,9.57600744 125.614815,9.45215923 C125.88203,9.32831101 126.097918,9.07373413 126.264067,8.6894871 C126.425454,8.31476687 126.460377,7.98715129 126.367778,7.70822817 C126.275708,7.42877579 126.096331,7.23188889 125.831233,7.11703819 C125.565606,7.0021875 125.29892,7.00695089 125.031706,7.13026984 C124.763433,7.25411806 124.547545,7.50551935 124.383512,7.88553224 M123.364923,7.38114187 C123.510435,7.04505804 123.733731,6.75502034 124.036398,6.5120873 C124.338536,6.26968353 124.678242,6.13154514 125.055517,6.09767212 C125.431205,6.06379911 125.807421,6.12784028 126.184167,6.2903249 C126.76569,6.54172619 127.160426,6.93497073 127.369965,7.4721756 C127.578445,8.00779266 127.558867,8.56299256 127.31123,9.13724603 C127.060948,9.7162629 126.666212,10.1153294 126.126491,10.3339162 C125.5873,10.552503 125.033293,10.5392713 124.463941,10.2931627 C124.111536,10.1412634 123.810456,9.91685466 123.559116,9.61940724 C123.307776,9.32354762 123.165438,8.98587599 123.131573,8.60745089 C123.097179,8.22955506 123.175491,7.82096181 123.364923,7.38114187" id="Fill-22" fill="#FEFEFE"></path>
                <path d="M129.334335,7.79714484 L130.179897,8.36822272 L129.861885,8.84032788 C130.411659,8.67784325 130.89529,8.7376503 131.313838,9.02080754 C131.535018,9.17058978 131.697463,9.34577679 131.799057,9.54742708 C131.90171,9.74907738 131.942454,9.97666171 131.922346,10.2322971 C132.199085,10.1502609 132.456246,10.1237976 132.694358,10.1518487 C132.93247,10.1798998 133.151533,10.2614067 133.351018,10.3963695 C133.606591,10.568381 133.787027,10.7652679 133.893913,10.9875595 C134.000269,11.2098512 134.029901,11.4496086 133.982808,11.7089489 C133.946297,11.8984261 133.817188,12.1582956 133.594421,12.4880283 L132.102782,14.6966548 L131.185787,14.0774137 L132.518684,12.1027227 C132.749917,11.7597584 132.867915,11.5173547 132.872148,11.3749821 C132.874794,11.187622 132.788015,11.0341349 132.611283,10.9150501 C132.483232,10.8287798 132.336132,10.78538 132.169983,10.7869678 C132.004363,10.7890848 131.845092,10.8483626 131.69323,10.9653304 C131.541897,11.0822981 131.35564,11.3035313 131.136048,11.6285005 L130.016922,13.287749 L129.099398,12.6679787 L130.376736,10.7742654 C130.603736,10.4381815 130.733903,10.2105972 130.767239,10.0909831 C130.800575,9.97136905 130.798987,9.86445734 130.762477,9.77077728 C130.725437,9.67656796 130.649241,9.58976835 130.531244,9.50984921 C130.389964,9.41458135 130.236514,9.36694742 130.072482,9.36641815 C129.907391,9.36588889 129.752883,9.41987401 129.60737,9.52996131 C129.461328,9.64004861 129.276659,9.86128175 129.053363,10.1931314 L127.91995,11.8719628 L127.002426,11.2521925 L129.334335,7.79714484 Z" id="Fill-24" fill="#FEFEFE"></path>
                <path d="M136.185713,15.3206063 C136.402131,15.0861415 136.511133,14.8543231 136.514308,14.6251509 C136.516953,14.3959788 136.437054,14.2027968 136.274608,14.0456048 C136.101051,13.876769 135.896804,13.801084 135.661867,13.816962 C135.426401,13.8333692 135.204692,13.9498077 134.9978,14.1683945 L136.185713,15.3206063 Z M135.364492,16.0774565 L136.02803,16.9777377 C135.645464,17.1682735 135.271364,17.2323146 134.9052,17.1703905 C134.539037,17.1084664 134.190336,16.9179307 133.860683,16.5971956 C133.338424,16.0906881 133.116186,15.5455443 133.196086,14.9622933 C133.261699,14.4975979 133.495578,14.0577779 133.898252,13.6428335 C134.379238,13.1474406 134.885622,12.8843955 135.418464,12.8568737 C135.951305,12.8282933 136.416417,13.0071852 136.8138,13.39302 C137.260921,13.827018 137.470988,14.3160597 137.444002,14.860145 C137.417545,15.4047596 137.104296,15.9747789 136.505312,16.5707323 L134.513639,14.6389119 C134.291401,14.8797278 134.178166,15.1242487 134.174462,15.3735329 C134.170228,15.6228171 134.259653,15.8366405 134.443263,16.0144739 C134.567082,16.1346172 134.704657,16.2023632 134.855462,16.2171827 C135.005737,16.2320021 135.17559,16.1848975 135.364492,16.0774565 L135.364492,16.0774565 Z" id="Fill-26" fill="#FEFEFE"></path>
                <g id="Group-30" transform="translate(0.000000, 19.639998)">
                    <mask id="mask-4" fill="white">
                        <use xlink:href="#path-3"></use>
                    </mask>
                    <g id="Clip-29"></g>
                    <path d="M28.5553301,12.3906963 L30.8184513,12.5791149 C31.2205958,12.5791149 31.4221972,12.6675023 31.4221972,12.8432186 C31.4221972,13.0448689 31.2581646,13.3089726 30.9316867,13.6360589 L30.9316867,15.4090996 C30.9316867,15.9124314 31.3465305,16.1638327 32.1767473,16.1638327 C32.402689,16.1638327 32.5788918,16.1135524 32.7048266,16.0129919 C32.8556308,15.8870266 33.0313044,15.3842241 33.2329058,14.5035256 L35.4584583,15.4090996 C35.2319874,16.8180053 34.8674117,17.6484235 34.364731,17.8992955 C33.9620573,18.1766308 33.2329058,18.3142399 32.1767473,18.3142399 C30.6676471,18.3142399 29.6739268,18.1258213 29.1966448,17.7484547 C28.7685725,17.4218977 28.5553301,16.8936903 28.5553301,16.1638327 L28.5553301,12.3906963 Z M19.4266494,8.95734856 L24.2550294,8.95734856 L24.2550294,6.50473051 L27.1573487,6.7312563 C27.6616168,6.7561318 27.9140154,6.89479945 27.9140154,7.14620074 C27.9140154,7.29704152 27.7256424,7.53626969 27.3483674,7.86282674 L27.3483674,8.95734856 L32.2899828,8.95734856 L32.2899828,11.5227002 L27.3483674,11.5227002 L27.3483674,18.46561 L24.2550294,18.46561 L24.2550294,11.5227002 L19.4266494,11.5227002 L19.4266494,8.95734856 Z M21.1241226,12.2398555 L23.1232042,13.2205852 C23.3242765,13.2962702 23.4253417,13.3846576 23.4253417,13.4846888 C23.4253417,13.5857786 23.3623744,13.6863391 23.2364396,13.7868997 C22.5321576,15.4466774 21.7776075,16.8561125 20.9733184,18.0125584 L18.747766,16.9561437 C19.7531273,15.6483277 20.5452462,14.0764081 21.1241226,12.2398555 L21.1241226,12.2398555 Z M15.5792904,12.8432186 L17.6916075,13.0321665 C18.0688825,13.0575713 18.2572555,13.1581318 18.2572555,13.3338481 C18.2572555,13.4603426 18.1064513,13.6487613 17.8048429,13.9001625 L17.8048429,17.8617176 L15.5792904,17.8617176 L15.5792904,12.8432186 Z M6.75221818,8.95734856 L11.2789897,8.95734856 L11.2789897,6.50473051 L14.18078,6.7312563 C14.6855772,6.7561318 14.9379758,6.89479945 14.9379758,7.14620074 C14.9379758,7.29704152 14.7490737,7.53626969 14.3717986,7.86282674 L14.3717986,8.95734856 L18.2572555,8.95734856 L18.2572555,11.5227002 L14.3717986,11.5227002 L14.3717986,18.7297136 L11.2789897,18.7297136 L11.2789897,11.5227002 L6.75221818,11.5227002 L6.75221818,8.95734856 Z M8.44969138,12.6923778 L10.4868709,13.6736368 C10.6625445,13.7487925 10.7509105,13.8244775 10.7509105,13.9001625 C10.7509105,14.0007231 10.7001133,14.1012836 10.5995772,14.2018441 C9.97096177,15.7864661 9.30424848,17.1069845 8.60049557,18.1633992 L6.37494312,17.0694066 C7.25489883,15.8621511 7.94648159,14.4034944 8.44969138,12.6923778 L8.44969138,12.6923778 Z M29.724724,21.1818024 C29.3220503,21.1818024 28.6553371,21.2574875 27.7256424,21.4083282 C26.0906075,21.6856635 24.3052974,21.8989577 22.3691832,22.0497985 L22.3691832,23.8609463 L32.5915911,23.8609463 L32.5915911,26.4644051 L22.3691832,26.4644051 L22.3691832,28.3888158 L35.0436145,28.3888158 L35.0436145,31.1431154 L22.3691832,31.1431154 L22.3691832,32.8028932 C22.3691832,34.0355534 21.9538103,34.928425 21.1241226,35.4820371 C20.4198406,36.0859294 18.7223674,36.387611 16.031703,36.387611 L14.7866424,33.2183669 L17.6159408,33.2183669 C18.5969618,33.2183669 19.125041,32.8658758 19.2001786,32.161423 L19.2001786,31.1431154 L5.58282424,31.1431154 L5.58282424,28.3888158 L19.2001786,28.3888158 L19.2001786,26.4644051 L8.03484755,26.4644051 L8.03484755,23.8609463 L19.2001786,23.8609463 L19.2001786,22.2763243 C16.3835795,22.427165 13.2780713,22.5023208 9.88312494,22.5023208 L8.14808298,19.974547 L11.9203044,19.974547 C18.1313207,19.974547 23.8147869,19.4717444 28.9701739,18.46561 L31.1957263,20.7292801 C31.3465305,20.8044359 31.4221972,21.0060862 31.4221972,21.3331725 C31.4221972,21.433733 31.3592298,21.4840132 31.2338242,21.4840132 C30.9819548,21.4840132 30.7554839,21.4210306 30.5544117,21.2950653 C30.1522671,21.2199096 29.8755282,21.1818024 29.724724,21.1818024 L29.724724,21.1818024 Z M18.2572555,0.505501835 L21.425731,0.769605506 C22.0543464,0.795010268 22.3691832,0.945851042 22.3691832,1.22212783 C22.3691832,1.42377812 22.1675818,1.73816205 21.7654373,2.16580888 L21.7654373,3.37306434 L33.949358,3.37306434 L33.949358,6.20304896 L6.07333473,6.20304896 L6.07333473,16.8053029 C6.07333473,20.6535951 5.8092951,24.1123476 5.28121585,27.1810311 C4.95367972,29.4452305 4.26262611,32.3249661 3.2064676,35.8218257 L-0.000105827506,34.3123595 C1.03065408,31.3442365 1.73493613,28.7159021 2.11221119,26.4268272 C2.64029044,23.1570227 2.90433007,19.9496715 2.90433007,16.8053029 L2.90433007,3.37306434 L18.2572555,3.37306434 L18.2572555,0.505501835 Z" id="Fill-28" fill="#5D8AB4" mask="url(#mask-4)"></path>
                </g>
                <mask id="mask-6" fill="white">
                    <use xlink:href="#path-5"></use>
                </mask>
                <g id="Clip-32"></g>
                <path d="M57.6765198,34.3324187 L66.8808671,34.3324187 L66.8808671,31.1631746 L57.6765198,31.1631746 L57.6765198,34.3324187 Z M57.6765198,28.1442421 L66.8808671,28.1442421 L66.8808671,24.8241572 L57.6765198,24.8241572 L57.6765198,28.1442421 Z M56.0166154,21.805754 L70.2001469,21.805754 L70.2001469,37.313244 L63.7499604,37.313244 C64.1018368,39.727755 64.6547855,41.7654286 65.4093357,43.4252063 C67.5216527,41.9914251 69.3572308,40.5078929 70.9165991,38.9730218 L73.2934848,41.4632178 C73.444289,41.6394633 73.5194266,41.8157088 73.5194266,41.9914251 C73.5194266,42.2179509 73.1548508,42.3312138 72.4256993,42.3312138 C70.5895921,43.5892788 68.6910466,44.7965342 66.7295338,45.9535094 C68.338641,48.4437054 70.9414685,50.8963234 74.5380163,53.3108343 L72.0108555,56.0275561 C68.2132354,53.184869 65.4850023,50.2294484 63.8250979,47.1607649 C62.4165338,44.8214097 61.4233427,41.5389028 60.8449953,37.313244 L57.6765198,37.313244 L57.6765198,50.1415903 C59.7380396,49.5376979 61.7503497,48.8337743 63.7118625,48.0287609 L63.7118625,50.9339013 C61.3228065,51.990316 57.6008531,53.3865193 52.5465315,55.1219821 C52.2692634,55.549629 52.0052238,55.7634524 51.7544126,55.7634524 C51.5279417,55.7634524 51.402007,55.5750337 51.3771375,55.1976672 L50.5469207,51.8018973 C51.8798182,51.5753715 53.1497483,51.323441 54.3572401,51.0471642 L54.3572401,21.805754 L56.0166154,21.805754 Z M39.2307855,29.0122381 L44.5491469,29.0122381 L44.5491469,20.5603914 L47.6049161,20.824495 C48.1578648,20.8753046 48.4346037,21.0388477 48.4346037,21.3151245 C48.4346037,21.49137 48.2462308,21.7554737 47.8689557,22.1074355 L47.8689557,29.0122381 L52.056021,29.0122381 L52.056021,32.1814821 L48.3594662,32.1814821 C49.6415664,36.0054281 51.1882354,39.1238626 52.9989441,41.5389028 L50.7358228,43.9915208 C49.6796643,41.979252 48.7235128,39.8161424 47.8689557,37.5016627 L47.8689557,54.367249 L44.5491469,54.367249 L44.5491469,38.4448145 C44.3729441,39.1746721 44.1718718,39.8410179 43.9459301,40.4449102 C43.1659814,43.2119122 42.260627,45.739686 41.2298671,48.0287609 L37.9105874,45.8026687 C39.2932238,43.7401195 40.475317,41.5267297 41.456338,39.1619697 C42.1352214,37.6022232 42.9522098,35.2755704 43.9078322,32.1814821 L39.2307855,32.1814821 L39.2307855,29.0122381 Z" id="Fill-31" fill="#5D8AB4" mask="url(#mask-6)"></path>
                <path d="M126.812677,23.3149027 C127.114285,23.3149027 127.416423,23.4154632 127.718031,23.6165842 L129.603877,24.7862618 C129.855218,24.9371026 129.981152,25.101175 129.981152,25.2768913 C129.981152,25.6039776 129.666845,25.9559394 129.038229,26.333306 L121.833493,33.6906309 L121.833493,38.1052375 L129.830348,38.1052375 L129.830348,41.2750108 L121.833493,41.2750108 L121.833493,51.4998982 C121.833493,53.0591155 121.305414,54.1912152 120.249255,54.8956681 C119.36877,55.6504012 117.180786,56.0277678 113.685304,56.0277678 L112.327537,52.5938908 L116.174896,52.5938908 C117.533192,52.5938908 118.262344,52.0402787 118.36288,50.934113 L118.36288,41.2750108 L110.21522,41.2750108 L110.21522,38.1052375 L118.36288,38.1052375 L118.36288,31.4645386 L119.683078,31.6159086 L123.94581,26.6349875 L111.723791,26.6349875 L111.723791,23.6165842 L125.869754,23.6165842 L126.812677,23.3149027 Z M104.820663,42.6706849 C105.750887,40.0047727 106.442999,36.2697435 106.895411,31.4645386 L102.369169,31.4645386 C102.067031,33.1756552 101.714626,34.8227306 101.31301,36.4073526 C100.960605,37.7411026 100.545232,39.073794 100.06795,40.4070148 C101.802992,41.0860629 103.387229,41.840796 104.820663,42.6706849 L104.820663,42.6706849 Z M100.407656,20.7114438 L103.802602,21.1263883 C104.229616,21.1771978 104.443917,21.3529141 104.443917,21.6545956 C104.443917,21.9065262 104.204218,22.2457856 103.726936,22.6734324 C103.475595,24.635421 103.198856,26.5095515 102.897248,28.2952945 L110.366024,28.2952945 C110.013619,34.8603084 109.334735,39.740669 108.328845,42.9347886 C108.127243,43.5138055 107.9267,44.0668883 107.725628,44.5950956 C109.309866,45.7774756 110.793567,47.0731185 112.176733,48.4814949 L109.573905,51.0849538 C108.366943,49.7771378 107.235117,48.6450381 106.178959,47.6891839 C105.524945,48.7964081 104.783094,49.751733 103.953407,50.5567464 C102.494574,52.1159637 100.306591,53.750866 97.3899846,55.4614533 L94.6358238,52.8579944 C97.3264881,51.5755832 99.3260988,50.2926428 100.633598,49.0097023 C101.740024,48.0538481 102.670777,46.9222777 103.425327,45.6139324 C102.117299,44.7083585 100.658467,43.9287499 99.0493599,43.2745773 C98.6720848,44.1298709 98.3075091,44.9724622 97.9556326,45.8023511 L94.7871571,44.5950956 C96.244931,41.5264121 97.3016186,38.7218322 97.9556326,36.1813561 C98.3329077,34.7978551 98.6847841,33.2259354 99.0117911,31.4645386 L95.0887655,31.4645386 L95.0887655,28.2952945 L99.5398704,28.2952945 C99.8663483,26.0067489 100.155786,23.4789751 100.407656,20.7114438 L100.407656,20.7114438 Z" id="Fill-33" fill="#5D8AB4" mask="url(#mask-6)"></path>
                <path d="M172.720014,34.4077332 L174.794762,34.1436295 C175.347711,38.7466548 176.554674,42.3186702 178.416179,44.8591464 C178.541585,45.0607967 178.666991,45.2365129 178.793455,45.3873537 C179.321534,44.4569043 179.748548,43.3877873 180.075555,42.1805318 C180.980909,39.4638101 181.433851,35.4773795 181.433851,30.2196523 L181.433851,29.5024971 L174.832331,29.5024971 C174.681527,29.9809534 174.530723,30.408071 174.379918,30.7854375 C173.926977,31.942942 173.373499,33.1501975 172.720014,34.4077332 L172.720014,34.4077332 Z M173.549702,20.5605501 L177.020315,21.2020204 C177.447858,21.3279857 177.661629,21.5291067 177.661629,21.8053835 C177.661629,22.057314 177.309224,22.2960129 176.605471,22.5225387 C176.353601,23.9060397 176.077392,25.1132952 175.775254,26.1448344 L187.469193,26.1448344 L187.469193,29.5024971 L184.866366,29.5024971 L184.866366,30.2196523 C184.866366,35.4519748 184.476392,39.5389658 183.696972,42.4822133 C183.219161,44.6204475 182.427042,46.506751 181.320615,48.1416533 C183.206462,49.9273964 185.545249,51.6506861 188.336979,53.3109931 L185.658485,56.1785556 C183.042958,54.4425635 180.854974,52.681696 179.095063,50.8959529 C177.007615,53.0336578 174.10265,54.7071965 170.381226,55.9144519 L167.815967,52.5938378 C171.537921,51.8142292 174.429657,50.4058527 176.492235,48.3681791 C176.592242,48.2924941 176.667909,48.2173383 176.718706,48.1416533 C176.316033,47.613446 175.938758,47.0730655 175.586881,46.5194534 C173.876709,43.9535725 172.669217,40.3312768 171.965464,35.6530958 C171.462254,36.5337942 170.896606,37.401261 170.267991,38.2560253 L167.514359,35.9923552 C169.325068,33.6784048 170.682834,31.276067 171.588189,28.7858711 C172.291942,27.0752838 172.946485,24.3336866 173.549702,20.5605501 L173.549702,20.5605501 Z M154.387515,23.6165313 L157.442755,23.8430571 C158.046501,23.8938666 158.34811,24.0568805 158.34811,24.3336866 C158.34811,24.5099321 158.134338,24.7740358 157.706795,25.1259976 L157.706795,43.1988393 C159.743974,42.4949157 161.717657,41.7153071 163.628902,40.8594842 L163.628902,20.4472873 L166.797907,20.673813 C167.375725,20.7240933 167.665163,20.8876365 167.665163,21.1644425 C167.665163,21.3655635 167.463562,21.6799475 167.061946,22.1075943 L167.061946,56.0277148 L163.628902,56.0277148 L163.628902,43.9535725 C161.340382,45.1110769 158.259744,46.5194534 154.387515,48.1797605 C154.161044,48.7079678 153.921874,48.9720715 153.670534,48.9720715 C153.393795,48.9720715 153.230291,48.7582481 153.180023,48.3306012 L152.312767,44.7083056 C153.041918,44.5574648 153.732972,44.3939217 154.387515,44.2176761 L154.387515,23.6165313 Z" id="Fill-34" fill="#5D8AB4" mask="url(#mask-6)"></path>
                <path d="M213.98745,51.3488457 L218.099378,51.3488457 L218.099378,44.4440432 L213.98745,44.4440432 L213.98745,51.3488457 Z M206.782713,51.3488457 L210.66817,51.3488457 L210.66817,44.4440432 L206.782713,44.4440432 L206.782713,51.3488457 Z M199.653114,51.3488457 L203.462904,51.3488457 L203.462904,44.4440432 L199.653114,44.4440432 L199.653114,51.3488457 Z M201.313019,20.8626022 C203.098329,22.52238 204.657168,24.1324067 205.990594,25.6921533 L203.123727,27.3519311 C201.639497,25.7170288 199.980121,24.057251 198.144543,22.3715392 L201.313019,20.8626022 Z M216.741082,20.7112321 L219.457145,22.1450134 C219.859289,22.3212589 220.06089,22.4975045 220.06089,22.6732207 C220.06089,22.9754315 219.796851,23.2395352 219.268772,23.466061 L214.930373,28.4464529 L223.795014,28.4464529 L223.795014,31.6156969 L193.957478,31.6156969 L193.957478,28.4464529 L210.781406,28.4464529 L216.741082,20.7112321 Z M202.822119,32.3323229 L206.10383,33.1627411 C206.455706,33.2378968 206.631909,33.3643914 206.631909,33.5401076 C206.631909,33.7163532 206.568942,33.8671939 206.443007,33.99263 C205.965196,34.0937197 205.462515,34.5086642 204.934436,35.2379926 C203.375068,36.9988601 201.752732,38.4829216 200.068487,39.6901771 C199.212872,40.2183844 198.295347,40.7465918 197.314326,41.2747991 L219.646047,41.2747991 C218.765033,40.7719965 217.986142,40.2691939 217.307259,39.7653328 C215.320347,38.3569563 213.308566,36.3827946 211.271387,33.8417892 L213.72341,32.1814821 C215.810858,34.5208373 217.910476,36.2568294 220.022793,37.3883998 C221.682697,38.3696587 223.996086,39.3503884 226.964019,40.3316473 L223.64421,43.1992098 C222.86479,42.896999 222.173207,42.5831443 221.569462,42.2555288 L221.569462,51.3488457 L225.945429,51.3488457 L225.945429,54.5180898 L191.807063,54.5180898 L191.807063,51.3488457 L196.18303,51.3488457 L196.18303,41.8405843 C195.302545,42.2936359 194.397191,42.7085804 193.466967,43.0859469 L190.939807,40.4824881 C193.404,39.6774747 195.70469,38.5580774 197.842406,37.1242961 C199.476911,36.0678814 201.136816,34.470557 202.822119,32.3323229 L202.822119,32.3323229 Z" id="Fill-35" fill="#5D8AB4" mask="url(#mask-6)"></path>
            </g>
        </g>
    </g>
</svg>