<?xml version="1.0" encoding="UTF-8" standalone="no"?>
<svg width="123px" height="44px" viewBox="0 0 123 44" version="1.1" xmlns="http://www.w3.org/2000/svg" xmlns:xlink="http://www.w3.org/1999/xlink">
    <!-- Generator: Sketch 3.6.1 (26313) - http://www.bohemiancoding.com/sketch -->
    <title>morgan_logo_en</title>
    <desc>Created with Sketch.</desc>
    <defs>
        <path id="path-1" d="M0,0.003 L122.589414,0.003 L122.589414,44 L0,44"></path>
        <path id="path-3" d="M0,0.003 L122.589414,0.003 L122.589414,44 L0,44"></path>
        <path id="path-5" d="M0,0.003 L122.589414,0.003 L122.589414,44 L0,44"></path>
    </defs>
    <g id="Page-1" stroke="none" stroke-width="1" fill="none" fill-rule="evenodd">
        <g id="JPMorgan-Part-1" transform="translate(-1146.000000, -3402.000000)">
            <g id="footer" transform="translate(0.000000, 3377.000000)">
                <g id="bottom">
                    <g id="morgan_logo_en" transform="translate(1146.000000, 25.000000)">
                        <g id="Group-3">
                            <mask id="mask-2" fill="white">
                                <use xlink:href="#path-1"></use>
                            </mask>
                            <g id="Clip-2"></g>
                            <path d="M12.4637114,0.002925 L5.20249911,0.002925 L5.20249911,0.699175 L7.51095784,0.699175 L7.51095784,14.171175 C7.51095784,18.223925 6.50179167,19.360175 4.26580533,19.360175 C2.8573305,19.360175 2.62475571,18.166675 2.62475571,17.541425 C2.62475571,16.077925 2.55204649,15.178175 1.35104164,15.178175 C0.146721062,15.178175 0.000118418936,16.538425 0.000118418936,16.953175 C0.000118418936,18.804925 0.738578903,20.229425 4.0417567,20.229425 C7.9697128,20.229425 10.06857,18.752675 10.06857,13.816675 L10.06857,0.688675 L12.4637114,0.699175 L12.4637114,0.002925" id="Fill-1" fill="#592F14" mask="url(#mask-2)"></path>
                        </g>
                        <path d="M12.9550789,17.099725 C12.5462968,17.099725 12.2144869,17.249225 11.941176,17.555475 C11.6555495,17.869475 11.5226835,18.237475 11.5226835,18.691725 C11.5226835,19.134225 11.6624178,19.494975 11.941176,19.795475 C12.2305919,20.104975 12.5602702,20.255725 12.9550789,20.255725 C13.3536771,20.255725 13.6944868,20.104975 13.9727713,19.795475 C14.2576872,19.494975 14.3929217,19.134225 14.3929217,18.691725 C14.3929217,18.234475 14.2576872,17.863225 13.9727713,17.552475 C13.6992235,17.249225 13.3624401,17.099725 12.9550789,17.099725" id="Fill-4" fill="#592F14"></path>
                        <path d="M28.5287795,17.099725 C28.1247341,17.099725 27.7907927,17.249225 27.517245,17.555475 C27.232329,17.869475 27.1027787,18.237475 27.1027787,18.691725 C27.1027787,19.134225 27.232329,19.494975 27.517245,19.795475 C27.8031083,20.104975 28.1387075,20.255725 28.5287795,20.255725 C28.9240619,20.255725 29.2667663,20.104975 29.5502613,19.795475 C29.8294931,19.494975 29.9739642,19.134225 29.9739642,18.691725 C29.9739642,18.234475 29.8294931,17.863225 29.5561822,17.552475 C29.2691347,17.249225 28.9344828,17.099725 28.5287795,17.099725" id="Fill-6" fill="#592F14"></path>
                        <g id="Group-10">
                            <mask id="mask-4" fill="white">
                                <use xlink:href="#path-3"></use>
                            </mask>
                            <g id="Clip-9"></g>
                            <path d="M24.0112866,0.002925 L16.8938349,0.002925 L16.8938349,0.699175 L18.9829817,0.699175 L18.9829817,16.070675 C18.9829817,17.281175 18.9204565,17.595175 18.8029849,17.938175 C18.6701189,18.331175 18.3738347,18.641925 17.9404214,18.841425 C17.6223482,18.990925 17.1351727,19.069675 16.4881316,19.102175 L16.4881316,19.730925 L24.1484157,19.730925 L24.1484157,19.102175 C23.496401,19.077175 23.0006994,19.005675 22.6722053,18.866175 C22.2184239,18.673925 21.920245,18.370175 21.7734055,17.970425 C21.6502498,17.623175 21.582751,17.320175 21.582751,16.712675 L21.582751,11.450425 L23.4795856,11.434925 C28.9813293,11.434925 30.5345121,9.007425 30.5345121,5.698675 C30.5345121,2.352175 29.5791081,0.002925 24.0112866,0.002925 M23.0369356,10.686675 L21.582751,10.686675 L21.582751,0.781175 C21.582751,0.781175 22.894596,0.767675 22.9002801,0.767675 C27.1477305,0.767675 28.0744771,2.716175 28.0744771,5.877175 C28.0744771,9.058425 26.4099805,10.686675 23.0369356,10.686675" id="Fill-8" fill="#592F14" mask="url(#mask-4)"></path>
                        </g>
                        <path d="M52.4258155,17.888175 C52.3201858,17.541425 52.2763708,17.105925 52.2763708,16.545675 L52.2763708,0.699175 C52.2763708,0.699175 54.1426532,0.681175 54.1161274,0.681175 C54.1002593,0.681175 54.1161274,0.052675 54.1161274,0.052675 L49.6109974,0.052675 C49.5427881,0.238675 44.2113308,15.073925 44.2113308,15.073925 C44.1893048,15.131425 44.1407531,15.167925 44.0879382,15.167925 C44.0318077,15.167925 43.9799402,15.131425 43.9609931,15.073925 C43.9609931,15.073925 38.2839893,0.238675 38.2176747,0.052675 L33.2031065,0.052675 L33.2031065,0.684425 L35.3756203,0.688675 L35.3756203,15.949175 C35.3756203,15.949175 35.3310948,17.335675 35.3310948,17.348925 C35.2934375,17.709675 35.1915973,18.031425 35.0329159,18.298675 C34.8571822,18.590675 34.5916869,18.798425 34.2328775,18.934925 C33.9898819,19.027425 33.6374671,19.080425 33.2031065,19.102175 L33.2031065,19.730925 L38.1733861,19.730925 L38.1733861,19.102175 C37.7518146,19.080425 37.5651864,19.034675 37.3193487,18.945175 C36.9619603,18.817175 36.6836758,18.606425 36.5060474,18.313425 C36.3388399,18.045175 36.2360523,17.728175 36.1988687,17.348925 C36.1988687,17.348925 36.1481854,15.956425 36.1481854,15.949175 L36.1481854,2.762925 L36.4402065,2.762925 C36.4402065,2.762925 42.8701179,19.551675 42.9383272,19.730925 L43.4721598,19.730925 L49.5598404,2.955175 L49.7175744,2.955175 L49.7175744,16.545675 C49.7175744,17.127675 49.6593123,17.577425 49.5598404,17.930925 C49.4416583,18.331175 49.180663,18.641925 48.8043276,18.848425 C48.5201222,18.990925 48.0983139,19.069675 47.5403239,19.099175 L47.5403239,19.730925 L54.4822787,19.730925 L54.4822787,19.099175 C53.9247624,19.066675 53.4956122,18.983675 53.2052489,18.826675 C52.7993088,18.612425 52.5432871,18.298675 52.4258155,17.888175" id="Fill-11" fill="#592F14"></path>
                        <path d="M61.7654222,5.283925 C58.0574885,5.283925 55.7357669,8.032675 55.7357669,12.821175 C55.7357669,19.845175 60.6262321,20.302675 61.6830027,20.302675 C63.7749916,20.302675 67.7368155,18.848425 67.7368155,12.692175 C67.7368155,7.890175 65.2104659,5.283925 61.7654222,5.283925 M61.7123706,19.440925 C58.9321308,19.440925 58.5003753,17.880925 58.5003753,12.903425 C58.5003753,9.046925 58.7166083,6.154925 61.7197125,6.154925 C64.9608388,6.154925 64.9776543,9.140675 64.9776543,12.656925 C64.9776543,17.696175 64.205326,19.440925 61.7123706,19.440925" id="Fill-13" fill="#592F14"></path>
                        <path d="M77.425166,5.497925 C75.2173634,5.497925 74.5276915,6.950675 73.9097815,8.447175 C73.9097815,8.447175 73.7563105,8.439925 73.7378372,8.439925 C73.7139165,8.447175 73.4185797,6.273425 73.3091606,5.634175 C72.4406762,5.634175 69.0193163,5.630175 69.0193163,5.630175 L69.0193163,6.358675 L71.3322749,6.358675 C71.3322749,6.358675 71.326354,8.573175 71.326354,9.361675 L71.326354,16.099675 C71.326354,17.070175 71.2316188,17.737425 71.0409643,18.145175 C70.8034159,18.631175 70.2710044,18.866175 69.3930464,18.866175 L69.0193163,18.866175 L69.0193163,19.730925 L76.2016616,19.730925 L76.2016616,18.866175 L75.8120633,18.866175 C74.8720537,18.866175 74.4651663,18.641925 74.2188549,18.188675 C73.9959905,17.788675 73.8794662,17.102925 73.8794662,16.099675 L73.8794662,11.044175 C73.8794662,9.342925 75.0342877,7.397675 76.4074737,7.397675 C77.8547899,7.397675 77.815238,9.872175 79.4477614,8.879675 C80.3356666,8.332675 80.1779326,5.497925 77.425166,5.497925" id="Fill-15" fill="#592F14"></path>
                        <path d="M106.057112,18.287475 C105.288336,18.287475 105.046999,17.809225 104.981868,17.013225 C104.981868,17.013225 104.940422,15.209225 104.940422,15.205975 L104.940422,9.304475 C104.940422,8.032475 104.75853,7.161725 104.091121,6.414475 C103.417554,5.669225 102.14384,5.283975 100.286084,5.283975 C98.5128785,5.283975 97.1865864,5.647475 96.3469962,6.365725 C95.5270635,7.069225 95.2030693,7.711725 95.2030693,8.639475 C95.2030693,9.061475 95.3096463,9.367975 95.5223267,9.572725 C95.7494542,9.786725 96.0045286,9.885725 96.304839,9.885725 C97.0267209,9.885725 97.4272137,9.483225 97.5776058,8.429725 C97.6863144,7.646975 97.8324433,7.200225 98.1770424,6.797225 C98.5465095,6.365725 99.1144467,6.154975 99.8851172,6.154975 C100.79268,6.154975 101.4338,6.425975 101.796162,6.965225 C102.128919,7.475725 102.295179,8.172975 102.295179,9.025975 L102.295179,11.393475 C99.9857732,11.625225 94.5555545,12.114725 94.7976028,16.737725 C94.8842855,18.545225 96.3081548,20.137225 98.1576217,20.137225 C100.197269,20.137225 101.49372,18.841225 102.374046,17.805225 C102.516149,18.788225 103.332766,19.966725 104.81774,19.966725 C106.495262,19.966725 107.48856,19.047975 107.599874,16.752475 L107.168355,16.752475 C107.062726,17.747975 106.502841,18.287475 106.057112,18.287475 L106.057112,18.287475 Z M102.295179,16.802225 C102.295179,16.841975 102.28239,16.881475 102.257522,16.905225 C102.257522,16.905225 102.191208,16.966475 102.191208,16.970475 C100.96415,18.209475 100.025088,18.663475 99.3257061,18.663475 C97.5776058,18.663475 97.309979,17.023475 97.309979,16.195475 C97.309979,13.571475 100.527895,12.257975 102.295179,12.257975 L102.295179,16.802225 Z" id="Fill-17" fill="#592F14"></path>
                        <path d="M120.780612,18.191775 C120.543537,17.788525 120.342462,17.105775 120.342462,16.092775 L120.378935,9.700775 C120.378935,8.780025 120.269042,7.985775 119.956653,7.336275 C119.635975,6.708525 119.200667,6.229525 118.652387,5.912775 C118.100318,5.598025 117.452093,5.441025 116.753658,5.441025 C114.229203,5.441025 113.211037,7.168025 112.658968,8.189525 L112.433261,8.176025 L111.982796,5.609275 L108.07805,5.598025 L108.07805,6.336775 C108.814615,6.368775 110.035278,6.383775 110.035278,6.383775 L110.035278,16.084275 C110.035278,16.834775 109.980095,17.377025 109.882754,17.737525 C109.768598,18.166775 109.522287,18.473025 109.158978,18.644775 C108.923798,18.752775 108.551489,18.820275 108.07805,18.841275 L108.07805,19.730775 L114.284386,19.730775 L114.284386,18.837025 C113.662924,18.788275 113.243484,18.595025 113.018488,18.230025 C112.778097,17.845775 112.658968,17.198025 112.658968,16.242275 L112.658968,12.510525 C112.658968,10.954775 112.653994,9.454025 113.130512,8.511525 C113.640661,7.508775 114.584933,6.944525 115.634836,6.944525 C116.584082,6.944525 117.072442,7.283275 117.389567,7.957775 C117.645352,8.497275 117.811612,10.137025 117.811612,11.246775 L117.778218,15.853525 C117.778218,16.630775 117.867743,17.205525 117.811612,17.563275 C117.741508,17.994025 117.564354,18.313275 117.264043,18.537775 C117.050652,18.702025 116.71979,18.791525 116.277614,18.826775 L116.277614,19.730775 L122.264401,19.730775 L122.264401,18.841275 C121.497994,18.791525 121.008213,18.580525 120.780612,18.191775" id="Fill-19" fill="#592F14"></path>
                        <path d="M92.6651383,4.715575 C92.2966186,4.840075 92.0488862,5.212075 91.9269147,5.836575 C91.8146535,6.405325 91.6273148,6.740075 91.3618195,6.833325 C91.1110082,6.922575 90.8173292,6.896825 90.4779406,6.765825 C89.8230839,6.094825 88.5915269,5.283825 86.4216183,5.283825 C82.9197336,5.283825 81.3729454,8.069075 81.3729454,10.610825 C81.3729454,13.585825 82.4053217,15.027325 84.6567025,15.553325 C84.7983316,15.588575 84.7924106,15.760075 84.663334,15.785075 C82.7477893,16.217075 81.0510828,16.845075 81.0510828,18.888075 C81.0510828,20.120325 81.6834399,20.790825 82.483715,21.161825 C83.3754096,21.566075 84.6315977,21.780075 86.2129642,21.800825 C87.5852028,21.822825 88.5647642,21.876825 89.1966477,21.966075 C89.8889248,22.051325 90.4293888,22.266325 90.8232502,22.595075 C91.2405585,22.950825 91.4579757,23.486325 91.4579757,24.172325 C91.4579757,25.108325 91.0030101,25.872575 90.1072893,26.433575 C89.2674622,26.954325 88.1247195,27.225575 86.7017975,27.225575 C85.4853982,27.225575 84.4764689,27.075825 83.5743534,26.453325 C82.9069443,25.990075 82.7899464,25.082825 82.9197336,24.425825 C83.0485734,23.767825 82.8302089,23.068575 82.1493,22.936825 C81.7777014,22.866075 81.2983415,23.090325 81.074056,23.486325 C80.8789016,23.836575 80.7983768,24.265825 80.7983768,24.764825 C80.7983768,26.439575 81.9603034,27.225575 82.8441823,27.521575 C84.1974739,27.986325 85.0924842,28.093325 86.3365935,28.093325 C87.9890114,28.093325 89.3131719,27.810325 90.2747337,27.268075 C91.2258746,26.725575 91.8873627,26.064575 92.2459353,25.307075 C92.6324547,24.543075 92.8086621,23.761825 92.8086621,23.011575 C92.8086621,21.991325 92.611613,21.173325 92.2160937,20.562075 C90.9736422,18.644825 89.1966477,18.881075 85.2047454,18.673825 C83.2790166,18.673825 82.9190231,18.287575 82.9190231,17.630825 C82.9190231,16.658825 83.6233789,16.277575 86.4076449,15.799575 C89.1383856,15.327575 91.6865242,14.206325 91.6865242,10.467325 C91.6865242,9.397075 91.4681597,8.472075 91.1894015,7.822825 C91.7618387,7.965075 92.2859609,7.965075 92.7724259,7.793575 C93.3126531,7.604575 93.6809359,7.289325 93.8867481,6.855325 C94.0923233,6.426075 94.1392172,6.012325 94.0295613,5.612575 C93.7974602,4.776825 93.3410736,4.476325 92.6651383,4.715575 M86.4865119,14.995325 C84.8506727,14.995325 83.9191894,14.324825 83.9191894,10.610825 C83.9191894,7.991325 84.7384116,6.037325 86.4865119,6.037325 C88.5223703,6.037325 89.1208596,7.812325 89.1208596,10.553825 C89.1208596,14.477825 88.0174319,14.995325 86.4865119,14.995325" id="Fill-21" fill="#592F14"></path>
                        <path d="M2.4615981,40.88355 L1.10759599,40.88355 L4.39064257,29.64255 L5.91327325,29.64255 L9.13568933,40.88355 L7.51713931,40.88355 L6.92836036,38.65855 L3.08353435,38.65855 L2.4615981,40.88355 L2.4615981,40.88355 Z M5.4464658,33.2028 L5.07202513,30.96755 L4.6272436,33.2028 L3.42694927,37.4828 L6.6015241,37.4828 L5.4464658,33.2028 Z" id="Fill-23" fill="#7C8084"></path>
                        <path d="M12.5792409,41.118175 C12.0184089,41.118175 11.5416542,41.054175 11.1560822,40.929425 C10.7605629,40.801175 10.449358,40.679675 10.2118096,40.547925 L10.3830433,39.373425 C10.6513807,39.498175 10.9606909,39.623175 11.3088426,39.737425 C11.6555732,39.854675 12.0307244,39.913175 12.4402171,39.913175 C12.9352083,39.913175 13.3186488,39.811925 13.5839072,39.601175 C13.8472709,39.390425 13.9801369,39.021925 13.9801369,38.494675 C13.9801369,38.236925 13.9498217,38.029675 13.9031646,37.883425 C13.8472709,37.719175 13.7558515,37.594175 13.6173013,37.487425 C13.4839616,37.383425 13.3001754,37.291175 13.0621534,37.201675 C12.8212892,37.116175 12.5169526,37.022675 12.1373015,36.915925 C11.8478856,36.822175 11.5819167,36.713425 11.3434209,36.597925 C11.1013726,36.483675 10.8943763,36.311925 10.7205373,36.109675 C10.5438563,35.908925 10.4041219,35.666425 10.30465,35.363425 C10.208257,35.073175 10.1561527,34.724175 10.1561527,34.305675 C10.1561527,33.395175 10.3974905,32.720675 10.8870343,32.291425 C11.3680521,31.859925 12.0184089,31.649175 12.8281575,31.649175 C13.3250434,31.649175 13.7558515,31.698925 14.1250817,31.806175 C14.495733,31.906925 14.7955697,32.031425 15.0373812,32.163925 L14.8149904,33.337675 C14.5217852,33.216175 14.2233694,33.123925 13.9436639,33.044925 C13.6530638,32.974425 13.3113068,32.938675 12.919577,32.938675 C12.4333488,32.938675 12.0681448,33.016925 11.8322543,33.198925 C11.5937585,33.370175 11.4743923,33.708925 11.4743923,34.234925 C11.4743923,34.474175 11.5037602,34.666925 11.5632065,34.809675 C11.6278632,34.951675 11.7278088,35.073175 11.8656484,35.174425 C11.999225,35.273925 12.1751955,35.355925 12.3966389,35.430675 C12.6168982,35.505925 12.8821566,35.583925 13.1914668,35.681175 C13.5431711,35.787425 13.8534287,35.905675 14.1250817,36.040925 C14.3874981,36.184675 14.6108362,36.355925 14.7955697,36.577175 C14.9739087,36.787175 15.1103273,37.041175 15.2102728,37.341175 C15.3000344,37.636925 15.3497704,38.000925 15.3497704,38.430675 C15.3497704,39.214425 15.120985,39.864675 14.6596248,40.376425 C14.2072645,40.872175 13.5147505,41.118175 12.5792409,41.118175" id="Fill-25" fill="#7C8084"></path>
                        <path d="M18.9238907,41.118175 C18.3637691,41.118175 17.8934091,41.054175 17.4974162,40.929425 C17.1066337,40.801175 16.7970866,40.679675 16.5559856,40.547925 L16.7274563,39.373425 C16.9993461,39.498175 17.3069985,39.623175 17.6570449,39.737425 C17.9971441,39.854675 18.3763215,39.913175 18.7839195,39.913175 C19.2803317,39.913175 19.6644827,39.811925 19.9295043,39.601175 C20.1971311,39.390425 20.3299971,39.021925 20.3299971,38.494675 C20.3299971,38.236925 20.2975503,38.029675 20.2475775,37.883425 C20.1997363,37.719175 20.1040538,37.594175 19.9702404,37.487425 C19.8286113,37.383425 19.6438778,37.291175 19.4034874,37.201675 C19.1668863,37.116175 18.8578129,37.022675 18.4836091,36.915925 C18.1941932,36.822175 17.9270401,36.713425 17.6918601,36.597925 C17.4517065,36.483675 17.2428155,36.311925 17.0661344,36.109675 C16.8911112,35.908925 16.748298,35.666425 16.6500103,35.363425 C16.5503015,35.073175 16.505776,34.724175 16.505776,34.305675 C16.505776,33.395175 16.7449823,32.720675 17.2297894,32.291425 C17.7148333,31.859925 18.3637691,31.649175 19.1756493,31.649175 C19.6694563,31.649175 20.1040538,31.698925 20.4692578,31.806175 C20.8399091,31.906925 21.143772,32.031425 21.3810836,32.163925 L21.1636664,33.337675 C20.8581456,33.216175 20.5692034,33.123925 20.2866558,33.044925 C19.9977136,32.974425 19.6606933,32.938675 19.2656477,32.938675 C18.7768144,32.938675 18.4170576,33.016925 18.1747725,33.198925 C17.940303,33.370175 17.8185683,33.708925 17.8185683,34.234925 C17.8185683,34.474175 17.8493573,34.666925 17.9133035,34.809675 C17.9732235,34.951675 18.0750637,35.073175 18.2124297,35.174425 C18.3410327,35.273925 18.5236347,35.355925 18.7434202,35.430675 C18.9589427,35.505925 19.2237274,35.583925 19.5408533,35.681175 C19.8935049,35.787425 20.2018678,35.905675 20.4692578,36.040925 C20.7371214,36.184675 20.956907,36.355925 21.1416405,36.577175 C21.3185584,36.787175 21.4604243,37.041175 21.5539752,37.341175 C21.6503683,37.636925 21.6932359,38.000925 21.6932359,38.430675 C21.6932359,39.214425 21.4675294,39.864675 21.0080639,40.376425 C20.5530984,40.872175 19.8605845,41.118175 18.9238907,41.118175" id="Fill-27" fill="#7C8084"></path>
                        <path d="M24.543485,38.25855 C24.6244835,38.6368 24.7400604,38.9488 24.902768,39.1763 C25.0676072,39.41205 25.2701036,39.5688 25.5199675,39.67705 C25.7693578,39.7758 26.0694314,39.82655 26.4064517,39.82655 C26.7882343,39.82655 27.1510699,39.7758 27.495669,39.6553 C27.8400313,39.54705 28.1855778,39.4013 28.5382293,39.2403 L28.7679621,40.4263 C28.5342031,40.57605 28.1917355,40.72555 27.7505066,40.88355 C27.3078566,41.04005 26.8303915,41.11805 26.3100586,41.11805 C25.1888682,41.11805 24.3492779,40.7223 23.7730514,39.9263 C23.2058247,39.13755 22.9199614,37.9488 22.9199614,36.3663 C22.9199614,34.75205 23.2091404,33.56755 23.8033666,32.79555 C24.3975928,32.0313 25.1791578,31.6493 26.1499562,31.6493 C27.1643328,31.6493 27.9068196,32.0243 28.3759954,32.7778 C28.8416187,33.53555 29.0706409,34.5588 29.0706409,35.8628 L29.0706409,36.84805 L24.4113294,36.84805 C24.423645,37.41255 24.4634338,37.8873 24.543485,38.25855 L24.543485,38.25855 Z M27.6849025,35.7198 L27.6849025,35.44205 C27.6849025,34.4778 27.5612731,33.80255 27.3159091,33.4053 C27.067703,33.00955 26.6866309,32.81705 26.1639297,32.81705 C25.904829,32.81705 25.6713069,32.86005 25.4598107,32.94905 C25.2485513,33.03855 25.0709229,33.18105 24.926215,33.39905 C24.7803228,33.6133 24.6671143,33.9093 24.5806685,34.2833 C24.4904333,34.66005 24.4364342,35.1338 24.4113294,35.7198 L27.6849025,35.7198 Z" id="Fill-29" fill="#7C8084"></path>
                        <path d="M32.8404367,41.0791 C32.2211056,41.0791 31.7689821,40.8906 31.4888029,40.50835 C31.215492,40.12685 31.0790734,39.54385 31.0790734,38.7346 L31.0790734,32.99585 L30.1156169,32.99585 L30.1156169,31.82385 L31.1719138,31.82385 L31.8580332,29.3816 L32.5136004,29.3816 L32.5136004,31.82385 L34.2917791,31.82385 L34.2917791,32.99585 L32.5136004,32.99585 L32.5136004,39.08985 C32.5136004,39.39035 32.5661784,39.59385 32.667545,39.7051 C32.756596,39.81485 32.9593293,39.86485 33.247561,39.86485 L34.4116191,39.86485 L34.4923808,40.72235 C34.2825425,40.8121 34.0412047,40.8906 33.7674201,40.9731 C33.4874777,41.0401 33.1852726,41.0791 32.8404367,41.0791" id="Fill-31" fill="#7C8084"></path>
                        <path d="M39.7468895,29.64245 L41.8005107,29.64245 L43.6627669,37.10195 L44.0976012,40.20495 L44.5352776,37.10195 L46.4764008,29.64245 L48.6048628,29.64245 L48.6048628,40.88345 L47.0772585,40.88345 L47.0772585,35.2832 L47.354122,30.31395 L46.6464504,33.91695 L44.8315618,40.88345 L43.2033014,40.88345 L41.4682272,34.0207 L40.7984497,30.31395 L41.0641818,35.30195 L41.0641818,40.88345 L39.7468895,40.88345 L39.7468895,29.64245 Z" id="Fill-33" fill="#7C8084"></path>
                        <path d="M54.8129281,34.5879 C54.8129281,34.3564 54.7920864,34.1454 54.7511134,33.9449 C54.7113246,33.7494 54.6379049,33.5814 54.5377225,33.4374 C54.4432242,33.30565 54.3122528,33.1989 54.1445716,33.1134 C53.9797325,33.03865 53.7634995,32.9959 53.5053462,32.9959 C53.1354054,32.9959 52.7510176,33.05315 52.3514721,33.15915 C51.9640053,33.27465 51.5419602,33.4099 51.0959945,33.5814 L50.8802352,32.35165 C51.2371499,32.18115 51.6452216,32.0204 52.0869242,31.87165 C52.5364425,31.7209 53.0368809,31.64915 53.6045813,31.64915 C54.5318015,31.64915 55.2070263,31.92065 55.6191242,32.4669 C56.0319326,33.0169 56.2389289,33.9094 56.2389289,35.14515 L56.2389289,39.4014 C56.2389289,39.6479 56.275402,39.8119 56.3511901,39.88665 C56.4324255,39.97315 56.5574759,40.0114 56.7308412,40.0114 L57.0635984,40.0114 L57.1062292,40.78565 C57.0240465,40.8539 56.9068117,40.9189 56.7568933,40.9864 C56.6036592,41.05115 56.4212941,41.07915 56.1981928,41.07915 C56.0733792,41.07915 55.9504604,41.06965 55.8244626,41.05115 C55.6991754,41.03315 55.5786249,40.99365 55.4682585,40.9404 L54.8868215,39.9479 L54.2063863,40.82265 C54.0479418,40.90715 53.8551557,40.97615 53.6339492,41.03715 C53.4025586,41.08915 53.1429843,41.11815 52.8523842,41.11815 C52.5449686,41.11815 52.2475003,41.07565 51.9640053,40.9834 C51.6762473,40.89065 51.4287517,40.74415 51.2196239,40.52915 C51.0088382,40.32515 50.8416307,40.05415 50.7156329,39.7289 C50.5943719,39.4014 50.5332678,38.99415 50.5332678,38.5089 C50.5332678,38.0514 50.5834774,37.66215 50.6988174,37.33015 C50.8153417,36.9979 50.9896543,36.72665 51.225308,36.5054 C51.4656985,36.2909 51.7742982,36.10965 52.1413969,35.9849 C52.5129955,35.8519 52.9580139,35.7594 53.4776362,35.6914 L54.8129281,35.52315 L54.8129281,34.5879 L54.8129281,34.5879 Z M54.8129281,36.50215 L53.5740292,36.6729 C52.9852502,36.74115 52.557521,36.90265 52.301973,37.13815 C52.0445302,37.3804 51.9142694,37.79365 51.9142694,38.38715 L51.9142694,38.5269 C51.9142694,39.0409 52.0291358,39.41515 52.2536581,39.6479 C52.4833908,39.87265 52.8287004,39.99415 53.295271,39.99415 C53.6858167,39.99415 54.0050741,39.91315 54.2426225,39.76965 C54.4754341,39.61865 54.6715359,39.4369 54.8129281,39.2479 L54.8129281,36.50215 Z" id="Fill-35" fill="#7C8084"></path>
                        <path d="M60.8164603,32.009775 C60.9907729,31.917525 61.2044007,31.831275 61.4424227,31.757275 C61.6866026,31.681775 61.9696239,31.649275 62.2938549,31.649275 C62.9731059,31.649275 63.5097805,31.871775 63.897721,32.316525 C64.2854246,32.770525 64.480579,33.502025 64.480579,34.516025 L64.480579,40.883525 L63.0448678,40.883525 L63.0448678,34.305775 C63.0448678,33.784775 62.9375802,33.427275 62.7225314,33.234775 C62.5046406,33.038525 62.2111985,32.938775 61.8493102,32.938775 C61.4928692,32.938775 61.1826116,32.999275 60.9270635,33.113275 C60.6660682,33.242525 60.3892047,33.402275 60.0917364,33.613275 L60.0917364,40.883525 L58.6531831,40.883525 L58.6531831,31.824025 L59.5247465,31.824025 L60.0538423,32.974275 L60.8164603,32.009775" id="Fill-37" fill="#7C8084"></path>
                        <path d="M70.4944136,34.5879 C70.4944136,34.3564 70.4714403,34.1454 70.4304673,33.9449 C70.387126,33.7494 70.3174957,33.5814 70.2177869,33.4374 C70.1211571,33.30565 69.988291,33.1989 69.8215572,33.1134 C69.658139,33.03865 69.4433271,32.9959 69.184937,32.9959 C68.8112068,32.9959 68.4280031,33.05315 68.0360365,33.15915 C67.6400435,33.27465 67.2241562,33.4099 66.7753485,33.5814 L66.556984,32.35165 C66.9219511,32.18115 67.3243387,32.0204 67.7700675,31.87165 C68.2157964,31.7209 68.7181295,31.64915 69.2796721,31.64915 C70.2149449,31.64915 70.8894591,31.92065 71.2963466,32.4669 C71.7115234,33.0169 71.9133093,33.9094 71.9133093,35.14515 L71.9133093,39.4014 C71.9133093,39.6479 71.9533349,39.8119 72.0343334,39.88665 C72.109411,39.97315 72.2370666,40.0114 72.410432,40.0114 L72.7372682,40.0114 L72.7884252,40.78565 C72.7000847,40.8539 72.585692,40.9189 72.4319842,40.9864 C72.2886973,41.05115 72.0975691,41.07915 71.8808625,41.07915 C71.7510753,41.07915 71.6319459,41.06965 71.5038166,41.05115 C71.3823188,41.03315 71.2601104,40.99365 71.1421652,40.9404 L70.5640439,39.9479 L69.8805298,40.82265 C69.7287167,40.90715 69.5356939,40.97615 69.3052506,41.03715 C69.0783599,41.08915 68.8199698,41.11815 68.5350539,41.11815 C68.2238489,41.11815 67.9237753,41.07565 67.6400435,40.9834 C67.3593907,40.89065 67.1142635,40.74415 66.9006357,40.52915 C66.6839291,40.32515 66.5193267,40.05415 66.3921448,39.7289 C66.2711206,39.4014 66.2104901,38.99415 66.2104901,38.5089 C66.2104901,38.0514 66.266147,37.66215 66.3826713,37.33015 C66.4954061,36.9979 66.6626136,36.72665 66.9077408,36.5054 C67.144105,36.2909 67.4508101,36.10965 67.8257244,35.9849 C68.1951915,35.8519 68.639973,35.7594 69.1603058,35.6914 L70.4944136,35.52315 L70.4944136,34.5879 L70.4944136,34.5879 Z M70.4944136,36.50215 L69.2524358,36.6729 C68.6650779,36.74115 68.235454,36.90265 67.9846426,37.13815 C67.725542,37.3804 67.5964654,37.79365 67.5964654,38.38715 L67.5964654,38.5269 C67.5964654,39.0409 67.7101476,39.41515 67.9368014,39.6479 C68.1563501,39.87265 68.5111332,39.99415 68.9741513,39.99415 C69.3694337,39.99415 69.6794545,39.91315 69.9179502,39.76965 C70.1543144,39.61865 70.3480478,39.4369 70.4944136,39.2479 L70.4944136,36.50215 Z" id="Fill-39" fill="#7C8084"></path>
                        <g id="Group-43">
                            <mask id="mask-6" fill="white">
                                <use xlink:href="#path-5"></use>
                            </mask>
                            <g id="Clip-42"></g>
                            <path d="M80.5891779,31.467275 L80.5891779,32.960525 L78.7565264,32.960525 L79.7664031,33.681025 C79.7969552,33.806525 79.8291651,33.931025 79.8590067,34.055775 C79.880559,34.185025 79.8954797,34.341525 79.8954797,34.541025 C79.8954797,35.095275 79.8166127,35.563025 79.6427737,35.937775 C79.4779346,36.312025 79.2624121,36.623775 78.9940748,36.862775 C78.7217112,37.090275 78.4102694,37.263275 78.0493285,37.358275 C77.6971506,37.451025 77.3163153,37.509275 76.9212697,37.509275 C76.3800952,37.509275 75.9270244,37.412525 75.5549521,37.223525 C75.4351121,37.326525 75.3422717,37.437525 75.2638783,37.566275 C75.1835903,37.701525 75.1471172,37.862275 75.1471172,38.044525 C75.1471172,38.626525 75.4891111,38.911275 76.1574676,38.911275 L77.9439357,38.911275 C78.7475266,38.911275 79.3649629,39.101525 79.7813239,39.466025 C80.1995796,39.829525 80.406339,40.401275 80.406339,41.158025 C80.406339,41.654775 80.3161038,42.085775 80.1299492,42.443025 C79.9435578,42.803775 79.6875361,43.100275 79.3649629,43.324775 C79.0352846,43.557275 78.6598966,43.728775 78.2160624,43.835775 C77.7781492,43.950275 77.3054208,44.000025 76.7985877,44.000025 C75.7811322,44.000025 75.0154354,43.806775 74.4993657,43.419275 C73.9828223,43.018025 73.7296426,42.478775 73.7296426,41.791025 C73.7296426,41.461525 73.7732208,41.197275 73.866298,40.993525 C73.9631647,40.801275 74.0484264,40.650525 74.1296617,40.547775 L75.0343824,40.050775 C74.7518348,39.954525 74.5055235,39.791525 74.3084743,39.551275 C74.1118989,39.315525 74.0074534,38.976525 74.0074534,38.536775 C74.0074534,38.243775 74.0484264,38.012525 74.1206619,37.830275 C74.1931343,37.651775 74.2656067,37.509275 74.3376054,37.405275 L75.220537,36.886775 L74.2810011,36.226525 C74.1770293,36.008525 74.089873,35.759275 74.0233215,35.491275 C73.9631647,35.215525 73.9210076,34.916525 73.9210076,34.580525 C73.9210076,34.030775 74.0074534,33.567525 74.1841345,33.195775 C74.3605787,32.817025 74.5922061,32.513525 74.8877798,32.284275 C75.1748273,32.053275 75.4957426,31.888275 75.8564467,31.795775 C76.2164402,31.692525 76.5634077,31.649275 76.9212697,31.649275 C77.6244414,31.649275 78.2264833,31.824025 78.7359215,32.181025 L80.5891779,31.467275 M75.1303018,40.785525 C75.0234879,40.993525 74.9680678,41.254275 74.9680678,41.550525 C74.9680678,41.989025 75.116802,42.314525 75.4130862,42.514525 C75.7088967,42.725775 76.1749936,42.828525 76.8265346,42.828525 C77.5848895,42.828525 78.1438268,42.676025 78.5163728,42.375775 C78.8884451,42.082525 79.0783891,41.736525 79.0783891,41.329025 L79.0783891,41.222525 C79.0783891,40.936525 79.0007063,40.693275 78.84913,40.498025 C78.6892645,40.308525 78.3844541,40.200525 77.9313833,40.200525 L75.5765043,40.200525 C75.3894024,40.382775 75.2418524,40.572025 75.1303018,40.785525 M76.9234013,36.430775 C77.4487077,36.430775 77.8347534,36.298275 78.0839069,36.027275 C78.3299814,35.759275 78.4531371,35.320775 78.4531371,34.708525 L78.4531371,34.484025 C78.4531371,33.934275 78.3299814,33.523775 78.0839069,33.245525 C77.8347534,32.974275 77.4487077,32.830775 76.9234013,32.830775 C76.378911,32.830775 75.9781813,32.974275 75.7342383,33.245525 C75.4891111,33.523775 75.3600345,33.931025 75.3600345,34.470775 L75.3600345,34.687525 C75.3600345,35.309025 75.4891111,35.759275 75.7342383,36.027275 C75.9781813,36.298275 76.378911,36.430775 76.9234013,36.430775" id="Fill-41" fill="#7C8084" mask="url(#mask-6)"></path>
                        </g>
                        <path d="M83.0981672,38.25855 C83.1770342,38.6368 83.2916638,38.9488 83.4543714,39.1763 C83.6140001,39.41205 83.8183912,39.5688 84.068492,39.67705 C84.3169349,39.7758 84.610377,39.82655 84.9526078,39.82655 C85.3426797,39.82655 85.7038575,39.7758 86.0451409,39.6553 C86.3892663,39.54705 86.7317339,39.4013 87.0891222,39.2403 L87.3138813,40.4263 C87.0813066,40.57605 86.7364706,40.72555 86.3011626,40.88355 C85.8606442,41.04005 85.3819948,41.11805 84.860241,41.11805 C83.7437873,41.11805 82.8970919,40.7223 82.3251284,39.9263 C81.756007,39.13755 81.4694332,37.9488 81.4694332,36.3663 C81.4694332,34.75205 81.7669015,33.56755 82.3530753,32.79555 C82.94517,32.0313 83.7321822,31.6493 84.6958755,31.6493 C85.7175941,31.6493 86.4565282,32.0243 86.9174147,32.7778 C87.3873011,33.53555 87.6201127,34.5588 87.6201127,35.8628 L87.6201127,36.84805 L82.9577224,36.84805 C82.9719326,37.41255 83.0193002,37.8873 83.0981672,38.25855 L83.0981672,38.25855 Z M86.2386374,35.7198 L86.2386374,35.44205 C86.2386374,34.4778 86.1067187,33.80255 85.8606442,33.4053 C85.6143328,33.00955 85.2320764,32.81705 84.7209803,32.81705 C84.4566693,32.81705 84.2219629,32.86005 84.0116509,32.94905 C83.7911548,33.03855 83.6218158,33.18105 83.4759236,33.39905 C83.3243474,33.6133 83.2163493,33.9093 83.1265878,34.2833 C83.0370631,34.66005 82.9859061,35.1338 82.9577224,35.7198 L86.2386374,35.7198 Z" id="Fill-44" fill="#7C8084"></path>
                        <path d="M95.8157215,32.009775 C95.9807975,31.917525 96.1885043,31.831275 96.4246316,31.757275 C96.6640747,31.681775 96.9395172,31.649275 97.2490643,31.649275 C97.9411045,31.649275 98.4654636,31.871775 98.841799,32.316525 C99.2136344,32.770525 99.4049994,33.502025 99.4049994,34.516025 L99.4049994,40.883525 L97.9643146,40.883525 L97.9643146,34.305775 C97.9643146,33.784775 97.8679216,33.427275 97.6604517,33.234775 C97.4555869,33.038525 97.1758814,32.938775 96.8149405,32.938775 C96.4615783,32.938775 96.1650573,33.002025 95.9189828,33.124025 C95.6807239,33.252775 95.4306231,33.414025 95.1499702,33.613275 L95.1499702,40.883525 L93.7126012,40.883525 L93.7126012,34.305775 C93.7126012,33.784775 93.6064978,33.427275 93.3947647,33.234775 C93.1830317,33.038525 92.9085366,32.938775 92.5658322,32.938775 C92.2340223,32.938775 91.9486327,32.995775 91.6916636,33.110025 C91.4349314,33.220775 91.1727518,33.380275 90.9065461,33.578025 L90.9065461,40.883525 L89.4668086,40.883525 L89.4668086,31.824025 L90.3374247,31.824025 L90.8494681,32.938775 L91.5810603,32.009775 C91.7475573,31.917525 91.9514748,31.831275 92.1828654,31.757275 C92.4161507,31.681775 92.6956194,31.649275 93.0115611,31.649275 C93.3128188,31.649275 93.5768931,31.674025 93.8052048,31.738775 C94.0365954,31.806275 94.2459601,31.888275 94.4328251,32.009775 L95.0005255,33.006275 L95.8157215,32.009775" id="Fill-46" fill="#7C8084"></path>
                        <path d="M102.758032,38.25855 C102.834767,38.6368 102.956975,38.9488 103.113288,39.1763 C103.276707,39.41205 103.482755,39.5688 103.727409,39.67705 C103.98201,39.7758 104.272136,39.82655 104.616735,39.82655 C104.99686,39.82655 105.364906,39.7758 105.700742,39.6553 C106.050315,39.54705 106.392782,39.4013 106.745197,39.2403 L106.981561,40.4263 C106.745197,40.57605 106.398703,40.72555 105.963395,40.88355 C105.520509,41.04005 105.041859,41.11805 104.520105,41.11805 C103.403652,41.11805 102.555062,40.7223 101.986177,39.9263 C101.419187,39.13755 101.130955,37.9488 101.130955,36.3663 C101.130955,34.75205 101.426766,33.56755 102.017676,32.79555 C102.608113,32.0313 103.39181,31.6493 104.360713,31.6493 C105.380537,31.6493 106.114972,32.0243 106.585332,32.7778 C107.044323,33.53555 107.280688,34.5588 107.280688,35.8628 L107.280688,36.84805 L102.624218,36.84805 C102.637007,37.41255 102.681296,37.8873 102.758032,38.25855 L102.758032,38.25855 Z M105.898502,35.7198 L105.898502,35.44205 C105.898502,34.4778 105.768478,33.80255 105.523351,33.4053 C105.278697,33.00955 104.892888,32.81705 104.37374,32.81705 C104.117718,32.81705 103.882301,32.86005 103.671515,32.94905 C103.459072,33.03855 103.28168,33.18105 103.135788,33.39905 C102.988475,33.6133 102.876214,33.9093 102.78361,34.2833 C102.700954,34.66005 102.64577,35.1338 102.624218,35.7198 L105.898502,35.7198 Z" id="Fill-48" fill="#7C8084"></path>
                        <path d="M111.297387,32.009775 C111.468621,31.917525 111.677512,31.831275 111.91956,31.757275 C112.165398,31.681775 112.446524,31.649275 112.766018,31.649275 C113.452611,31.649275 113.98526,31.871775 114.374384,32.316525 C114.763746,32.770525 114.955821,33.502025 114.955821,34.516025 L114.955821,40.883525 L113.522479,40.883525 L113.522479,34.305775 C113.522479,33.784775 113.407139,33.427275 113.193274,33.234775 C112.979173,33.038525 112.688336,32.938775 112.3255,32.938775 C111.97048,32.938775 111.658565,32.999275 111.401596,33.113275 C111.148416,33.242525 110.870368,33.402275 110.562716,33.613275 L110.562716,40.883525 L109.123452,40.883525 L109.123452,31.824025 L110.000936,31.824025 L110.52719,32.974275 L111.297387,32.009775" id="Fill-50" fill="#7C8084"></path>
                        <path d="M119.048261,41.0791 C118.427036,41.0791 117.973965,40.8906 117.695444,40.50835 C117.418817,40.12685 117.282635,39.54385 117.282635,38.7346 L117.282635,32.99585 L116.318468,32.99585 L116.318468,31.82385 L117.375476,31.82385 L118.065621,29.3816 L118.722373,29.3816 L118.722373,31.82385 L120.496051,31.82385 L120.496051,32.99585 L118.722373,32.99585 L118.722373,39.08985 C118.722373,39.39035 118.77353,39.59385 118.871817,39.7051 C118.968684,39.81485 119.161944,39.86485 119.451833,39.86485 L120.620391,39.86485 L120.695469,40.72235 C120.491788,40.8121 120.246187,40.8906 119.974298,40.9731 C119.702881,41.0401 119.39144,41.0791 119.048261,41.0791" id="Fill-52" fill="#7C8084"></path>
                        <path d="M96.0881798,25.186525 C95.8158162,25.186525 95.5995832,25.437025 95.5995832,25.743525 C95.5995832,26.046775 95.8158162,26.290025 96.0881798,26.290025 L122.097004,26.290025 C122.36771,26.290025 122.58939,26.046775 122.58939,25.743525 C122.58939,25.437025 122.36771,25.186525 122.097004,25.186525 L96.0881798,25.186525 Z" id="Fill-54" fill="#7C8084"></path>
                        <path d="M0.929541279,25.186525 C0.658835592,25.186525 0.440471074,25.437025 0.440471074,25.743525 C0.440471074,26.046775 0.658835592,26.290025 0.929541279,26.290025 L77.0357335,26.290025 C77.3073865,26.290025 77.5300141,26.046775 77.5300141,25.743525 C77.5300141,25.437025 77.3073865,25.186525 77.0357335,25.186525 L0.929541279,25.186525 Z" id="Fill-56" fill="#7C8084"></path>
                    </g>
                </g>
            </g>
        </g>
    </g>
</svg>