<?xml version="1.0" encoding="UTF-8" standalone="no"?>
<svg width="33px" height="33px" viewBox="0 0 33 33" version="1.1" xmlns="http://www.w3.org/2000/svg" xmlns:xlink="http://www.w3.org/1999/xlink">
    <!-- Generator: Sketch 39.1 (31720) - http://www.bohemiancoding.com/sketch -->
    <title>Oval 2</title>
    <desc>Created with Sketch.</desc>
    <defs></defs>
    <g id="Symbols" stroke="none" stroke-width="1" fill="none" fill-rule="evenodd">
        <g id="fb" transform="translate(-246.000000, -23.000000)" fill="#D5D5D5">
            <g id="btn">
                <g id="Group-6" transform="translate(92.000000, 21.000000)">
                    <path d="M170.5,35 C179.612698,35 187,27.6126984 187,18.5 C187,9.38730163 179.612698,2 170.5,2 C161.387302,2 154,9.38730163 154,18.5 C154,27.6126984 161.387302,35 170.5,35 Z M171.56713,15.1670587 L171.56713,13.2132462 C171.56713,12.4794949 172.054545,12.3084291 172.397845,12.3084291 L174.5049,12.3084291 L174.5049,9.08272904 L171.603061,9.07142857 C168.381747,9.07142857 167.648671,11.47726 167.648671,13.0168518 L167.648671,15.1670587 L165.785714,15.1670587 L165.785714,18.4909559 L167.648671,18.4909559 L167.648671,27.8964551 L171.56713,27.8964551 L171.56713,18.4909559 L174.211201,18.4909559 L174.552939,15.1670587 L171.56713,15.1670587 Z" id="Oval-2"></path>
                </g>
            </g>
        </g>
    </g>
</svg>