<?xml version="1.0" encoding="UTF-8" standalone="no"?>
<svg width="100px" height="105px" viewBox="0 0 100 105" version="1.1" xmlns="http://www.w3.org/2000/svg" xmlns:xlink="http://www.w3.org/1999/xlink">
    <!-- Generator: Sketch 39.1 (31720) - http://www.bohemiancoding.com/sketch -->
    <title>loading</title>
    <desc>Created with Sketch.</desc>
    <defs></defs>
    <g id="pc" stroke="none" stroke-width="1" fill="none" fill-rule="evenodd">
        <g id="loading" transform="translate(-590.000000, -348.000000)">
            <g transform="translate(590.000000, 348.000000)" id="cup">
                <g>
                    <path d="M83.26379,96.8263405 C83.26379,101.313156 68.8953533,104.949534 51.1717474,104.949534 C33.4463025,104.949534 19.0803179,101.313156 19.0803179,96.8263405 C19.0803179,92.3395249 33.4463025,88.7043791 51.1717474,88.7043791 C68.8953533,88.7043791 83.26379,92.3395249 83.26379,96.8263405" id="Fill-3" fill="#000000" opacity="0.14896222"></path>
                    <polygon id="Fill-5" fill="#E1AD43" points="31.9014411 96.8711101 68.6341982 96.8711101 68.6341982 84.8221074 31.9014411 84.8221074"></polygon>
                    <path d="M13.0865624,3.16317202 L13.0865624,27.3553969 C13.0865624,50.4939653 29.7330565,69.2534854 50.2680648,69.2534854 C70.800621,69.2534854 87.444663,50.4939653 87.444663,27.3553969 L87.444663,3.16317202 L13.0865624,3.16317202 Z" id="Fill-7" fill="#F1BC40"></path>
                    <path d="M68.6343821,84.8215531 C68.6343821,86.5858582 60.4110605,88.014545 50.2683101,88.014545 C40.1249466,88.014545 31.901625,86.5858582 31.901625,84.8215531 C31.901625,83.0578639 40.1249466,81.6310245 50.2683101,81.6310245 C60.4110605,81.6310245 68.6343821,83.0578639 68.6343821,84.8215531" id="Fill-8" fill="#E1AD43"></path>
                    <path d="M68.6343821,96.8708022 C68.6343821,98.6351072 60.4110605,100.063794 50.2683101,100.063794 C40.1249466,100.063794 31.901625,98.6351072 31.901625,96.8708022 C31.901625,95.1064971 40.1249466,93.6778103 50.2683101,93.6778103 C60.4110605,93.6778103 68.6343821,95.1064971 68.6343821,96.8708022" id="Fill-9" fill="#E1AD43"></path>
                    <path d="M56.8114723,69.5717993 C56.8114723,72.478438 53.8229012,74.8314605 50.1360773,74.8314605 C46.4474143,74.8314605 43.4582302,72.478438 43.4582302,69.5717993 C43.4582302,66.667008 46.4474143,64.312138 50.1360773,64.312138 C53.8229012,64.312138 56.8114723,66.667008 56.8114723,69.5717993" id="Fill-10" fill="#F1BC40"></path>
                    <polygon id="Fill-11" fill="#F1BC40" points="47.6510574 83.675463 52.6234267 83.675463 52.6234267 72.465198 47.6510574 72.465198"></polygon>
                    <path d="M87.3907768,18.2186984 C81.0911755,35.9929172 81.5981597,40.8541473 81.9635317,42.0044865 C83.2870855,41.7606244 85.9348063,39.9827715 87.6795187,38.3754988 C94.1213454,32.4464485 93.7118345,22.6993558 93.109216,18.2186984 L87.3907768,18.2186984 Z M81.6845984,48.1909468 C80.5829651,48.1909468 79.5806444,47.9187573 78.705836,47.3823839 C72.9714577,43.8623952 76.0188807,31.5251918 82.3589426,14.0835122 L83.0939779,12.0605655 L98.0999764,12.0605655 L98.6590691,14.4295992 C99.099845,16.2955135 102.650574,32.9501838 91.8218315,42.9152743 C90.4792734,44.1518274 85.7772549,48.1909468 81.6845984,48.1909468 L81.6845984,48.1909468 Z" id="Fill-12" fill="#F1BC40"></path>
                    <path d="M6.71940401,18.2186984 C6.11188115,22.6931977 5.69256164,32.4322848 12.1491013,38.3742672 C14.1451602,40.2026168 16.640847,41.7723249 17.8669274,42.0032549 C18.2322994,40.851684 18.7374445,35.9886065 12.4390693,18.2186984 L6.71940401,18.2186984 Z M18.1458607,48.1909468 L18.1446346,48.1909468 C14.0832432,48.1903309 9.36283345,44.1561381 8.01353192,42.919585 C-2.84402344,32.9286303 0.730614088,16.2887395 1.17445521,14.4240569 L1.73661309,12.0605655 L16.7358682,12.0605655 L17.4715165,14.0835122 C23.8109654,31.524576 26.8596144,43.8623952 21.1270753,47.3811523 C20.2492017,47.9187573 19.2468809,48.1909468 18.1458607,48.1909468 L18.1458607,48.1909468 Z" id="Fill-13" fill="#F1BC40"></path>
                    <path d="M71.3340886,36.2072202 C71.3340886,47.9686382 61.844226,57.5032753 50.1363838,57.5032753 C38.4279286,57.5032753 28.938066,47.9686382 28.938066,36.2072202 C28.938066,24.4482656 38.4279286,14.9136285 50.1363838,14.9136285 C61.844226,14.9136285 71.3340886,24.4482656 71.3340886,36.2072202" id="Fill-14" fill="#F1BC40"></path>
                    <path d="M87.4449082,2.95625875 C87.4449082,4.58754815 70.8008662,5.90969927 50.267697,5.90969927 C29.7326887,5.90969927 13.0868076,4.58754815 13.0868076,2.95625875 C13.0868076,1.3268168 29.7326887,0.00466568019 50.267697,0.00466568019 C70.8008662,0.00466568019 87.4449082,1.3268168 87.4449082,2.95625875" id="Fill-15" fill="#E1AD43"></path>
                    <path d="M64.9180709,84.7830648 C64.9180709,85.9321724 58.2978496,86.8632821 50.1315408,86.8632821 C41.965845,86.8632821 35.3456237,85.9321724 35.3456237,84.7830648 C35.3456237,83.634573 41.965845,82.7034633 50.1315408,82.7034633 C58.2978496,82.7034633 64.9180709,83.634573 64.9180709,84.7830648" id="Fill-16" fill="#F1BC40"></path>
                </g>
            </g>
        </g>
    </g>
</svg>