<?xml version="1.0" encoding="UTF-8" standalone="no"?>
<svg width="59px" height="41px" viewBox="0 0 59 41" version="1.1" xmlns="http://www.w3.org/2000/svg" xmlns:xlink="http://www.w3.org/1999/xlink">
    <!-- Generator: Sketch 3.6 (26304) - http://www.bohemiancoding.com/sketch -->
    <title>morgan_logo</title>
    <desc>Created with Sketch.</desc>
    <defs>
        <path id="path-1" d="M0,0.151150026 L58.0263712,0.151150026 L58.0263712,40.1670724 L0,40.1670724 L0,0.151150026 Z"></path>
        <path id="path-3" d="M0,0.151150026 L58.0263712,0.151150026 L58.0263712,40.1670724 L0,40.1670724 L0,0.151150026 Z"></path>
    </defs>
    <g id="Page-1" stroke="none" stroke-width="1" fill="none" fill-rule="evenodd">
        <g id="JPMorgan-Mobile-Part0" transform="translate(-13.000000, -13.000000)">
            <g id="1" transform="translate(-800.000000, 0.000000)">
                <g id="top" transform="translate(800.000000, 0.000000)">
                    <g id="morgan_logo" transform="translate(13.803772, 13.471014)">
                        <g id="Group-3">
                            <mask id="mask-2" fill="white">
                                <use xlink:href="#path-1"></use>
                            </mask>
                            <g id="Clip-2"></g>
                            <path d="M9.50531299,34.6153358 C8.87330296,35.526424 8.28506258,35.6002857 7.94373791,35.7314474 L10.3500866,35.7314474 L10.8788553,35.6988949 C10.3416467,35.4681722 9.89806207,35.1595901 9.50531299,34.6153358 L9.50531299,34.6153358 Z M6.70739284,38.2970001 L10.3416467,38.2970001 L10.3416467,37.9659549 L6.70739284,37.9659549 L6.70739284,38.2970001 Z M6.70739284,37.4538724 L10.3416467,37.4538724 L10.3416467,37.1056943 L6.70739284,37.1056943 L6.70739284,37.4538724 Z M6.70739284,36.5924695 L10.3416467,36.5924695 L10.3416467,36.2623761 L6.70739284,36.2623761 L6.70739284,36.5924695 Z M7.11721797,33.5898381 L6.80965284,34.2186145 C6.26380816,33.7720176 5.32580322,33.4752382 5.32580322,33.4752382 L5.59744977,32.9109955 C6.0838227,33.092604 7.11721797,33.5898381 7.11721797,33.5898381 L7.11721797,33.5898381 Z M11.817449,39.5541724 L11.4243074,40.134025 C11.4243074,40.134025 10.1449778,39.4723153 9.00088263,39.2554893 L9.34240357,38.8098442 L7.58494464,38.8098442 L8.18319512,39.2554893 C8.18319512,39.2554893 6.27244432,40.0003886 5.47045893,40.1671486 C5.40195847,39.9017794 5.28183731,39.7515812 5.07770985,39.5713053 C5.68420394,39.5050582 6.81789645,39.1915266 7.45736498,38.8098442 L6.62966738,38.8098442 L6.01591106,38.8443003 L6.03298711,38.1987717 L6.03298711,36.3438524 L5.99903129,35.6988949 L6.68226946,35.7314474 L7.1668759,35.7314474 C7.1668759,35.7314474 7.10014192,35.5429857 6.80965284,35.3604255 C8.10507711,35.2290734 8.8222711,34.8136964 9.14691227,33.9201218 L8.54905434,33.9201218 L7.95178524,34.5662215 C7.95178524,34.5662215 7.81576569,34.3341663 7.32134543,34.2682999 C7.95178524,33.7889601 8.32785083,32.977433 8.51627618,32.6138353 L9.23209623,32.977433 C9.23209623,32.977433 9.04465226,33.2096786 8.9070625,33.3739638 L10.9722828,33.3739638 L11.8425724,33.3408403 L11.3310761,34.698335 C11.3310761,34.698335 11.040587,34.517488 10.6478379,34.5005455 L10.9216435,33.9201218 L9.81327067,33.9201218 C9.81327067,33.9201218 9.79462441,34.0362446 9.74359254,34.1342827 C10.2725575,34.879182 11.7391347,35.3265404 12.269081,35.3265404 C12.269081,35.3265404 11.9448324,35.707271 11.9106803,36.0714397 C11.5946753,35.9728305 11.3043825,35.8808841 11.0488306,35.7733277 L11.0148748,36.3950607 L11.0148748,38.2473148 L11.0488306,38.8443003 L10.4170169,38.8098442 L9.53966136,38.8098442 C10.0682337,38.9516663 11.2545283,39.2554893 11.817449,39.5541724 L11.817449,39.5541724 Z M7.28719334,34.9305807 C6.40846387,35.3432926 5.20528951,35.9050605 5.20528951,35.9050605 L4.86357229,35.2623873 C5.82041976,35.0194812 7.13429402,34.3678609 7.13429402,34.3678609 L7.28719334,34.9305807 L7.28719334,34.9305807 Z" id="Fill-1" fill="#7C8084" mask="url(#mask-2)"></path>
                        </g>
                        <path d="M22.0691227,34.0273355 C22.1980763,34.1506922 22.3342921,34.268338 22.4960239,34.3507661 C22.6487269,34.2925143 22.8371522,34.1185205 22.9490298,34.0273355 L22.0691227,34.0273355 Z M22.4616755,34.8717959 C22.1980763,34.9789715 21.7968873,35.0859568 21.4641988,35.1777129 L23.3488448,35.1777129 C23.0086978,35.1042319 22.719779,35.0029575 22.4616755,34.8717959 L22.4616755,34.8717959 Z M24.8175812,39.910955 L20.8840057,39.910955 C20.6103964,39.910955 20.0323624,39.9438882 20.0323624,39.9438882 L20.0323624,39.2726602 C20.0323624,39.2726602 20.508529,39.3059742 20.9012781,39.3059742 L22.4871914,39.3059742 L22.4871914,38.538231 L21.7615576,38.538231 C21.3788186,38.538231 20.9707599,38.5698316 20.9707599,38.5698316 L20.9707599,37.9184017 C20.9707599,37.9184017 21.540354,37.9500023 21.7460517,37.9500023 L22.4871914,37.9500023 L22.4871914,37.3044737 L21.1238555,37.3193222 C21.0372976,37.5934482 20.7126564,38.1241865 20.5937129,38.2970382 C20.3044015,38.0467079 19.9373646,37.965993 19.9373646,37.965993 C19.9373646,37.965993 20.6531847,37.2125273 20.824534,35.92147 L21.6779438,36.170087 C21.6779438,36.170087 21.540354,36.3783466 21.3788186,36.7246211 L22.4871914,36.7246211 L22.4871914,36.4773366 L22.4701154,35.8990069 L23.2299013,35.8990069 L23.195553,36.4607748 L23.195553,36.7246211 L24.5353357,36.7246211 C24.9194486,36.7246211 25.1235761,36.6829311 25.1235761,36.6829311 L25.1235761,37.3294115 L24.5424017,37.3044737 L23.195553,37.3044737 L23.195553,37.9500023 L24.1341467,37.9393419 C24.528466,37.9319176 24.8766604,37.9077412 24.8766604,37.9077412 L24.8766604,38.5606941 C24.8766604,38.5606941 24.3553502,38.5532699 24.1512228,38.5458456 L23.195553,38.538231 L23.195553,39.3059742 L24.8005051,39.3059742 L25.6876745,39.265236 L25.6876745,39.9522643 C25.6876745,39.9522643 25.2001239,39.910955 24.8175812,39.910955 L24.8175812,39.910955 Z M24.9618443,35.7486183 L19.9373646,35.7486183 C19.9373646,35.7486183 19.9542444,37.0075039 19.9373646,37.4042251 C19.869453,39.0177611 18.9907235,40.0510638 18.9907235,40.0510638 C18.9907235,40.0510638 18.7337977,39.7702751 18.3598912,39.5208965 C18.3598912,39.5208965 19.2297882,38.9166772 19.2297882,37.2391784 L19.2297882,35.7238708 L19.1960287,35.1461122 L19.9289248,35.1702886 C19.8508068,35.0284665 19.8254871,34.9540337 19.6979074,34.8550437 C19.6979074,34.8550437 20.9707599,34.7646202 21.7358453,34.5830118 C21.6510539,34.5083886 21.3362266,34.2999386 21.1407353,34.0273355 L20.1497357,34.0273355 L19.4598242,34.0602687 L19.4598242,33.4012241 L20.1768219,33.4328248 L22.0534206,33.4328248 C22.0108286,33.2818651 21.9511606,33.1253849 21.8659766,33.0180189 C21.8659766,33.0180189 22.4022037,32.8206101 22.6416609,32.7358975 C22.6416609,32.7358975 22.872482,33.0429567 22.9560958,33.4328248 L24.7223871,33.4328248 L25.3190674,33.4012241 L25.3190674,34.0602687 L24.7223871,34.0273355 L23.9215794,34.0273355 C23.751604,34.2255058 23.4255889,34.4343365 23.2212652,34.5662596 C23.7329578,34.7480584 24.091751,34.8219202 25.2509595,34.8717959 C25.1063038,34.9707858 25.0554682,35.037604 24.9618443,35.1777129 L25.6792346,35.1461122 L25.6792346,35.7811708 L24.9618443,35.7486183 L24.9618443,35.7486183 Z" id="Fill-4" fill="#7C8084"></path>
                        <path d="M36.9302495,32.6380688 C36.9302495,32.6380688 37.6458733,32.9036284 37.7818929,32.9523619 C37.5779617,33.1010371 37.3565619,33.3317599 37.3565619,33.3317599 L38.7558164,33.3317599 L39.4304184,33.2988267 L39.4304184,33.9125643 L38.7726962,33.8794407 L38.0727745,33.8794407 C38.0727745,33.8794407 38.2598259,34.4259794 38.3277376,34.657654 C38.3277376,34.657654 37.851571,34.657654 37.5606894,34.7722539 C37.5451835,34.409608 37.4401756,33.8794407 37.4401756,33.8794407 L36.9981612,33.8794407 C36.9981612,33.8794407 36.758704,34.210486 36.5532026,34.4259794 C36.3661512,34.2434191 35.9916558,34.0273546 35.9916558,34.0273546 C36.2980432,33.7465658 36.6228807,33.481387 36.9302495,32.6380688 L36.9302495,32.6380688 Z M34.285425,39.0750801 L37.5606894,39.0750801 L37.5606894,38.5953596 L34.285425,38.5953596 L34.285425,39.0750801 Z M34.285425,36.9728764 L37.2874726,36.9728764 L37.2874726,36.5426509 L34.285425,36.5426509 L34.285425,36.9728764 Z M38.004274,35.9310073 L37.9705145,36.5761552 L37.9705145,36.8914001 L38.004274,37.5849008 L37.2703966,37.5517772 L34.285425,37.5517772 L34.285425,38.0467269 L37.4931703,38.0467269 L38.2765094,38.0160781 L38.2427499,38.6271506 L38.2427499,39.3391168 L38.2765094,40.1009586 L37.5606894,40.1009586 L37.5606894,39.6526484 L34.285425,39.6526484 L34.285425,40.1504535 L33.5597911,40.1504535 L33.6023831,39.1744508 L33.6023831,36.6602966 L33.568231,35.9378604 L34.3362606,35.9627983 L37.117301,35.9627983 L38.004274,35.9310073 Z M33.6887447,32.6216974 C33.6887447,32.6216974 34.370609,32.9359905 34.5062359,32.9856758 C34.302501,33.1343511 34.0968034,33.3831585 34.0968034,33.3831585 L35.0365748,33.3831585 L35.8116703,33.3498446 L35.8116703,33.9283646 L35.0874104,33.8958122 L34.8141936,33.8958122 C34.8141936,33.8958122 34.9502132,34.2925334 35.0194987,34.6410922 C35.0194987,34.6410922 34.5757178,34.6410922 34.2512729,34.7888156 C34.2512729,34.490894 34.1660889,33.8958122 34.1660889,33.8958122 L33.7395803,33.8958122 C33.7395803,33.8958122 33.3470275,34.3587805 32.9898044,34.72333 C32.8015754,34.4259794 32.4769342,34.2744487 32.4769342,34.2744487 C32.7674233,34.0602878 33.313268,33.5158431 33.6887447,32.6216974 L33.6887447,32.6216974 Z M38.7134207,35.0284855 L39.393911,34.9955523 L39.3595626,35.4585207 L39.3595626,35.7073281 L39.4035285,36.4025421 L38.6776984,36.4025421 L38.6776984,35.5919667 L33.1262165,35.5919667 L33.1262165,36.0210501 L33.1177767,36.3861706 L32.4003864,36.3861706 L32.4427821,35.8392512 L32.4427821,35.575976 L32.4084337,34.9864148 L33.1262165,35.0284855 L35.640321,35.0284855 C35.640321,35.0284855 35.5480711,34.6909679 35.3600383,34.5006026 L36.1704636,34.3507852 C36.3066794,34.6153929 36.4609527,35.0284855 36.4609527,35.0284855 L38.7134207,35.0284855 L38.7134207,35.0284855 Z" id="Fill-6" fill="#7C8084"></path>
                        <mask id="mask-4" fill="white">
                            <use xlink:href="#path-3"></use>
                        </mask>
                        <g id="Clip-9"></g>
                        <path d="M51.0726907,36.3692852 L52.0193318,36.3692852 L52.0193318,35.3104736 L51.0726907,35.3104736 L51.0726907,36.3692852 Z M51.0726907,34.6982589 L52.0193318,34.6982589 L52.0193318,33.6809469 L51.0726907,33.6809469 L51.0726907,34.6982589 Z M49.5020869,36.3692852 L50.3996589,36.3692852 L50.3996589,35.3104736 L49.5020869,35.3104736 L49.5020869,36.3692852 Z M49.5020869,34.6982589 L50.3996589,34.6982589 L50.3996589,33.6809469 L49.5020869,33.6809469 L49.5020869,34.6982589 Z M50.3996589,36.9982521 L49.4867774,36.9982521 L48.7782196,37.0327082 L48.8221855,36.3951749 L48.8221855,33.8130604 L48.7782196,33.0348471 L49.4783375,33.0677803 L51.985376,33.0677803 L52.745162,33.0348471 L52.70257,33.7555701 L52.70257,36.4772224 L52.745162,37.0389903 L52.0191356,36.9982521 L51.0726907,36.9982521 L51.0726907,37.8082563 L52.0621201,37.8082563 L52.7112062,37.7749424 L52.7112062,38.4627321 L52.0789999,38.4372232 L51.0726907,38.4372232 L51.0726907,39.2982453 L52.4717489,39.2982453 L53.1532206,39.2653121 L53.1532206,40.0003125 L52.3694889,39.9696636 L48.8221855,39.9696636 L48.1729031,40.0003125 L48.1729031,39.2653121 L48.8221855,39.2982453 L50.3996589,39.2982453 L50.3996589,38.4372232 L49.5205369,38.4372232 L48.8885269,38.4627321 L48.8885269,37.7749424 L49.5020869,37.8082563 L50.3996589,37.8082563 L50.3996589,36.9982521 Z M48.0368836,33.3740781 L48.4449422,33.3407641 L48.4449422,34.0601545 L48.0706431,34.0274117 L47.5573803,34.0274117 L47.5573803,35.7570705 L47.8835917,35.7570705 L48.3430748,35.7237566 L48.3430748,36.4690367 L47.9006678,36.4357227 L47.5573803,36.4357227 L47.5573803,38.354795 L48.4449422,37.9500785 C48.4449422,37.9500785 48.4449422,38.4204711 48.4620183,38.7598923 C48.4620183,38.7598923 47.4555129,39.0918894 46.0568472,39.751505 L45.8356437,38.8611667 C45.8356437,38.8611667 46.2705922,38.809768 46.8855262,38.5531557 L46.8855262,36.4357227 L46.4494,36.4357227 L46.0240691,36.4690367 L46.0240691,35.7071948 L46.4831596,35.7570705 L46.8855262,35.7570705 L46.8855262,34.0274117 L46.5355654,34.0274117 L45.989917,34.0601545 L45.989917,33.3407641 L46.5175079,33.3740781 L48.0368836,33.3740781 L48.0368836,33.3740781 Z" id="Fill-8" fill="#7C8084" mask="url(#mask-4)"></path>
                        <path d="M12.7099571,7.39654747 C12.7099571,7.66591433 12.6761976,7.97126022 12.6065194,8.34152068 C12.5372339,8.67789611 11.8084596,9.31885599 10.382904,10.2282309 L9.86100509,10.2282309 C10.0003613,10.0285377 10.103799,9.79172332 10.2086106,9.55471856 C10.9721258,8.07082126 11.3550611,7.26176885 11.3550611,7.16144636 C11.3550611,7.12813243 11.3213015,7.02723884 11.2871494,6.85667156 C11.6700847,6.75787198 12.0510572,6.654694 12.467752,6.51896356 C12.6406715,6.92463196 12.7099571,7.22921639 12.7099571,7.39654747 L12.7099571,7.39654747 Z M19.1762833,9.14981162 C16.9509014,10.8014207 15.803077,11.7800886 15.7349691,12.0481229 C15.6637207,12.2855084 15.6637207,12.5562078 15.7687286,12.8261458 C15.8737365,13.0939897 15.9787443,13.2304816 16.082182,13.2304816 C16.1512713,13.1956448 17.0898651,12.5562078 18.8618485,11.2727651 C18.6190545,12.1158929 18.4108053,12.8261458 18.2023597,13.4309362 C17.6822273,13.6329138 17.0898651,13.9022806 16.3612871,14.2394175 C15.5265235,14.643563 14.7598679,14.9814614 14.0993978,15.3193597 C14.1700573,13.7688346 15.0743027,11.8813629 16.8458935,9.62439225 L19.1762833,9.14981162 Z M18.8275001,6.42073508 C18.8969819,6.75787198 18.3754755,7.49915435 17.2284362,8.6440111 L17.1240172,8.44012989 L14.4835107,10.6664517 C14.3088247,10.1271469 14.6222781,9.62439225 15.4230858,9.04720474 C16.1854234,8.50809029 16.5679661,8.10394482 16.5679661,7.93585228 C15.5962016,7.66591433 14.8307237,7.02723884 14.2377726,6.01506669 C15.803077,5.47500041 16.9846609,5.13729242 17.7844873,4.97053244 C18.3754755,5.5770362 18.7240624,6.05047463 18.8275001,6.42073508 L18.8275001,6.42073508 Z M25.6736211,11.8472875 C24.9093208,10.4642838 24.3880106,9.72071708 24.108513,9.65599288 C23.8335298,9.58879394 22.7198575,9.65599288 20.7382509,9.89280728 C21.0526857,8.84598865 21.5714442,8.17019193 22.3029664,7.87017626 C22.9973923,7.59871539 23.3092755,7.33030035 23.2058378,7.05883947 C23.1006337,6.78947261 22.3384924,6.51896356 20.8770183,6.21875753 C20.670143,5.71181481 20.4603235,5.40799183 20.2876003,5.34098326 C20.1131105,5.2398993 19.9386208,5.07256822 19.7657013,4.80091698 C19.6964157,4.76855489 19.661086,4.73466987 19.6267376,4.70211741 C19.904665,4.66670946 20.1131105,4.66670946 20.2876003,4.66670946 C20.6346169,4.66670946 21.3308094,4.73466987 22.3384924,4.76855489 C23.3092755,4.80091698 23.9016377,4.80091698 24.0747535,4.80091698 C24.2488507,4.80091698 24.5283483,4.70211741 24.873991,4.4976651 C22.9973923,3.14930788 21.8862716,2.54318485 21.5376847,2.64274589 L19.9386208,3.08153784 C19.2104354,3.28522868 18.4814648,3.31930407 17.7501389,3.18414473 C17.9232547,2.64274589 17.7150054,2.13961048 17.1593469,1.63285812 C16.6023145,1.09222075 15.3149375,0.621637796 13.3013379,0.151054843 C13.8921299,1.36292017 14.4477884,2.13961048 15.0036432,2.47674737 C14.69176,3.18414473 13.7180327,3.8245335 12.1205391,4.29721047 C10.4879119,4.80091698 9.58366653,5.07256822 9.4091768,5.17346182 C9.23606101,5.2398993 9.09768615,5.27302286 8.99110806,5.27302286 C8.92319642,5.30919226 8.15771845,5.50888543 6.7331443,5.91398273 L6.69742199,5.13729242 C6.17768207,5.47500041 5.89955841,5.71181481 5.89955841,5.81308913 C5.89955841,5.88085917 5.93488816,6.05047463 6.03832583,6.31831857 C6.14235232,6.58825652 6.69742199,6.8915084 7.70647899,7.19609284 C8.33181562,7.39654747 9.2021052,7.36342391 10.3485557,7.12813243 C8.64507276,9.82332396 7.28978418,12.5562078 6.28111974,15.2845229 C5.10032089,18.3853828 3.88438856,20.8134919 2.70378599,22.6008314 C1.48451696,24.4530855 0.65250128,25.1951293 0.0956651197,24.8587539 C-0.0800022626,26.0696674 -0.00953903327,26.7100562 0.269958567,26.7783973 C0.546512021,26.8811945 0.720609193,26.9145085 0.825420793,26.9145085 C0.930624946,26.9145085 0.964384487,26.8811945 1.69433644,26.5432962 C2.18031681,26.3041974 2.84098319,25.8012523 3.56975748,24.9583149 C4.26536106,24.0833961 5.13290277,22.5322999 6.14235232,20.3082624 C7.15140932,18.0490074 7.84583524,16.0945271 8.36596771,14.4082715 C8.60954673,13.566857 8.92319642,12.7235389 9.23606101,11.9152479 C9.5139884,12.0481229 9.75756742,12.1158929 9.93068321,12.1158929 C10.103799,12.1158929 11.0064742,11.7433481 12.6065194,11.0033983 C12.2595028,11.7800886 11.702274,12.5562078 10.9046067,13.2959673 C10.1391288,14.0039357 9.75756742,14.442918 9.75756742,14.6119624 C9.75756742,14.8126074 9.75756742,14.913501 10.0356911,15.2845229 C10.2441366,15.5544608 10.382904,15.6917142 10.4879119,15.6917142 C10.555431,15.6555448 11.3905871,14.913501 12.9541249,13.4642502 L13.9971378,15.4187304 C13.0928924,15.8561898 12.3289846,16.2287346 11.7381926,16.5310347 C12.086387,16.7006501 12.5030818,16.7686105 12.9541249,16.7686105 C13.407916,16.7686105 13.8583703,16.7006501 14.3088247,16.5997566 C14.7598679,16.4986726 15.3522301,16.5997566 16.082182,16.936132 L12.3289846,18.3853828 C12.3289846,18.7248041 12.5727599,19.0596566 13.0249807,19.3990779 C13.5095872,19.7350726 13.7873183,19.9018326 13.8921299,19.9018326 C13.9629857,19.9018326 14.9355353,19.6328464 16.812134,19.1266652 C16.221342,19.7678154 15.9076923,20.0369919 13.2316598,21.0836202 C11.4616392,21.756371 10.4879119,22.2977699 10.3134222,22.6674592 C10.1391288,23.0021214 10.0694506,23.2722497 10.0694506,23.4424363 C10.0694506,23.6459367 10.1746548,23.8136485 10.3485557,23.9809796 C10.555431,24.1490721 10.694591,24.217794 10.7995989,24.217794 C10.8675105,24.217794 11.6327922,23.8816089 13.0587403,23.2056219 C14.4835107,22.5640909 15.9076923,21.9593004 17.3334441,21.3861106 C17.5434598,22.6008314 17.5434598,23.8816089 17.3334441,25.1951293 C17.1240172,26.5086497 16.7410819,27.21757 16.1854234,27.3186539 C15.6299612,27.4543844 14.1700573,27.2855304 11.8084596,26.8467384 C11.8426117,26.9807556 12.814965,27.6217154 14.7598679,28.7016576 C16.672974,29.7768407 17.6822273,30.3184299 17.7844873,30.3184299 C17.8873361,30.3184299 18.2704676,29.5084257 18.8275001,27.9234444 C19.3831586,26.3041974 19.5221223,25.026085 19.4184883,24.0472267 C19.3123028,23.1060608 19.3476326,22.0942694 19.4879702,21.0497352 C21.4693805,20.9463668 22.9292844,20.9825362 23.8335298,21.1167437 C24.7687869,21.2842652 25.3277821,21.3189116 25.5007016,21.2178277 C25.639469,21.1167437 25.7444769,21.0158501 25.7444769,20.9130529 C25.7444769,20.8462347 25.6736211,20.6446379 25.5699871,20.3082624 C25.4651755,19.9359079 25.0484807,19.6328464 24.3183325,19.3990779 C23.5887731,19.1622635 23.1377299,19.0596566 22.9618663,19.0596566 C22.7553835,19.0596566 21.5714442,19.2618245 19.4184883,19.7013779 C19.4184883,19.1931027 19.4542106,18.857679 19.5221223,18.6886347 C19.6267376,18.4887511 19.8351831,18.3168513 20.1823961,18.1169678 C20.5651351,17.9142288 20.7382509,17.6441004 20.7382509,17.307725 C20.7040988,16.936132 20.494083,16.667717 20.0777808,16.4986726 C19.661086,16.3629422 19.3123028,16.1276507 19.0343754,15.7897523 C20.6346169,15.1851522 21.4326768,14.8470635 21.4326768,14.7454084 C21.4326768,14.6782095 21.1916494,14.3410726 20.7040988,13.7355207 C20.670143,13.6685121 20.5990909,13.5984577 20.5315718,13.5320202 C20.5651351,13.2620822 20.5651351,12.9557845 20.5651351,12.5562078 C20.5315718,11.8472875 20.5651351,11.4100185 20.6346169,11.2409741 C20.7040988,11.0707876 21.4693805,11.1730137 22.9292844,11.441048 C24.4233404,11.7433481 25.3277821,11.8472875 25.6736211,11.8472875 L25.6736211,11.8472875 Z" id="Fill-10" fill="#592F14" mask="url(#mask-4)"></path>
                        <path d="M50.0664012,10.0434433 C49.5704108,11.5178224 49.1749138,12.3179276 48.9097444,12.4129199 C48.6463414,12.4778344 47.489292,12.924241 45.4103324,13.7584216 L45.6753055,11.7732925 C46.565419,11.9333897 48.0196309,11.3571541 50.0664012,10.0434433 M43.3649359,9.27589054 L40.5248164,13.0230406 C40.5248164,12.7024654 40.293799,12.1248972 39.8610096,11.2924299 C39.4674754,10.4597722 39.3027995,10.0110812 39.4034893,9.91685042 C39.4674754,9.8188123 39.9944775,9.53078964 40.9542691,8.92295333 C41.8795161,8.34519473 42.3389992,7.92905624 42.3389992,7.77067234 C42.3389992,7.61076551 42.2398796,7.41773512 42.0755962,7.19386556 C41.9109203,7.00292919 41.6475174,6.84168981 41.3154177,6.71490654 C40.9542691,6.58507742 40.3571963,6.61686842 39.4982908,6.77677525 C40.1958571,5.43298679 40.4594563,4.56872846 40.293799,4.15087669 C40.0935971,3.73549966 39.6317587,3.41340162 38.8747206,3.15850252 C38.0809789,2.90379379 37.5522102,2.7754876 37.2874333,2.7754876 C37.05779,2.7754876 36.8933103,2.90379379 36.7914429,3.15850252 C36.6950712,3.41340162 36.6607228,4.05512295 36.6607228,5.04825858 C36.9924299,4.34409744 37.2560291,4.31154498 37.4203125,4.88835175 C37.6191405,5.49618807 37.6515261,6.13581538 37.5522102,6.80837589 C37.4868502,7.44933576 36.2000621,8.53822511 33.6902757,10.138626 C31.2126786,11.7085684 29.8929161,12.5412261 29.7282402,12.5412261 C29.5286271,12.5412261 29.232446,12.4454723 28.8027969,12.284804 C28.3747181,12.1248972 28.2755985,12.284804 28.5391977,12.7325432 C28.8027969,13.1837089 29.3641474,13.8216229 30.2248195,14.6224896 C31.0805846,15.3925171 31.6435053,15.7762935 31.9084785,15.7762935 C32.1394958,15.7762935 33.0298056,15.1345722 34.5801929,13.8863471 C36.1337206,12.6691515 36.9924299,11.9649904 37.1569095,11.8050836 C36.8279503,13.9512616 36.1647323,15.4224045 35.2067072,16.2257459 C34.2838155,17.0235668 33.7228576,17.6968887 33.5568077,18.2413334 C33.3925244,18.753416 33.2934048,19.2015358 33.2934048,19.5219206 C33.2934048,19.8754289 33.3925244,20.3235487 33.5568077,20.8995941 C33.7228576,21.5089533 33.8885148,21.796976 34.0529945,21.796976 C34.2512336,21.796976 35.0108233,20.8678031 36.3973199,19.0429616 C36.5643511,20.8678031 36.595559,21.9252821 36.4964394,22.1801812 C36.4652315,22.4048123 36.4310794,22.6279204 36.4310794,22.7895405 C36.3973199,22.9494473 36.6269632,23.6838765 37.0888016,25.0289975 C37.5865586,26.3760222 38.0156188,26.8873433 38.3106222,26.569243 C38.5753991,26.2153539 38.741449,25.9914844 38.741449,25.8949692 C38.741449,25.8315775 38.6423294,25.3821251 38.4099381,24.5508 C38.1800984,23.7171905 38.0809789,22.9161334 38.1135607,22.1801812 C38.1800984,21.4109152 38.2144468,20.3551494 38.2144468,19.0090765 C38.2144468,17.6968887 38.9059286,16.1926223 40.293799,14.5274973 C41.6475174,12.8625626 42.6707063,11.100732 43.3649359,9.27589054 M58.0238392,24.2313671 C58.0238392,23.7819146 57.7908591,23.0450107 57.3288245,21.987722 C56.8699303,20.9311947 56.3735472,20.3235487 55.8436009,20.1636419 L50.8259909,18.5303079 C52.9720771,17.1200819 54.0606261,16.3523388 54.0606261,16.2257459 C54.0292218,16.0959168 53.929906,15.7762935 53.6975147,15.2619265 C53.5008458,14.783729 53.1703163,14.3660676 52.7410598,14.0454924 C52.3114108,13.6933167 51.7502565,13.9512616 51.0560269,14.8789116 C50.3979121,15.8410177 49.7686499,16.4804546 49.2072994,16.8004587 C48.6463414,17.1200819 47.987049,17.3462359 47.2600412,17.4404667 C46.5314632,17.5038583 46.0692323,17.8244335 45.9065191,18.4004788 C45.740273,18.9788085 45.6413497,19.3945662 45.6413497,19.6515593 C45.6413497,19.9070295 46.169922,20.0353357 47.1931109,20.0353357 C47.7528913,20.0353357 48.3499641,20.130328 49.0416421,20.3235487 C48.745461,20.674963 48.4490837,21.0595009 48.1187505,21.5089533 C46.9962457,23.0450107 46.1035806,23.9086979 45.4103324,24.1649296 C44.7170841,24.4230649 44.2890053,24.1649296 44.2236452,23.4287871 C44.121974,22.6597114 44.4534849,20.1952426 45.1479108,16.0325251 C45.4766738,16.1926223 45.805633,16.2257459 46.1035806,16.1275174 C46.4007431,16.0643161 46.7310763,15.9375329 47.0612132,15.7762935 C47.4245208,15.6148637 47.5901781,15.5213944 49.6041703,14.6558035 C50.9253068,14.0780449 51.5845992,13.7584216 51.5845992,13.661716 C51.5845992,13.5667238 51.321,13.3419024 50.793409,13.0230406 C53.0374372,9.43655883 54.1909536,7.48112676 54.2930173,7.19386556 C54.3923332,6.93725318 53.7970269,6.29705477 52.5098462,5.30544206 C51.1891023,4.27842142 50.2989888,3.80022386 49.7686499,3.83125339 C49.2726595,3.86437695 48.3173822,4.18571353 46.9310819,4.82438902 C45.5757934,5.46458743 44.4534849,6.68178298 43.5945793,8.50586302 C45.6413497,7.86699716 46.7978103,7.54737387 47.0612132,7.54737387 C47.3250087,7.51425032 47.853581,7.12971247 48.6137596,6.39356996 C49.4059311,5.65609489 49.9331296,5.2728896 50.198299,5.2728896 C50.42912,5.2728896 50.6605299,5.52950199 50.8259909,6.04082311 C50.9904705,6.52187615 50.8259909,7.51425032 50.2989888,9.01870706 C49.2726595,8.34519473 48.7111127,8.02709436 48.6137596,8.02709436 C48.5440814,8.02709436 47.987049,8.31207117 46.9622899,8.79617006 C45.9065191,9.30672972 45.2474229,9.46815947 44.9834312,9.30672972 C44.7514325,9.11598372 44.5188449,9.01870706 44.3543653,9.01870706 C44.1885117,9.01870706 44.0226582,9.05125952 43.8583748,9.14758435 C43.6938952,9.24428991 43.5619975,9.49918901 43.4640555,9.91685042 C43.3649359,10.331466 43.3311764,10.876101 43.3311764,11.5486615 C43.3311764,12.1903829 43.1977085,13.7266306 42.9343055,16.1593084 C42.7019143,18.5619085 42.7358701,20.674963 42.9680651,22.500566 C43.2320568,24.35796 43.6275538,25.5749651 44.121974,26.1521527 C44.6517241,26.7597986 45.0801954,27.1129262 45.5110222,27.1763178 C45.9728605,27.2718812 46.2690416,27.2395191 46.4350915,27.1445268 C46.5993748,27.0803737 47.1591551,26.3427083 48.1187505,24.9357186 C48.8461508,23.8137056 49.4402795,22.4048123 49.9021179,20.674963 C50.2989888,20.8038403 50.6927192,20.9627953 51.0895901,21.1560161 C52.6089658,21.9252821 53.8973241,22.6279204 54.9193353,23.2372796 C55.9768726,23.8769069 56.736266,24.3263593 57.2636607,24.582591 C57.7908591,24.7740984 58.0558323,24.9024046 58.0238392,24.2313671" id="Fill-11" fill="#592F14" mask="url(#mask-4)"></path>
                        <path d="M12.0695661,28.834209 C12.0695661,28.9838361 11.9449306,29.1028144 11.791835,29.1028144 L1.66750545,29.1028144 C1.51460613,29.1028144 1.38957806,28.9838361 1.38957806,28.834209 L1.38957806,28.828498 C1.38957806,28.6803938 1.51460613,28.5589408 1.66750545,28.5589408 L11.791835,28.5589408 C11.9449306,28.5589408 12.0695661,28.6803938 12.0695661,28.828498 L12.0695661,28.834209" id="Fill-12" fill="#592F14" mask="url(#mask-4)"></path>
                        <path d="M1.66805503,29.3530686 C1.37265904,29.3530686 1.13025768,29.1225362 1.13025768,28.8335617 L1.13025768,28.8284219 C1.13025768,28.5402088 1.36951861,28.3073921 1.66805503,28.3073921 L11.7917957,28.3073921 C12.0887619,28.3073921 12.327434,28.5402088 12.328808,28.8284219 L12.328808,28.8335617 C12.328808,28.8381305 12.328808,28.8426993 12.3286117,28.8478391 C12.3189941,29.1309123 12.0801257,29.3530686 11.7917957,29.3530686 L1.66805503,29.3530686 Z" id="Fill-13" fill="#7C8084" mask="url(#mask-4)"></path>
                        <path d="M56.719661,28.834209 C56.719661,28.9838361 56.5977734,29.1028144 56.4431076,29.1028144 L20.2475795,29.1028144 C20.0933062,29.1028144 19.9684745,28.9838361 19.9684745,28.834209 L19.9684745,28.828498 C19.9684745,28.6803938 20.0933062,28.5589408 20.2475795,28.5589408 L56.4431076,28.5589408 C56.5977734,28.5589408 56.719661,28.6803938 56.719661,28.828498 L56.719661,28.834209" id="Fill-14" fill="#592F14" mask="url(#mask-4)"></path>
                        <path d="M20.2473243,29.3530686 C19.9533023,29.3530686 19.7097233,29.1225362 19.7079568,28.8335617 L19.7079568,28.8284219 C19.7097233,28.5386859 19.9501619,28.3073921 20.2473243,28.3073921 L56.4438338,28.3073921 C56.7423702,28.3073921 56.9779019,28.5440162 56.9794721,28.8284219 L56.9794721,28.8335617 C56.9794721,28.8381305 56.9794721,28.8426993 56.9792758,28.8478391 C56.9690695,29.1274857 56.7337341,29.3530686 56.4438338,29.3530686 L20.2473243,29.3530686 Z" id="Fill-15" fill="#7C8084" mask="url(#mask-4)"></path>
                    </g>
                </g>
            </g>
        </g>
    </g>
</svg>