<?xml version="1.0" encoding="UTF-8" standalone="no"?>
<svg width="306px" height="381px" viewBox="0 0 306 381" version="1.1" xmlns="http://www.w3.org/2000/svg" xmlns:xlink="http://www.w3.org/1999/xlink">
    <!-- Generator: Sketch 3.6 (26304) - http://www.bohemiancoding.com/sketch -->
    <title>Fill 1</title>
    <desc>Created with Sketch.</desc>
    <defs></defs>
    <g id="Page-1" stroke="none" stroke-width="1" fill="none" fill-rule="evenodd" opacity="0.889400653">
        <g id="JPMorgan-Mobile-Part2" transform="translate(-9.000000, -4022.000000)" fill="#F4F4F4">
            <g id="07" transform="translate(-20.000000, 3768.000000)">
                <g id="wording" transform="translate(29.000000, 254.000000)">
                    <path d="M305.520045,189.856336 C302.314918,136.863948 300.712958,110.366529 301.971124,99.8921163 C304.973593,74.8927926 299.015701,54.09108 302.91686,29.1873795 C303.400584,26.1053718 305.115936,16.0600375 298.657431,9.80530283 C297.604335,8.78532258 294.998738,6.57127891 286.355632,4.28367897 C276.991163,1.80238086 268.78353,1.43950327 264.841357,1.41253264 C258.522783,-0.0684002217 252.27538,0.431782401 246.976125,1.12321132 C228.20979,1.25316073 208.080342,2.92043614 190.351421,3.39119625 C164.178433,2.8738505 137.957194,0.983454412 111.773349,0.294477368 C89.0600166,-0.30378028 66.3177327,0.0100597976 43.6369698,1.23109385 C43.1821965,1.2556126 32.4799453,0.684325589 19.6437578,4.08262518 C11.0018588,6.37267699 8.39505479,8.58672066 7.34195906,9.60670091 C0.883454409,15.8614356 2.60001252,25.9067699 3.08253061,28.9887776 C6.98368937,53.8900262 1.02579725,74.6917388 4.02947236,99.6935143 C5.28763828,110.167927 3.68447193,136.662895 0.479345508,189.655282 C-1.54602418,223.135643 6.58681824,315.588517 0.523978431,348.681482 C-0.0852006583,352.001321 -1.02369835,360.090059 3.42391216,367.575635 C10.3396027,379.217141 28.2000098,380.788793 42.9361123,379.651123 C63.1307007,378.089278 83.2468799,374.247189 103.476451,375.406926 C120.838658,376.399936 119.356121,378.511 141.6376,380.60245 C147.240842,381.127152 155.306132,381.078114 164.364202,380.769178 C182.135344,380.14395 202.860702,378.618883 217.016577,378.297687 C250.57571,377.540058 266.639943,383.147497 277.96223,379.835013 C288.26761,378.888589 297.911941,375.627595 302.575478,367.776689 C307.024295,360.288661 306.084591,352.199923 305.476618,348.880084 C299.413778,315.789571 307.545414,223.336697 305.520045,189.856336 Z" id="Fill-1"></path>
                </g>
            </g>
        </g>
    </g>
</svg>