<?xml version="1.0" encoding="UTF-8" standalone="no"?>
<svg width="282px" height="401px" viewBox="0 0 282 401" version="1.1" xmlns="http://www.w3.org/2000/svg" xmlns:xlink="http://www.w3.org/1999/xlink">
    <!-- Generator: Sketch 3.6 (26304) - http://www.bohemiancoding.com/sketch -->
    <title>Combined Shape</title>
    <desc>Created with Sketch.</desc>
    <defs></defs>
    <g id="Page-1" stroke="none" stroke-width="1" fill="none" fill-rule="evenodd">
        <g id="JPMorgan-Mobile-Part4" transform="translate(-19.000000, -221.000000)" fill="#EEEEEE">
            <g id="01" transform="translate(-39.000000, -6.000000)">
                <g id="text" transform="translate(58.000000, 227.000000)">
                    <path d="M237.671106,15.2491404 C235.000963,10.3958854 230.544561,4.90046117 223.125958,0.549848778 L225.929652,16.0942449 C207.527976,16.554945 173.955392,18.1660102 160.674675,18.6570136 C138.619494,18.0486989 116.523624,15.8162986 94.4599271,15.0028211 C75.3201406,14.2983812 56.1557517,14.6671002 37.0434064,16.1089783 C36.6601754,16.1376724 27.6424187,15.4619266 16.8258419,19.4762299 C9.54256034,22.1777785 7.3463155,24.7903755 6.45967982,25.9940926 C1.01685331,33.3785169 2.46272238,45.2349153 2.86960962,48.8747607 C6.15688001,78.2718569 1.13702698,108.399218 3.66729786,137.912525 C4.72804343,150.276809 3.3767993,181.554802 0.67620353,244.109355 C-1.02988413,283.632596 5.82190773,323.785672 0.713107256,362.848373 C0.200240085,366.766551 -0.590824407,376.315945 3.15726944,385.153725 C8.9842732,398.895325 24.035316,400.750398 36.4529468,399.40608 C53.4702959,397.565354 70.4214075,393.028818 87.4680903,394.397526 C102.098052,395.571114 100.849949,398.061761 119.62543,400.529453 C124.346268,401.149246 131.143177,401.093292 138.775625,400.727443 C153.750968,399.990004 171.215893,398.188015 183.144313,397.810688 C211.423922,396.915433 248.618147,403.533725 258.160126,399.625589 C266.84291,398.50652 274.971193,394.657208 278.900966,385.390451 C282.64906,376.551236 281.857996,367.003277 281.345128,363.083665 C276.235382,324.020964 283.08812,283.867888 281.382032,244.346082 C278.68049,181.790094 277.330192,150.5121 278.390938,138.147816 C280.921209,108.635944 275.900409,78.5071484 279.188626,49.111487 C279.595513,45.4716416 281.041382,33.6138085 275.598556,26.2293842 C274.71192,25.0256671 272.515675,22.4130701 265.232394,19.7115214 C257.34162,16.7832894 250.425483,16.3528781 247.103202,16.3213146 C243.882643,15.2643549 240.68424,15.0629492 237.671106,15.2491404 Z" id="Combined-Shape"></path>
                </g>
            </g>
        </g>
    </g>
</svg>