<?xml version="1.0" encoding="UTF-8" standalone="no"?>
<svg width="57px" height="39px" viewBox="0 0 57 39" version="1.1" xmlns="http://www.w3.org/2000/svg" xmlns:xlink="http://www.w3.org/1999/xlink">
    <!-- Generator: Sketch 3.6.1 (26313) - http://www.bohemiancoding.com/sketch -->
    <title>morgan_logo</title>
    <desc>Created with Sketch.</desc>
    <defs>
        <path id="path-1" d="M0,0.14586506 L55.9075351,0.14586506 L55.9075351,38.7626293 L0,38.7626293 L0,0.14586506 Z"></path>
        <path id="path-3" d="M0,0.14586506 L55.9075351,0.14586506 L55.9075351,38.7626293 L0,38.7626293 L0,0.14586506 Z"></path>
    </defs>
    <g id="Page-1" stroke="none" stroke-width="1" fill="none" fill-rule="evenodd">
        <g id="JPMorgan-Part-1" transform="translate(-12.000000, -13.000000)">
            <g id="index" transform="translate(-320.000000, 0.000000)">
                <g id="top" transform="translate(319.000000, 0.000000)">
                    <g id="morgan_logo" transform="translate(13.299727, 13.000000)">
                        <g id="Group-3">
                            <mask id="mask-2" fill="white">
                                <use xlink:href="#path-1"></use>
                            </mask>
                            <g id="Clip-2"></g>
                            <path d="M9.15822596,33.4050094 C8.54929382,34.2842413 7.98253307,34.3555205 7.65367189,34.4820961 L9.97215266,34.4820961 L10.4816133,34.4506818 C9.96402095,34.2280263 9.5366338,33.9302338 9.15822596,33.4050094 L9.15822596,33.4050094 Z M6.46247202,36.9579442 L9.96402095,36.9579442 L9.96402095,36.638474 L6.46247202,36.638474 L6.46247202,36.9579442 Z M6.46247202,36.1442964 L9.96402095,36.1442964 L9.96402095,35.8082924 L6.46247202,35.8082924 L6.46247202,36.1442964 Z M6.46247202,35.3130125 L9.96402095,35.3130125 L9.96402095,34.9944609 L6.46247202,34.9944609 L6.46247202,35.3130125 Z M6.85733237,32.4153682 L6.560998,33.0221595 C6.03508486,32.5911778 5.13133123,32.3047753 5.13133123,32.3047753 L5.39305858,31.7602614 C5.86167158,31.9355199 6.85733237,32.4153682 6.85733237,32.4153682 L6.85733237,32.4153682 Z M11.3859342,38.1711594 L11.0071482,38.7307374 C11.0071482,38.7307374 9.77453337,38.0921644 8.67221491,37.8829197 L9.00126519,37.4528566 L7.30797998,37.4528566 L7.88438531,37.8829197 C7.88438531,37.8829197 6.04340568,38.6017736 5.27070483,38.7627028 C5.20470566,38.5066123 5.08897073,38.3616658 4.892297,38.1876932 C5.47664492,38.1237624 6.56894059,37.8211935 7.18505889,37.4528566 L6.38758471,37.4528566 L5.79623974,37.486108 L5.81269226,36.8631503 L5.81269226,35.0730884 L5.77997634,34.4506818 L6.43826602,34.4820961 L6.90517704,34.4820961 C6.90517704,34.4820961 6.84087985,34.300224 6.560998,34.1240469 C7.80911978,33.9972876 8.50012539,33.5964343 8.81291227,32.7341036 L8.23688516,32.7341036 L7.66142537,33.3576124 C7.66142537,33.3576124 7.53037258,33.1336709 7.0540061,33.0701076 C7.66142537,32.607528 8.02375891,31.8243759 8.20530389,31.4734914 L8.89498573,31.8243759 C8.89498573,31.8243759 8.71438629,32.048501 8.58182063,32.207042 L10.5716293,32.207042 L11.4101402,32.1750766 L10.9173212,33.4851065 C10.9173212,33.4851065 10.6374394,33.3105829 10.2590316,33.2942327 L10.5228391,32.7341036 L9.45493855,32.7341036 C9.45493855,32.7341036 9.43697316,32.8461661 9.38780473,32.9407763 C9.89745446,33.6596302 11.3104796,34.0913467 11.8210749,34.0913467 C11.8210749,34.0913467 11.5086662,34.458765 11.4757612,34.8102006 C11.1712951,34.7150393 10.8916024,34.6263077 10.645382,34.5225121 L10.6126661,35.1225061 L10.6126661,36.9099961 L10.645382,37.486108 L10.0366389,37.4528566 L9.1913201,37.4528566 C9.70059161,37.5897199 10.8435686,37.8829197 11.3859342,38.1711594 L11.3859342,38.1711594 Z M7.02110107,33.7092317 C6.17445846,34.1075131 5.01521808,34.6496388 5.01521808,34.6496388 L4.68597868,34.0294367 C5.60788682,33.7950239 6.87378488,33.1661875 6.87378488,33.1661875 L7.02110107,33.7092317 L7.02110107,33.7092317 Z" id="Fill-1" fill="#7C8084" mask="url(#mask-2)"></path>
                        </g>
                        <path d="M21.2632675,32.8375685 C21.3875123,32.9566121 21.5187542,33.0701443 21.6745803,33.1496904 C21.8217074,33.0934754 22.0032524,32.9255652 22.1110447,32.8375685 L21.2632675,32.8375685 Z M21.6414862,33.6525023 C21.3875123,33.7559306 21.0009728,33.8591751 20.6804324,33.9477229 L22.4962605,33.9477229 C22.168534,33.8768112 21.890165,33.7790779 21.6414862,33.6525023 L21.6414862,33.6525023 Z M23.9113658,38.5154671 L20.1214251,38.5154671 C19.8578067,38.5154671 19.3008796,38.5472487 19.3008796,38.5472487 L19.3008796,37.8994903 C19.3008796,37.8994903 19.7596589,37.9316394 20.1380668,37.9316394 L21.6660704,37.9316394 L21.6660704,37.1907404 L20.9669331,37.1907404 C20.5981698,37.1907404 20.2050115,37.2212361 20.2050115,37.2212361 L20.2050115,36.5925834 C20.2050115,36.5925834 20.7538068,36.6230792 20.9519935,36.6230792 L21.6660704,36.6230792 L21.6660704,36.0001215 L20.3525168,36.0144508 C20.2691195,36.2789919 19.9563327,36.791173 19.8417324,36.9579809 C19.5629852,36.7164034 19.2093507,36.6385107 19.2093507,36.6385107 C19.2093507,36.6385107 19.8990325,35.9113899 20.064125,34.6654745 L20.8863725,34.9053987 C20.8863725,34.9053987 20.7538068,35.1063765 20.5981698,35.4405434 L21.6660704,35.4405434 L21.6660704,35.2019052 L21.6496179,34.6437968 L22.3816602,34.6437968 L22.3485661,35.1859225 L22.3485661,35.4405434 L23.6394266,35.4405434 C24.0095136,35.4405434 24.2061873,35.4003111 24.2061873,35.4003111 L24.2061873,36.0241874 L23.6462345,36.0001215 L22.3485661,36.0001215 L22.3485661,36.6230792 L23.252887,36.6127915 C23.6328078,36.6056268 23.9682878,36.5822957 23.9682878,36.5822957 L23.9682878,37.2124181 C23.9682878,37.2124181 23.4660133,37.2052534 23.2693396,37.1980888 L22.3485661,37.1907404 L22.3485661,37.9316394 L23.8949133,37.9316394 L24.7496876,37.8923256 L24.7496876,38.5553319 C24.7496876,38.5553319 24.27994,38.5154671 23.9113658,38.5154671 L23.9113658,38.5154671 Z M24.0503612,34.4986666 L19.2093507,34.4986666 C19.2093507,34.4986666 19.2256141,35.7135352 19.2093507,36.096385 C19.1439189,37.6535038 18.2972762,38.650677 18.2972762,38.650677 C18.2972762,38.650677 18.0497321,38.379706 17.6894788,38.139047 C17.6894788,38.139047 18.5276114,37.5559542 18.5276114,35.9371092 L18.5276114,34.4747844 L18.4950846,33.9172272 L19.201219,33.9405582 C19.1259535,33.8036949 19.1015584,33.7318647 18.9786373,33.6363359 C18.9786373,33.6363359 20.2050115,33.5490741 20.9421598,33.3738155 C20.8604645,33.3018016 20.5571331,33.10064 20.3687802,32.8375685 L19.413967,32.8375685 L18.7492476,32.8693502 L18.7492476,32.2333492 L19.4400641,32.2638449 L21.2481387,32.2638449 C21.207102,32.1181635 21.1496127,31.9671546 21.0675393,31.8635427 C21.0675393,31.8635427 21.584186,31.6730363 21.8148995,31.5912857 C21.8148995,31.5912857 22.0372921,31.8876086 22.1178527,32.2638449 L23.8196478,32.2638449 L24.3945403,32.2333492 L24.3945403,32.8693502 L23.8196478,32.8375685 L23.0480816,32.8375685 C22.8843129,33.0288098 22.5702023,33.2303387 22.3733394,33.3576491 C22.8663475,33.5330914 23.2120394,33.6043705 24.3289193,33.6525023 C24.1895457,33.7480311 24.1405664,33.812513 24.0503612,33.9477229 L24.7415559,33.9172272 L24.7415559,34.5300809 L24.0503612,34.4986666 L24.0503612,34.4986666 Z" id="Fill-4" fill="#7C8084"></path>
                        <path d="M35.5817395,31.4968776 C35.5817395,31.4968776 36.2712322,31.7531518 36.402285,31.8001814 C36.2058004,31.9436582 35.992485,32.1663137 35.992485,32.1663137 L37.3406456,32.1663137 L37.9906145,32.134532 L37.9906145,32.7268103 L37.356909,32.6948449 L36.6825451,32.6948449 C36.6825451,32.6948449 36.8627663,33.2222739 36.9281981,33.4458479 C36.9281981,33.4458479 36.4694188,33.4458479 36.1891587,33.5564408 C36.1742191,33.2064749 36.0730456,32.6948449 36.0730456,32.6948449 L35.6471713,32.6948449 C35.6471713,32.6948449 35.4164579,33.0143151 35.2184604,33.2222739 C35.0382392,33.0460968 34.6774185,32.8375869 34.6774185,32.8375869 C34.9726182,32.5666159 35.2855942,32.3107091 35.5817395,31.4968776 L35.5817395,31.4968776 Z M33.0334908,37.7088186 L36.1891587,37.7088186 L36.1891587,37.2458715 L33.0334908,37.2458715 L33.0334908,37.7088186 Z M33.0334908,35.6801185 L35.9259185,35.6801185 L35.9259185,35.2649358 L33.0334908,35.2649358 L33.0334908,35.6801185 Z M36.6165459,34.6746784 L36.5840191,35.2972686 L36.5840191,35.601491 L36.6165459,36.2707434 L35.909466,36.238778 L33.0334908,36.238778 L33.0334908,36.7164218 L36.1241051,36.7164218 L36.8788406,36.6868446 L36.8463138,37.276551 L36.8463138,37.9636232 L36.8788406,38.6988272 L36.1891587,38.6988272 L36.1891587,38.2661921 L33.0334908,38.2661921 L33.0334908,38.7465915 L32.3343535,38.7465915 L32.3753903,37.8047147 L32.3753903,35.3784681 L32.3424852,34.6812919 L33.0824702,34.7053578 L35.7619607,34.7053578 L36.6165459,34.6746784 Z M32.4585984,31.4810786 C32.4585984,31.4810786 33.1155643,31.7843824 33.2462389,31.8323305 C33.0499433,31.9758073 32.8517567,32.2159152 32.8517567,32.2159152 L33.7572124,32.2159152 L34.5040052,32.1837661 L34.5040052,32.7420582 L33.8061917,32.7106439 L33.5429515,32.7106439 C33.5429515,32.7106439 33.6740042,33.0934938 33.7407598,33.4298652 C33.7407598,33.4298652 33.3131836,33.4298652 33.0005858,33.5724235 C33.0005858,33.2849187 32.9185123,32.7106439 32.9185123,32.7106439 L32.5075777,32.7106439 C32.5075777,32.7106439 32.129359,33.1574245 31.7851799,33.5092275 C31.6038241,33.2222739 31.2910372,33.0760414 31.2910372,33.0760414 C31.570919,32.8693686 32.0968322,32.3439604 32.4585984,31.4810786 L32.4585984,31.4810786 Z M37.299798,33.8037133 L37.9554402,33.7719316 L37.922346,34.2187123 L37.922346,34.4588201 L37.9647065,35.1297259 L37.2653801,35.1297259 L37.2653801,34.3474924 L31.9166109,34.3474924 L31.9166109,34.7615728 L31.9084792,35.1139269 L31.2172845,35.1139269 L31.2581322,34.5861305 L31.2581322,34.3320608 L31.225038,33.7631136 L31.9166109,33.8037133 L34.3389128,33.8037133 C34.3389128,33.8037133 34.2500314,33.477997 34.0688646,33.2942879 L34.8496971,33.1497088 C34.980939,33.4050645 35.129579,33.8037133 35.129579,33.8037133 L37.299798,33.8037133 L37.299798,33.8037133 Z" id="Fill-6" fill="#7C8084"></path>
                        <mask id="mask-4" fill="white">
                            <use xlink:href="#path-3"></use>
                        </mask>
                        <g id="Clip-9"></g>
                        <path d="M49.2077687,35.0976319 L50.1198431,35.0976319 L50.1198431,34.0758417 L49.2077687,34.0758417 L49.2077687,35.0976319 Z M49.2077687,33.4850331 L50.1198431,33.4850331 L50.1198431,32.5032914 L49.2077687,32.5032914 L49.2077687,33.4850331 Z M47.6945155,35.0976319 L48.5593127,35.0976319 L48.5593127,34.0758417 L47.6945155,34.0758417 L47.6945155,35.0976319 Z M47.6945155,33.4850331 L48.5593127,33.4850331 L48.5593127,32.5032914 L47.6945155,32.5032914 L47.6945155,33.4850331 Z M48.5593127,35.7046069 L47.679765,35.7046069 L46.9970802,35.7378583 L47.0394407,35.1226164 L47.0394407,32.6307855 L46.9970802,31.8797826 L47.6716333,31.9115642 L50.0871272,31.9115642 L50.8191695,31.8797826 L50.7781328,32.5753054 L50.7781328,35.201795 L50.8191695,35.7439207 L50.119654,35.7046069 L49.2077687,35.7046069 L49.2077687,36.4862893 L50.1610689,36.4862893 L50.7864536,36.4541402 L50.7864536,37.1178814 L50.1773323,37.0932643 L49.2077687,37.0932643 L49.2077687,37.9241808 L50.5557402,37.9241808 L51.2123279,37.8923991 L51.2123279,38.6017001 L50.4572142,38.572123 L47.0394407,38.572123 L46.413867,38.6017001 L46.413867,37.8923991 L47.0394407,37.9241808 L48.5593127,37.9241808 L48.5593127,37.0932643 L47.7122918,37.0932643 L47.1033597,37.1178814 L47.1033597,36.4541402 L47.6945155,36.4862893 L48.5593127,36.4862893 L48.5593127,35.7046069 Z M46.2828142,32.2071523 L46.6759725,32.1750031 L46.6759725,32.86924 L46.315341,32.837642 L45.82082,32.837642 L45.82082,34.5068233 L46.1351198,34.5068233 L46.5778248,34.4746742 L46.5778248,35.1938955 L46.1515723,35.1617464 L45.82082,35.1617464 L45.82082,37.0137183 L46.6759725,36.6231526 C46.6759725,36.6231526 46.6759725,37.0770979 46.692425,37.4046513 C46.692425,37.4046513 45.7226722,37.7250401 44.3750789,38.3615923 L44.1619527,37.5023846 C44.1619527,37.5023846 44.581019,37.4527831 45.1734987,37.2051432 L45.1734987,35.1617464 L44.7532976,35.1617464 L44.3434977,35.1938955 L44.3434977,34.4586915 L44.7858245,34.5068233 L45.1734987,34.5068233 L45.1734987,32.837642 L44.8363167,32.837642 L44.3105926,32.86924 L44.3105926,32.1750031 L44.8189186,32.2071523 L46.2828142,32.2071523 L46.2828142,32.2071523 Z" id="Fill-8" fill="#7C8084" mask="url(#mask-4)"></path>
                        <path d="M12.2458523,7.13792693 C12.2458523,7.39787537 12.2133255,7.69254483 12.1461917,8.04985912 C12.0794361,8.37447317 11.377273,8.99302186 10.0037717,9.87060044 L9.50092995,9.87060044 C9.6351976,9.67788955 9.73485823,9.44935537 9.83584263,9.22063749 C10.571478,7.78862471 10.9404304,7.00786085 10.9404304,6.91104613 C10.9404304,6.87889703 10.9079036,6.78153119 10.8749986,6.6169278 C11.2439509,6.52158275 11.6110122,6.42201239 12.0124914,6.29102777 C12.1790967,6.68251196 12.2458523,6.97644659 12.2458523,7.13792693 L12.2458523,7.13792693 Z M18.4760602,8.82988814 C16.3319383,10.4237487 15.2260267,11.3681974 15.1604058,11.6268599 C15.0917591,11.8559452 15.0917591,12.1171796 15.1929326,12.3776791 C15.2941061,12.6361579 15.3952796,12.7678773 15.4949403,12.7678773 C15.5615068,12.7342586 16.4658277,12.1171796 18.173107,10.8786125 C17.9391788,11.6922603 17.7385337,12.3776791 17.5376996,12.9613231 C17.0365598,13.1562385 16.4658277,13.4161869 15.7638538,13.7415358 C14.9595717,14.1315503 14.2209105,14.4576341 13.5845575,14.7837178 C13.6526369,13.2874068 14.5238637,11.4659306 16.2307648,9.28787504 L18.4760602,8.82988814 Z M18.1400129,6.19623386 C18.2069576,6.52158275 17.704494,7.23694616 16.5993389,8.34177295 L16.4987327,8.14502045 L13.9546445,10.2934989 C13.7863372,9.77305089 14.0883448,9.28787504 14.859911,8.73086891 C15.5944118,8.21060462 15.9629859,7.82059011 15.9629859,7.65837493 C15.0267055,7.39787537 14.289179,6.78153119 13.7178796,5.80474967 C15.2260267,5.28356683 16.3644651,4.95766681 17.1350858,4.7967376 C17.704494,5.38203493 18.0403523,5.83891957 18.1400129,6.19623386 L18.1400129,6.19623386 Z M24.7361474,11.4330467 C23.9997556,10.0983998 23.4974811,9.38083186 23.2281894,9.31837075 C22.9632472,9.25352143 21.8902406,9.31837075 19.9809925,9.54690493 C20.2839457,8.53668835 20.7837618,7.88452089 21.4885724,7.59499528 C22.1576413,7.33302604 22.458136,7.07399614 22.3584754,6.81202691 C22.2571128,6.55207847 21.5228011,6.29102777 20.1146928,6.00131845 C19.9153716,5.512101 19.7132137,5.21890121 19.5467974,5.15423559 C19.3786792,5.05668604 19.210561,4.8952057 19.0439556,4.63305275 C18.9772,4.6018222 18.9431604,4.56912197 18.9100662,4.53770771 C19.1778451,4.50353781 19.3786792,4.50353781 19.5467974,4.50353781 C19.8811428,4.50353781 20.5519137,4.56912197 21.5228011,4.6018222 C22.458136,4.63305275 23.0288681,4.63305275 23.1956626,4.63305275 C23.3634026,4.63305275 23.6326943,4.53770771 23.9657159,4.34040409 C22.1576413,3.03919222 21.0870932,2.45426231 20.751235,2.55034219 L19.210561,2.97379176 C18.5089653,3.17036055 17.8066131,3.20324449 17.1019916,3.07281099 C17.2687861,2.55034219 17.068141,2.06479892 16.5327724,1.57576518 C15.9960801,1.05403121 14.7557118,0.599902209 12.8156388,0.145773206 C13.384858,1.31526561 13.9202266,2.06479892 14.4557843,2.39014782 C14.1552895,3.07281099 13.217118,3.69080855 11.6779569,4.14695836 C10.1049452,4.63305275 9.23371842,4.8952057 9.0656002,4.99257155 C8.89880574,5.05668604 8.76548364,5.08865143 8.66279726,5.08865143 C8.59736542,5.12355617 7.85983891,5.31626706 6.48728317,5.70720012 L6.45286527,4.95766681 C5.95210368,5.28356683 5.68413571,5.512101 5.68413571,5.60983427 C5.68413571,5.67523472 5.7181754,5.83891957 5.81783603,6.09739834 C5.91806399,6.3578979 6.45286527,6.65054657 7.42507649,6.9444812 C8.02757892,7.13792693 8.86608982,7.10596154 9.9706776,6.87889703 C8.32939746,9.47985109 7.02359732,12.1171796 6.05176431,14.750099 C4.91408239,17.7425373 3.7425499,20.0857474 2.60505709,21.8105925 C1.43030974,23.5980825 0.62867516,24.3141807 0.0921719026,23.9895667 C-0.0770809756,25.1581405 -0.00919071495,25.7761381 0.260101015,25.8420897 C0.526556105,25.9412926 0.694296109,25.9734417 0.795280507,25.9734417 C0.896643125,25.9734417 0.929169935,25.9412926 1.63246765,25.6152089 C2.10070243,25.3844702 2.73724454,24.8991107 3.4394076,24.0856466 C4.10961117,23.2413193 4.94547455,21.7444572 5.91806399,19.5981833 C6.89027522,17.4179232 7.55934414,15.5317814 8.06048395,13.9044858 C8.29516866,13.0924914 8.59736542,12.2786599 8.89880574,11.4986309 C9.1665846,11.6268599 9.40126932,11.6922603 9.56806377,11.6922603 C9.73485823,11.6922603 10.6045722,11.3327415 12.1461917,10.6186641 C11.8118463,11.3681974 11.2749649,12.1171796 10.5064244,12.8310733 C9.76889791,13.5142876 9.40126932,13.9379209 9.40126932,14.1010546 C9.40126932,14.294684 9.40126932,14.3920499 9.66923728,14.750099 C9.87007142,15.0105986 10.0037717,15.1430529 10.1049452,15.1430529 C10.1699989,15.1081481 10.9746592,14.3920499 12.4811044,12.9934722 L13.4860315,14.879614 C12.6148047,15.3017776 11.8787911,15.6612964 11.3095719,15.9530265 C11.6450519,16.1167113 12.0465311,16.1822955 12.4811044,16.1822955 C12.9183252,16.1822955 13.3523312,16.1167113 13.7863372,16.0193455 C14.2209105,15.9217959 14.7916425,16.0193455 15.4949403,16.3439595 L11.8787911,17.7425373 C11.8787911,18.0700907 12.1136649,18.393235 12.5493729,18.7207884 C13.0162839,19.0450351 13.2838736,19.2059643 13.384858,19.2059643 C13.4531265,19.2059643 14.3901634,18.9463833 16.198238,18.4579007 C15.6290188,19.0766331 15.326822,19.3363978 12.748505,20.3464307 C11.0431168,20.9956588 10.1049452,21.5181276 9.93682703,21.8748907 C9.76889791,22.1978514 9.70176409,22.4585347 9.70176409,22.6227707 C9.70176409,22.8191557 9.80312671,22.9810035 9.9706776,23.1424838 C10.1699989,23.304699 10.3040774,23.371018 10.4052509,23.371018 C10.4706828,23.371018 11.2080202,23.0465877 12.5818997,22.3942365 C13.9546445,21.7751367 15.326822,21.1914927 16.7005124,20.6383445 C16.9028595,21.8105925 16.9028595,23.0465877 16.7005124,24.3141807 C16.4987327,25.5817738 16.1297804,26.2659067 15.5944118,26.3634562 C15.0592323,26.4944409 13.6526369,26.3314909 11.377273,25.9080413 C11.4101781,26.0373725 12.3470258,26.6559212 14.2209105,27.6981032 C16.0641594,28.7356924 17.0365598,29.2583449 17.1350858,29.2583449 C17.2341791,29.2583449 17.6033205,28.4766625 18.1400129,26.9471002 C18.6753815,25.3844702 18.8092709,24.151047 18.7094212,23.2064146 C18.607113,22.2981566 18.6411527,21.3217425 18.7763659,20.3137304 C20.6854249,20.2139764 22.0920203,20.2488811 22.9632472,20.378396 C23.8643533,20.5400601 24.4029367,20.5734952 24.5695421,20.4759456 C24.7032424,20.378396 24.8044159,20.2810302 24.8044159,20.1818273 C24.8044159,20.1173454 24.7361474,19.9227974 24.6362977,19.5981833 C24.5353133,19.2388482 24.1338341,18.9463833 23.4303473,18.7207884 C22.7274278,18.4922543 22.2928545,18.393235 22.1234125,18.393235 C21.9244694,18.393235 20.7837618,18.5883341 18.7094212,19.0125186 C18.7094212,18.5220151 18.7438391,18.1983196 18.8092709,18.0351859 C18.9100662,17.8422913 19.1109004,17.676402 19.4454348,17.4835074 C19.8141981,17.2878571 19.9809925,17.0271738 19.9809925,16.7025598 C19.9480875,16.3439595 19.7457405,16.0849296 19.3446395,15.9217959 C18.9431604,15.7908113 18.607113,15.5637468 18.3393342,15.2376631 C19.8811428,14.6542028 20.6500614,14.3279354 20.6500614,14.2298347 C20.6500614,14.1649854 20.4178352,13.8396365 19.9480875,13.2552577 C19.9153716,13.1905921 19.846914,13.1229871 19.7818604,13.0588726 C19.8141981,12.7983731 19.8141981,12.5027851 19.8141981,12.1171796 C19.7818604,11.4330467 19.8141981,11.0110668 19.8811428,10.8479331 C19.9480875,10.6836971 20.6854249,10.7823489 22.0920203,11.0410114 C23.5315208,11.3327415 24.4029367,11.4330467 24.7361474,11.4330467 L24.7361474,11.4330467 Z" id="Fill-10" fill="#592F14" mask="url(#mask-4)"></path>
                        <path d="M48.2382239,9.69227397 C47.7603445,11.1151013 47.3792891,11.8872308 47.1238024,11.9789017 C46.8700176,12.0415465 45.755218,12.4723444 43.7521716,13.2773579 L44.0074692,11.361639 C44.8650802,11.5161384 46.2661914,10.9600508 48.2382239,9.69227397 M41.7814629,8.95155871 L39.0450505,12.5676895 C39.0450505,12.2583233 38.8224688,11.7009498 38.4054826,10.8975897 C38.0263184,10.0940459 37.8676556,9.66104342 37.9646687,9.57010739 C38.0263184,9.47549718 38.534077,9.19754525 39.4588218,8.61096195 C40.3502833,8.0534047 40.7929883,7.65181651 40.7929883,7.49897051 C40.7929883,7.34465483 40.6974881,7.15837375 40.5392036,6.9423318 C40.3805408,6.75807153 40.126756,6.60246989 39.806783,6.4801196 C39.4588218,6.35482996 38.8835511,6.38550939 38.0560085,6.53982507 C38.7281032,5.24302222 38.9820771,4.40898271 38.8224688,4.00574114 C38.6295772,3.60488779 38.1846029,3.29405192 37.4552081,3.04806537 C36.6904498,2.80226254 36.1809892,2.67844257 35.9258807,2.67844257 C35.7046227,2.67844257 35.5461491,2.80226254 35.4480013,3.04806537 C35.3551486,3.29405192 35.3220545,3.91333544 35.3220545,4.87174604 C35.6416493,4.19220592 35.8956232,4.16079166 36.0539077,4.71743036 C36.2454755,5.30401366 36.2766786,5.92127638 36.1809892,6.57032079 C36.1180158,7.18886947 34.8782148,8.23968577 32.4600734,9.78412855 C30.072946,11.2991779 28.8013746,12.1027217 28.6427119,12.1027217 C28.4503876,12.1027217 28.1650216,12.010316 27.7510612,11.8552654 C27.3386137,11.7009498 27.2431135,11.8552654 27.4970874,12.2873493 C27.7510612,12.72274 28.291914,13.3383494 29.1211585,14.1112137 C29.9456754,14.8543172 30.488041,15.2246748 30.7433386,15.2246748 C30.9659204,15.2246748 31.8237204,14.6053913 33.3174953,13.4008105 C34.8142959,12.2261742 35.6416493,11.5466341 35.800123,11.3923184 C35.4831757,13.4634553 34.8441751,14.8831595 33.9211324,15.6584121 C33.0319401,16.4283371 32.4914656,17.0781164 32.3314791,17.6035245 C32.1731945,18.0977021 32.0776943,18.5301535 32.0776943,18.839336 C32.0776943,19.1804838 32.1731945,19.6129352 32.3314791,20.168839 C32.4914656,20.756892 32.6510739,21.0348439 32.8095475,21.0348439 C33.000548,21.0348439 33.7324012,20.1381596 35.0682697,18.3771237 C35.2292018,20.1381596 35.2592702,21.1586639 35.16377,21.4046504 C35.1337016,21.6214272 35.1007965,21.8367343 35.1007965,21.9927034 C35.0682697,22.1470191 35.2895277,22.855769 35.734502,24.1538578 C36.2140834,25.4537837 36.6274764,25.9472264 36.9117078,25.6402485 C37.1668163,25.2987332 37.3268028,25.0826912 37.3268028,24.9895507 C37.3268028,24.9283755 37.2313026,24.4946382 37.0073971,23.6923804 C36.7859501,22.8879181 36.6904498,22.11487 36.721842,21.4046504 C36.7859501,20.6622818 36.8190442,19.6434309 36.8190442,18.3444235 C36.8190442,17.0781164 37.4852765,15.6264467 38.8224688,14.0195429 C40.126756,12.4128227 41.1125831,10.7125946 41.7814629,8.95155871 M55.9050956,23.3841165 C55.9050956,22.9503792 55.6806228,22.2392411 55.2354593,21.2189205 C54.7933217,20.1993347 54.3150641,19.6129352 53.8044688,19.4586195 L48.9700771,17.882395 C51.0377989,16.5214777 52.0865994,15.7805787 52.0865994,15.6584121 C52.0563419,15.5331225 51.9606525,15.2246748 51.736747,14.7282927 C51.5472595,14.2668154 51.2287993,13.8637575 50.8152171,13.5543913 C50.4012567,13.2145294 49.8605931,13.4634553 49.1917133,14.3586699 C48.5576296,15.2871359 47.951345,15.904215 47.4104922,16.21303 C46.8700176,16.5214777 46.2347993,16.7397241 45.5343382,16.8306602 C44.8323643,16.8918353 44.3870117,17.2012015 44.2302401,17.7571054 C44.0700644,18.3152138 43.9747533,18.7164345 43.9747533,18.9644419 C43.9747533,19.2109796 44.4840248,19.3347995 45.4698519,19.3347995 C46.0091918,19.3347995 46.5844625,19.4264704 47.2508839,19.6129352 C46.9655179,19.9520622 46.6799627,20.3231547 46.3616917,20.756892 C45.2801752,22.2392411 44.4201059,23.0727295 43.7521716,23.320002 C43.0842373,23.5691116 42.6717898,23.320002 42.6088164,22.6095987 C42.5108578,21.8674138 42.8302635,19.4891152 43.4993324,15.4719473 C43.8160906,15.6264467 44.1330379,15.6584121 44.4201059,15.5636182 C44.7064174,15.5026268 45.0246885,15.3802765 45.3427704,15.2246748 C45.6928119,15.0688895 45.8524202,14.9786883 47.7928713,14.1433628 C49.0657664,13.5858056 49.7009848,13.2773579 49.7009848,13.1840337 C49.7009848,13.0923628 49.4470109,12.8754023 48.9386849,12.5676895 C51.1007723,9.10660922 52.212168,7.2195489 52.3105049,6.9423318 C52.4061942,6.69469188 51.8326255,6.07687803 50.5924463,5.1199371 C49.3199294,4.12882626 48.4623185,3.6673489 47.951345,3.69729349 C47.4734656,3.72925888 46.5530704,4.03935991 45.2173909,4.65570409 C43.9115908,5.27351794 42.8302635,6.4481542 42.0027209,8.20845522 C43.9747533,7.59192733 45.0889857,7.28347968 45.3427704,7.28347968 C45.5969334,7.25151429 46.1062049,6.88042182 46.8386255,6.17001856 C47.6018709,5.45832934 48.1098186,5.08852283 48.3653054,5.08852283 C48.587698,5.08852283 48.8106579,5.33616276 48.9700771,5.82960552 C49.1285507,6.29383852 48.9700771,7.25151429 48.4623185,8.70336765 C47.4734656,8.0534047 46.9324237,7.74642672 46.8386255,7.74642672 C46.7714917,7.74642672 46.2347993,8.02143931 45.2474593,8.48861166 C44.2302401,8.98131959 43.5952108,9.13710494 43.3408587,8.98131959 C43.1173315,8.79724303 42.8932369,8.70336765 42.7347632,8.70336765 C42.5749658,8.70336765 42.4151684,8.73478192 42.2568839,8.82773874 C42.0984102,8.92106299 41.9713287,9.16704953 41.8769632,9.57010739 C41.7814629,9.97022591 41.7489361,10.4958178 41.7489361,11.1448622 C41.7489361,11.7641457 41.6203418,13.2466785 41.366557,15.5942976 C41.1426515,17.9128907 41.1753674,19.9520622 41.3990838,21.7138329 C41.6534359,23.506283 42.0344913,24.6807356 42.5108578,25.2377417 C43.0212639,25.8241413 43.4340897,26.1649218 43.8491847,26.2260969 C44.294159,26.3183189 44.5795251,26.2870884 44.7395116,26.1954175 C44.8977961,26.1335075 45.437136,25.4216346 46.3616917,24.0638403 C47.062531,22.9810586 47.634965,21.6214272 48.0799393,19.9520622 C48.4623185,20.0764333 48.8416718,20.2298305 49.224051,20.4162952 C50.6879465,21.1586639 51.9292604,21.8367343 52.9139528,22.4247873 C53.9328741,23.04205 54.6645382,23.4757873 55.172675,23.7230598 C55.6806228,23.9078712 55.9359204,24.0316912 55.9050956,23.3841165" id="Fill-11" fill="#592F14" mask="url(#mask-4)"></path>
                        <path d="M11.6288452,27.8260198 C11.6288452,27.9704152 11.5087608,28.0852334 11.3612555,28.0852334 L1.6066164,28.0852334 C1.45930021,28.0852334 1.33883754,27.9704152 1.33883754,27.8260198 L1.33883754,27.8205086 C1.33883754,27.6775829 1.45930021,27.5603764 1.6066164,27.5603764 L11.3612555,27.5603764 C11.5087608,27.5603764 11.6288452,27.6775829 11.6288452,27.8205086 L11.6288452,27.8260198" id="Fill-12" fill="#592F14" mask="url(#mask-4)"></path>
                        <path d="M1.60714591,28.3267375 C1.32253632,28.3267375 1.08898626,28.1042657 1.08898626,27.8253952 L1.08898626,27.8204351 C1.08898626,27.5422994 1.31951057,27.3176232 1.60714591,27.3176232 L11.3612176,27.3176232 C11.6473401,27.3176232 11.8772971,27.5422994 11.8786209,27.8204351 L11.8786209,27.8253952 C11.8786209,27.8298043 11.8786209,27.8342133 11.8784317,27.8391734 C11.8691654,28.1123489 11.6390193,28.3267375 11.3612176,28.3267375 L1.60714591,28.3267375 Z" id="Fill-13" fill="#7C8084" mask="url(#mask-4)"></path>
                        <path d="M54.6485395,27.8260198 C54.6485395,27.9704152 54.5311026,28.0852334 54.3820844,28.0852334 L19.508238,28.0852334 C19.3595981,28.0852334 19.2393245,27.9704152 19.2393245,27.8260198 L19.2393245,27.8205086 C19.2393245,27.6775829 19.3595981,27.5603764 19.508238,27.5603764 L54.3820844,27.5603764 C54.5311026,27.5603764 54.6485395,27.6775829 54.6485395,27.8205086 L54.6485395,27.8260198" id="Fill-14" fill="#592F14" mask="url(#mask-4)"></path>
                        <path d="M19.5079922,28.3267375 C19.2247064,28.3267375 18.9900217,28.1042657 18.9883197,27.8253952 L18.9883197,27.8204351 C18.9900217,27.5408298 19.2216806,27.3176232 19.5079922,27.3176232 L54.3827841,27.3176232 C54.6704195,27.3176232 54.8973507,27.5459736 54.8988636,27.8204351 L54.8988636,27.8253952 C54.8988636,27.8298043 54.8988636,27.8342133 54.8986745,27.8391734 C54.8888408,28.1090422 54.6620987,28.3267375 54.3827841,28.3267375 L19.5079922,28.3267375 Z" id="Fill-15" fill="#7C8084" mask="url(#mask-4)"></path>
                    </g>
                </g>
            </g>
        </g>
    </g>
</svg>